<?xml version="1.0" encoding="UTF-8" standalone="no"?><svg xmlns="http://www.w3.org/2000/svg" xmlns:xlink="http://www.w3.org/1999/xlink" contentStyleType="text/css" height="419px" preserveAspectRatio="none" style="width:991px;height:419px;background:#FFFFFF;" version="1.1" viewBox="0 0 991 419" width="991px" zoomAndPan="magnify"><defs/><g><g id="elem_BeanDefintion"><rect codeLine="2" fill="#F1F1F1" height="48" id="BeanDefintion" rx="2.5" ry="2.5" style="stroke:#181818;stroke-width:0.5;" width="130" x="425" y="7"/><ellipse cx="440" cy="23" fill="#B4A7E5" rx="11" ry="11" style="stroke:#181818;stroke-width:1.0;"/><path d="M435.9219,18.7656 L435.9219,16.6094 L443.3125,16.6094 L443.3125,18.7656 L440.8438,18.7656 L440.8438,26.8438 L443.3125,26.8438 L443.3125,29 L435.9219,29 L435.9219,26.8438 L438.3906,26.8438 L438.3906,18.7656 L435.9219,18.7656 Z " fill="#000000"/><text fill="#000000" font-family="sans-serif" font-size="14" font-style="italic" lengthAdjust="spacing" textLength="98" x="454" y="27.8467">BeanDefintion</text><line style="stroke:#181818;stroke-width:0.5;" x1="426" x2="554" y1="39" y2="39"/><line style="stroke:#181818;stroke-width:0.5;" x1="426" x2="554" y1="47" y2="47"/></g><g id="elem_AnnotatedBeanDefinition"><rect codeLine="4" fill="#F1F1F1" height="80.5938" id="AnnotatedBeanDefinition" rx="2.5" ry="2.5" style="stroke:#181818;stroke-width:0.5;" width="352" x="7" y="223"/><ellipse cx="92.25" cy="239" fill="#B4A7E5" rx="11" ry="11" style="stroke:#181818;stroke-width:1.0;"/><path d="M88.1719,234.7656 L88.1719,232.6094 L95.5625,232.6094 L95.5625,234.7656 L93.0938,234.7656 L93.0938,242.8438 L95.5625,242.8438 L95.5625,245 L88.1719,245 L88.1719,242.8438 L90.6406,242.8438 L90.6406,234.7656 L88.1719,234.7656 Z " fill="#000000"/><text fill="#000000" font-family="sans-serif" font-size="14" font-style="italic" lengthAdjust="spacing" textLength="173" x="112.75" y="243.8467">AnnotatedBeanDefinition</text><line style="stroke:#181818;stroke-width:0.5;" x1="8" x2="358" y1="255" y2="255"/><line style="stroke:#181818;stroke-width:0.5;" x1="8" x2="358" y1="263" y2="263"/><ellipse cx="18" cy="276.6484" fill="#84BE84" rx="3" ry="3" style="stroke:#038048;stroke-width:1.0;"/><text fill="#000000" font-family="sans-serif" font-size="14" lengthAdjust="spacing" textLength="245" x="27" y="279.9951">getMetadata(): AnnotationMetadata</text><ellipse cx="18" cy="292.9453" fill="#84BE84" rx="3" ry="3" style="stroke:#038048;stroke-width:1.0;"/><text fill="#000000" font-family="sans-serif" font-size="14" lengthAdjust="spacing" textLength="326" x="27" y="296.292">getFactoryMethodMetadata(): MethodMetadata</text></g><g id="elem_AbstractBeanDefinition"><rect codeLine="9" fill="#F1F1F1" height="48" id="AbstractBeanDefinition" rx="2.5" ry="2.5" style="stroke:#181818;stroke-width:0.5;" width="190" x="498" y="115"/><ellipse cx="513" cy="131" fill="#A9DCDF" rx="11" ry="11" style="stroke:#181818;stroke-width:1.0;"/><path d="M513.1094,126.3438 L511.9531,131.4219 L514.2813,131.4219 L513.1094,126.3438 Z M511.625,124.1094 L514.6094,124.1094 L517.9688,136.5 L515.5156,136.5 L514.75,133.4375 L511.4688,133.4375 L510.7188,136.5 L508.2813,136.5 L511.625,124.1094 Z " fill="#000000"/><text fill="#000000" font-family="sans-serif" font-size="14" font-style="italic" lengthAdjust="spacing" textLength="158" x="527" y="135.8467">AbstractBeanDefinition</text><line style="stroke:#181818;stroke-width:0.5;" x1="499" x2="687" y1="147" y2="147"/><line style="stroke:#181818;stroke-width:0.5;" x1="499" x2="687" y1="155" y2="155"/></g><g id="elem_RootBeanDefinition"><rect codeLine="11" fill="#F1F1F1" height="48" id="RootBeanDefinition" rx="2.5" ry="2.5" style="stroke:#181818;stroke-width:0.5;" width="166" x="616" y="239.5"/><ellipse cx="631" cy="255.5" fill="#ADD1B2" rx="11" ry="11" style="stroke:#181818;stroke-width:1.0;"/><path d="M633.9688,261.1406 Q633.3906,261.4375 632.75,261.5781 Q632.1094,261.7344 631.4063,261.7344 Q628.9063,261.7344 627.5781,260.0938 Q626.2656,258.4375 626.2656,255.3125 Q626.2656,252.1875 627.5781,250.5313 Q628.9063,248.875 631.4063,248.875 Q632.1094,248.875 632.75,249.0313 Q633.4063,249.1875 633.9688,249.4844 L633.9688,252.2031 Q633.3438,251.625 632.75,251.3594 Q632.1563,251.0781 631.5313,251.0781 Q630.1875,251.0781 629.5,252.1563 Q628.8125,253.2188 628.8125,255.3125 Q628.8125,257.4063 629.5,258.4844 Q630.1875,259.5469 631.5313,259.5469 Q632.1563,259.5469 632.75,259.2813 Q633.3438,259 633.9688,258.4219 L633.9688,261.1406 Z " fill="#000000"/><text fill="#000000" font-family="sans-serif" font-size="14" lengthAdjust="spacing" textLength="134" x="645" y="260.3467">RootBeanDefinition</text><line style="stroke:#181818;stroke-width:0.5;" x1="617" x2="781" y1="271.5" y2="271.5"/><line style="stroke:#181818;stroke-width:0.5;" x1="617" x2="781" y1="279.5" y2="279.5"/></g><g id="elem_ChildBeanDefinition"><rect codeLine="13" fill="#F1F1F1" height="48" id="ChildBeanDefinition" rx="2.5" ry="2.5" style="stroke:#181818;stroke-width:0.5;" width="167" x="817.5" y="239.5"/><ellipse cx="832.5" cy="255.5" fill="#ADD1B2" rx="11" ry="11" style="stroke:#181818;stroke-width:1.0;"/><path d="M835.4688,261.1406 Q834.8906,261.4375 834.25,261.5781 Q833.6094,261.7344 832.9063,261.7344 Q830.4063,261.7344 829.0781,260.0938 Q827.7656,258.4375 827.7656,255.3125 Q827.7656,252.1875 829.0781,250.5313 Q830.4063,248.875 832.9063,248.875 Q833.6094,248.875 834.25,249.0313 Q834.9063,249.1875 835.4688,249.4844 L835.4688,252.2031 Q834.8438,251.625 834.25,251.3594 Q833.6563,251.0781 833.0313,251.0781 Q831.6875,251.0781 831,252.1563 Q830.3125,253.2188 830.3125,255.3125 Q830.3125,257.4063 831,258.4844 Q831.6875,259.5469 833.0313,259.5469 Q833.6563,259.5469 834.25,259.2813 Q834.8438,259 835.4688,258.4219 L835.4688,261.1406 Z " fill="#000000"/><text fill="#000000" font-family="sans-serif" font-size="14" lengthAdjust="spacing" textLength="135" x="846.5" y="260.3467">ChildBeanDefinition</text><line style="stroke:#181818;stroke-width:0.5;" x1="818.5" x2="983.5" y1="271.5" y2="271.5"/><line style="stroke:#181818;stroke-width:0.5;" x1="818.5" x2="983.5" y1="279.5" y2="279.5"/></g><g id="elem_GenericBeanDefinition"><rect codeLine="15" fill="#F1F1F1" height="48" id="GenericBeanDefinition" rx="2.5" ry="2.5" style="stroke:#181818;stroke-width:0.5;" width="187" x="393.5" y="239.5"/><ellipse cx="408.5" cy="255.5" fill="#ADD1B2" rx="11" ry="11" style="stroke:#181818;stroke-width:1.0;"/><path d="M411.4688,261.1406 Q410.8906,261.4375 410.25,261.5781 Q409.6094,261.7344 408.9063,261.7344 Q406.4063,261.7344 405.0781,260.0938 Q403.7656,258.4375 403.7656,255.3125 Q403.7656,252.1875 405.0781,250.5313 Q406.4063,248.875 408.9063,248.875 Q409.6094,248.875 410.25,249.0313 Q410.9063,249.1875 411.4688,249.4844 L411.4688,252.2031 Q410.8438,251.625 410.25,251.3594 Q409.6563,251.0781 409.0313,251.0781 Q407.6875,251.0781 407,252.1563 Q406.3125,253.2188 406.3125,255.3125 Q406.3125,257.4063 407,258.4844 Q407.6875,259.5469 409.0313,259.5469 Q409.6563,259.5469 410.25,259.2813 Q410.8438,259 411.4688,258.4219 L411.4688,261.1406 Z " fill="#000000"/><text fill="#000000" font-family="sans-serif" font-size="14" lengthAdjust="spacing" textLength="155" x="422.5" y="260.3467">GenericBeanDefinition</text><line style="stroke:#181818;stroke-width:0.5;" x1="394.5" x2="579.5" y1="271.5" y2="271.5"/><line style="stroke:#181818;stroke-width:0.5;" x1="394.5" x2="579.5" y1="279.5" y2="279.5"/></g><g id="elem_ScannedGenericBeanDefinition"><rect codeLine="17" fill="#F1F1F1" height="48" id="ScannedGenericBeanDefinition" rx="2.5" ry="2.5" style="stroke:#181818;stroke-width:0.5;" width="248" x="66" y="364"/><ellipse cx="81" cy="380" fill="#ADD1B2" rx="11" ry="11" style="stroke:#181818;stroke-width:1.0;"/><path d="M83.9687,385.6406 Q83.3906,385.9375 82.75,386.0781 Q82.1094,386.2344 81.4062,386.2344 Q78.9062,386.2344 77.5781,384.5938 Q76.2656,382.9375 76.2656,379.8125 Q76.2656,376.6875 77.5781,375.0313 Q78.9062,373.375 81.4062,373.375 Q82.1094,373.375 82.75,373.5313 Q83.4062,373.6875 83.9687,373.9844 L83.9687,376.7031 Q83.3437,376.125 82.75,375.8594 Q82.1562,375.5781 81.5312,375.5781 Q80.1875,375.5781 79.5,376.6563 Q78.8125,377.7188 78.8125,379.8125 Q78.8125,381.9063 79.5,382.9844 Q80.1875,384.0469 81.5312,384.0469 Q82.1562,384.0469 82.75,383.7813 Q83.3437,383.5 83.9687,382.9219 L83.9687,385.6406 Z " fill="#000000"/><text fill="#000000" font-family="sans-serif" font-size="14" lengthAdjust="spacing" textLength="216" x="95" y="384.8467">ScannedGenericBeanDefinition</text><line style="stroke:#181818;stroke-width:0.5;" x1="67" x2="313" y1="396" y2="396"/><line style="stroke:#181818;stroke-width:0.5;" x1="67" x2="313" y1="404" y2="404"/></g><g id="elem_AnnotatedGenericBeanDefinition"><rect codeLine="19" fill="#F1F1F1" height="48" id="AnnotatedGenericBeanDefinition" rx="2.5" ry="2.5" style="stroke:#181818;stroke-width:0.5;" width="259" x="353.5" y="364"/><ellipse cx="368.5" cy="380" fill="#ADD1B2" rx="11" ry="11" style="stroke:#181818;stroke-width:1.0;"/><path d="M371.4688,385.6406 Q370.8906,385.9375 370.25,386.0781 Q369.6094,386.2344 368.9063,386.2344 Q366.4063,386.2344 365.0781,384.5938 Q363.7656,382.9375 363.7656,379.8125 Q363.7656,376.6875 365.0781,375.0313 Q366.4063,373.375 368.9063,373.375 Q369.6094,373.375 370.25,373.5313 Q370.9063,373.6875 371.4688,373.9844 L371.4688,376.7031 Q370.8438,376.125 370.25,375.8594 Q369.6563,375.5781 369.0313,375.5781 Q367.6875,375.5781 367,376.6563 Q366.3125,377.7188 366.3125,379.8125 Q366.3125,381.9063 367,382.9844 Q367.6875,384.0469 369.0313,384.0469 Q369.6563,384.0469 370.25,383.7813 Q370.8438,383.5 371.4688,382.9219 L371.4688,385.6406 Z " fill="#000000"/><text fill="#000000" font-family="sans-serif" font-size="14" lengthAdjust="spacing" textLength="227" x="382.5" y="384.8467">AnnotatedGenericBeanDefinition</text><line style="stroke:#181818;stroke-width:0.5;" x1="354.5" x2="611.5" y1="396" y2="396"/><line style="stroke:#181818;stroke-width:0.5;" x1="354.5" x2="611.5" y1="404" y2="404"/></g><g id="link_BeanDefintion_AbstractBeanDefinition"><path codeLine="21" d="M526.685,69.753 C541.251,84.744 557.546,101.514 570.338,114.678 " fill="none" id="BeanDefintion-backto-AbstractBeanDefinition" style="stroke:#181818;stroke-width:1.0;stroke-dasharray:7.0,7.0;"/><polygon fill="none" points="521.267,74.222,512.349,55,531.307,64.466,521.267,74.222" style="stroke:#181818;stroke-width:1.0;"/></g><g id="link_BeanDefintion_AnnotatedBeanDefinition"><path codeLine="22" d="M443.093,67.219 C387.221,109.168 294.134,179.059 235.792,222.863 " fill="none" id="BeanDefintion-backto-AnnotatedBeanDefinition" style="stroke:#181818;stroke-width:1.0;"/><polygon fill="none" points="438.961,61.567,459.158,55.157,447.367,72.763,438.961,61.567" style="stroke:#181818;stroke-width:1.0;"/></g><g id="link_AbstractBeanDefinition_RootBeanDefinition"><path codeLine="23" d="M626.176,178.34 C643.42,198.269 663.936,221.978 678.791,239.146 " fill="none" id="AbstractBeanDefinition-backto-RootBeanDefinition" style="stroke:#181818;stroke-width:1.0;"/><polygon fill="none" points="620.731,182.746,612.938,163.041,631.318,173.585,620.731,182.746" style="stroke:#181818;stroke-width:1.0;"/></g><g id="link_AbstractBeanDefinition_ChildBeanDefinition"><path codeLine="24" d="M669.524,170.436 C723.252,191.805 793.993,219.94 843.066,239.458 " fill="none" id="AbstractBeanDefinition-backto-ChildBeanDefinition" style="stroke:#181818;stroke-width:1.0;"/><polygon fill="none" points="666.93,176.937,650.932,163.041,672.104,163.928,666.93,176.937" style="stroke:#181818;stroke-width:1.0;"/></g><g id="link_AbstractBeanDefinition_GenericBeanDefinition"><path codeLine="25" d="M559.824,178.34 C542.58,198.269 522.064,221.978 507.209,239.146 " fill="none" id="AbstractBeanDefinition-backto-GenericBeanDefinition" style="stroke:#181818;stroke-width:1.0;"/><polygon fill="none" points="554.682,173.585,573.062,163.041,565.269,182.746,554.682,173.585" style="stroke:#181818;stroke-width:1.0;"/></g><g id="link_GenericBeanDefinition_ScannedGenericBeanDefinition"><path codeLine="26" d="M412.528,295.217 C360.803,316.5509 292.978,344.5259 245.865,363.9581 " fill="none" id="GenericBeanDefinition-backto-ScannedGenericBeanDefinition" style="stroke:#181818;stroke-width:1.0;"/><polygon fill="none" points="409.978,288.696,431.137,287.541,415.317,301.638,409.978,288.696" style="stroke:#181818;stroke-width:1.0;"/></g><g id="link_GenericBeanDefinition_AnnotatedGenericBeanDefinition"><path codeLine="27" d="M485.591,307.666 C484.975,326.5022 484.279,347.845 483.763,363.6455 " fill="none" id="GenericBeanDefinition-backto-AnnotatedGenericBeanDefinition" style="stroke:#181818;stroke-width:1.0;"/><polygon fill="none" points="478.599,307.302,486.248,287.541,492.591,307.759,478.599,307.302" style="stroke:#181818;stroke-width:1.0;"/></g><g id="link_AnnotatedBeanDefinition_ScannedGenericBeanDefinition"><path codeLine="28" d="M186.424,324.4186 C187.226,338.449 188.033,352.5727 188.677,363.8428 " fill="none" id="AnnotatedBeanDefinition-backto-ScannedGenericBeanDefinition" style="stroke:#181818;stroke-width:1.0;stroke-dasharray:7.0,7.0;"/><polygon fill="none" points="179.425,324.639,185.273,304.272,193.402,323.8403,179.425,324.639" style="stroke:#181818;stroke-width:1.0;"/></g><g id="link_AnnotatedBeanDefinition_AnnotatedGenericBeanDefinition"><path codeLine="29" d="M298.504,311.664 C342.417,329.5953 390.5,349.2293 426.567,363.9567 " fill="none" id="AnnotatedBeanDefinition-backto-AnnotatedGenericBeanDefinition" style="stroke:#181818;stroke-width:1.0;stroke-dasharray:7.0,7.0;"/><polygon fill="none" points="295.857,318.1443,279.987,304.103,301.149,305.183,295.857,318.1443" style="stroke:#181818;stroke-width:1.0;"/></g></g></svg>