<?xml version="1.0" encoding="UTF-8" standalone="no"?><svg xmlns="http://www.w3.org/2000/svg" xmlns:xlink="http://www.w3.org/1999/xlink" contentStyleType="text/css" height="554px" preserveAspectRatio="none" style="width:651px;height:554px;background:#FFFFFF;" version="1.1" viewBox="0 0 651 554" width="651px" zoomAndPan="magnify"><defs/><g><g id="elem_BeanDefinitionReader"><rect codeLine="2" fill="#F1F1F1" height="178.375" id="BeanDefinitionReader" rx="2.5" ry="2.5" style="stroke:#181818;stroke-width:0.5;" width="360" x="7" y="7"/><ellipse cx="107.25" cy="23" fill="#B4A7E5" rx="11" ry="11" style="stroke:#181818;stroke-width:1.0;"/><path d="M103.1719,18.7656 L103.1719,16.6094 L110.5625,16.6094 L110.5625,18.7656 L108.0938,18.7656 L108.0938,26.8438 L110.5625,26.8438 L110.5625,29 L103.1719,29 L103.1719,26.8438 L105.6406,26.8438 L105.6406,18.7656 L103.1719,18.7656 Z " fill="#000000"/><text fill="#000000" font-family="sans-serif" font-size="14" font-style="italic" lengthAdjust="spacing" textLength="151" x="127.75" y="27.8467">BeanDefinitionReader</text><line style="stroke:#181818;stroke-width:0.5;" x1="8" x2="366" y1="39" y2="39"/><line style="stroke:#181818;stroke-width:0.5;" x1="8" x2="366" y1="47" y2="47"/><ellipse cx="18" cy="60.6484" fill="#84BE84" rx="3" ry="3" style="stroke:#038048;stroke-width:1.0;"/><text fill="#000000" font-family="sans-serif" font-size="14" lengthAdjust="spacing" textLength="255" x="27" y="63.9951">getRegistry(): BeanDefinitionRegistry</text><ellipse cx="18" cy="76.9453" fill="#84BE84" rx="3" ry="3" style="stroke:#038048;stroke-width:1.0;"/><text fill="#000000" font-family="sans-serif" font-size="14" lengthAdjust="spacing" textLength="270" x="27" y="80.292">getResourceLoader(): ResourceLoader</text><ellipse cx="18" cy="93.2422" fill="#84BE84" rx="3" ry="3" style="stroke:#038048;stroke-width:1.0;"/><text fill="#000000" font-family="sans-serif" font-size="14" lengthAdjust="spacing" textLength="246" x="27" y="96.5889">getBeanClassLoader(): ClassLoader</text><ellipse cx="18" cy="109.5391" fill="#84BE84" rx="3" ry="3" style="stroke:#038048;stroke-width:1.0;"/><text fill="#000000" font-family="sans-serif" font-size="14" lengthAdjust="spacing" textLength="334" x="27" y="112.8857">getBeanNameGenerator(): BeanNameGenerator</text><ellipse cx="18" cy="125.8359" fill="#84BE84" rx="3" ry="3" style="stroke:#038048;stroke-width:1.0;"/><text fill="#000000" font-family="sans-serif" font-size="14" lengthAdjust="spacing" textLength="319" x="27" y="129.1826">loadBeanDefinitions(Resource... resource): int</text><ellipse cx="18" cy="142.1328" fill="#84BE84" rx="3" ry="3" style="stroke:#038048;stroke-width:1.0;"/><text fill="#000000" font-family="sans-serif" font-size="14" lengthAdjust="spacing" textLength="307" x="27" y="145.4795">loadBeanDefinitions(Resource resource): int</text><ellipse cx="18" cy="158.4297" fill="#84BE84" rx="3" ry="3" style="stroke:#038048;stroke-width:1.0;"/><text fill="#000000" font-family="sans-serif" font-size="14" lengthAdjust="spacing" textLength="272" x="27" y="161.7764">loadBeanDefinitions(String location): int</text><ellipse cx="18" cy="174.7266" fill="#84BE84" rx="3" ry="3" style="stroke:#038048;stroke-width:1.0;"/><text fill="#000000" font-family="sans-serif" font-size="14" lengthAdjust="spacing" textLength="292" x="27" y="178.0732">loadBeanDefinitions(String... locations): int</text></g><g id="elem_EnvironmentCapable"><rect codeLine="13" fill="#F1F1F1" height="64.2969" id="EnvironmentCapable" rx="2.5" ry="2.5" style="stroke:#181818;stroke-width:0.5;" width="242" x="402" y="64"/><ellipse cx="447.25" cy="80" fill="#B4A7E5" rx="11" ry="11" style="stroke:#181818;stroke-width:1.0;"/><path d="M443.1719,75.7656 L443.1719,73.6094 L450.5625,73.6094 L450.5625,75.7656 L448.0938,75.7656 L448.0938,83.8438 L450.5625,83.8438 L450.5625,86 L443.1719,86 L443.1719,83.8438 L445.6406,83.8438 L445.6406,75.7656 L443.1719,75.7656 Z " fill="#000000"/><text fill="#000000" font-family="sans-serif" font-size="14" font-style="italic" lengthAdjust="spacing" textLength="143" x="467.75" y="84.8467">EnvironmentCapable</text><line style="stroke:#181818;stroke-width:0.5;" x1="403" x2="643" y1="96" y2="96"/><line style="stroke:#181818;stroke-width:0.5;" x1="403" x2="643" y1="104" y2="104"/><ellipse cx="413" cy="117.6484" fill="#84BE84" rx="3" ry="3" style="stroke:#038048;stroke-width:1.0;"/><text fill="#000000" font-family="sans-serif" font-size="14" lengthAdjust="spacing" textLength="216" x="422" y="120.9951">getEnvironment(): Environment</text></g><g id="elem_AbstractBeanDefinitionReader"><rect codeLine="17" fill="#F1F1F1" height="178.375" id="AbstractBeanDefinitionReader" rx="2.5" ry="2.5" style="stroke:#181818;stroke-width:0.5;" width="353" x="178.5" y="245"/><ellipse cx="246.75" cy="261" fill="#A9DCDF" rx="11" ry="11" style="stroke:#181818;stroke-width:1.0;"/><path d="M246.8594,256.3438 L245.7031,261.4219 L248.0313,261.4219 L246.8594,256.3438 Z M245.375,254.1094 L248.3594,254.1094 L251.7188,266.5 L249.2656,266.5 L248.5,263.4375 L245.2188,263.4375 L244.4688,266.5 L242.0313,266.5 L245.375,254.1094 Z " fill="#000000"/><text fill="#000000" font-family="sans-serif" font-size="14" font-style="italic" lengthAdjust="spacing" textLength="208" x="267.25" y="265.8467">AbstractBeanDefinitionReader</text><line style="stroke:#181818;stroke-width:0.5;" x1="179.5" x2="530.5" y1="277" y2="277"/><rect fill="none" height="6" style="stroke:#C82930;stroke-width:1.0;" width="6" x="186.5" y="287.6484"/><text fill="#000000" font-family="sans-serif" font-size="14" lengthAdjust="spacing" textLength="217" x="198.5" y="293.9951">registry: BeanDefinitionRegistry</text><rect fill="none" height="6" style="stroke:#C82930;stroke-width:1.0;" width="6" x="186.5" y="303.9453"/><text fill="#000000" font-family="sans-serif" font-size="14" lengthAdjust="spacing" textLength="232" x="198.5" y="310.292">resourceLoader: ResourceLoader</text><rect fill="none" height="6" style="stroke:#C82930;stroke-width:1.0;" width="6" x="186.5" y="320.2422"/><text fill="#000000" font-family="sans-serif" font-size="14" lengthAdjust="spacing" textLength="212" x="198.5" y="326.5889">beanClassLoader: ClassLoader</text><rect fill="none" height="6" style="stroke:#C82930;stroke-width:1.0;" width="6" x="186.5" y="336.5391"/><text fill="#000000" font-family="sans-serif" font-size="14" lengthAdjust="spacing" textLength="300" x="198.5" y="342.8857">beanNameGenerator: BeanNameGenerator</text><rect fill="none" height="6" style="stroke:#C82930;stroke-width:1.0;" width="6" x="186.5" y="352.8359"/><text fill="#000000" font-family="sans-serif" font-size="14" lengthAdjust="spacing" textLength="183" x="198.5" y="359.1826">environment: Environment</text><line style="stroke:#181818;stroke-width:0.5;" x1="179.5" x2="530.5" y1="366.4844" y2="366.4844"/><ellipse cx="189.5" cy="380.1328" fill="#84BE84" rx="3" ry="3" style="stroke:#038048;stroke-width:1.0;"/><text fill="#000000" font-family="sans-serif" font-size="14" lengthAdjust="spacing" textLength="327" x="198.5" y="383.4795">loadBeanDefinitions(Resource... resources): int</text><ellipse cx="189.5" cy="396.4297" fill="#84BE84" rx="3" ry="3" style="stroke:#038048;stroke-width:1.0;"/><text fill="#000000" font-family="sans-serif" font-size="14" lengthAdjust="spacing" textLength="272" x="198.5" y="399.7764">loadBeanDefinitions(String location): int</text><ellipse cx="189.5" cy="412.7266" fill="#84BE84" rx="3" ry="3" style="stroke:#038048;stroke-width:1.0;"/><text fill="#000000" font-family="sans-serif" font-size="14" lengthAdjust="spacing" textLength="292" x="198.5" y="416.0732">loadBeanDefinitions(String... locations): int</text></g><g id="elem_XmlBeanDefinitionReader"><rect codeLine="28" fill="#F1F1F1" height="64.2969" id="XmlBeanDefinitionReader" rx="2.5" ry="2.5" style="stroke:#181818;stroke-width:0.5;" width="333" x="188.5" y="483"/><ellipse cx="262.75" cy="499" fill="#ADD1B2" rx="11" ry="11" style="stroke:#181818;stroke-width:1.0;"/><path d="M265.7188,504.6406 Q265.1406,504.9375 264.5,505.0781 Q263.8594,505.2344 263.1563,505.2344 Q260.6563,505.2344 259.3281,503.5938 Q258.0156,501.9375 258.0156,498.8125 Q258.0156,495.6875 259.3281,494.0313 Q260.6563,492.375 263.1563,492.375 Q263.8594,492.375 264.5,492.5313 Q265.1563,492.6875 265.7188,492.9844 L265.7188,495.7031 Q265.0938,495.125 264.5,494.8594 Q263.9063,494.5781 263.2813,494.5781 Q261.9375,494.5781 261.25,495.6563 Q260.5625,496.7188 260.5625,498.8125 Q260.5625,500.9063 261.25,501.9844 Q261.9375,503.0469 263.2813,503.0469 Q263.9063,503.0469 264.5,502.7813 Q265.0938,502.5 265.7188,501.9219 L265.7188,504.6406 Z " fill="#000000"/><text fill="#000000" font-family="sans-serif" font-size="14" lengthAdjust="spacing" textLength="176" x="283.25" y="503.8467">XmlBeanDefinitionReader</text><line style="stroke:#181818;stroke-width:0.5;" x1="189.5" x2="520.5" y1="515" y2="515"/><line style="stroke:#181818;stroke-width:0.5;" x1="189.5" x2="520.5" y1="523" y2="523"/><ellipse cx="199.5" cy="536.6484" fill="#84BE84" rx="3" ry="3" style="stroke:#038048;stroke-width:1.0;"/><text fill="#000000" font-family="sans-serif" font-size="14" lengthAdjust="spacing" textLength="307" x="208.5" y="539.9951">loadBeanDefinitions(Resource resource): int</text></g><g id="link_BeanDefinitionReader_AbstractBeanDefinitionReader"><path codeLine="32" d="M261.672,201.897 C271.893,216.255 282.301,230.876 292.28,244.894 " fill="none" id="BeanDefinitionReader-backto-AbstractBeanDefinitionReader" style="stroke:#181818;stroke-width:1.0;stroke-dasharray:7.0,7.0;"/><polygon fill="none" points="255.692,205.566,249.796,185.213,267.097,197.447,255.692,205.566" style="stroke:#181818;stroke-width:1.0;"/></g><g id="link_EnvironmentCapable_AbstractBeanDefinitionReader"><path codeLine="33" d="M488.857,144.963 C468.45,173.629 441.892,210.938 417.817,244.757 " fill="none" id="EnvironmentCapable-backto-AbstractBeanDefinitionReader" style="stroke:#181818;stroke-width:1.0;stroke-dasharray:7.0,7.0;"/><polygon fill="none" points="483.39,140.573,500.691,128.339,494.795,148.692,483.39,140.573" style="stroke:#181818;stroke-width:1.0;"/></g><g id="link_AbstractBeanDefinitionReader_XmlBeanDefinitionReader"><path codeLine="34" d="M355,443.581 C355,457.8008 355,471.3463 355,482.6902 " fill="none" id="AbstractBeanDefinitionReader-backto-XmlBeanDefinitionReader" style="stroke:#181818;stroke-width:1.0;"/><polygon fill="none" points="348,443.189,355,423.189,362,443.189,348,443.189" style="stroke:#181818;stroke-width:1.0;"/></g></g></svg>