<?xml version="1.0" encoding="UTF-8" standalone="no"?><svg xmlns="http://www.w3.org/2000/svg" xmlns:xlink="http://www.w3.org/1999/xlink" contentStyleType="text/css" height="802px" preserveAspectRatio="none" style="width:1544px;height:802px;background:#FFFFFF;" version="1.1" viewBox="0 0 1544 802" width="1544px" zoomAndPan="magnify"><defs/><g><g id="elem_BeanFactory"><rect codeLine="3" fill="#F1F1F1" height="48" id="BeanFactory" rx="2.5" ry="2.5" style="stroke:#181818;stroke-width:0.5;" width="118" x="242.5" y="7"/><ellipse cx="257.5" cy="23" fill="#B4A7E5" rx="11" ry="11" style="stroke:#181818;stroke-width:1.0;"/><path d="M253.4219,18.7656 L253.4219,16.6094 L260.8125,16.6094 L260.8125,18.7656 L258.3438,18.7656 L258.3438,26.8438 L260.8125,26.8438 L260.8125,29 L253.4219,29 L253.4219,26.8438 L255.8906,26.8438 L255.8906,18.7656 L253.4219,18.7656 Z " fill="#000000"/><text fill="#000000" font-family="sans-serif" font-size="14" font-style="italic" lengthAdjust="spacing" textLength="86" x="271.5" y="27.8467">BeanFactory</text><line style="stroke:#181818;stroke-width:0.5;" x1="243.5" x2="359.5" y1="39" y2="39"/><line style="stroke:#181818;stroke-width:0.5;" x1="243.5" x2="359.5" y1="47" y2="47"/></g><g id="elem_HierarchicalBeanFactory"><rect codeLine="5" fill="#F1F1F1" height="48" id="HierarchicalBeanFactory" rx="2.5" ry="2.5" style="stroke:#181818;stroke-width:0.5;" width="197" x="338" y="166.5"/><ellipse cx="353" cy="182.5" fill="#B4A7E5" rx="11" ry="11" style="stroke:#181818;stroke-width:1.0;"/><path d="M348.9219,178.2656 L348.9219,176.1094 L356.3125,176.1094 L356.3125,178.2656 L353.8438,178.2656 L353.8438,186.3438 L356.3125,186.3438 L356.3125,188.5 L348.9219,188.5 L348.9219,186.3438 L351.3906,186.3438 L351.3906,178.2656 L348.9219,178.2656 Z " fill="#000000"/><text fill="#000000" font-family="sans-serif" font-size="14" font-style="italic" lengthAdjust="spacing" textLength="165" x="367" y="187.3467">HierarchicalBeanFactory</text><line style="stroke:#181818;stroke-width:0.5;" x1="339" x2="534" y1="198.5" y2="198.5"/><line style="stroke:#181818;stroke-width:0.5;" x1="339" x2="534" y1="206.5" y2="206.5"/></g><g id="elem_AutowireCapableBeanFactory"><rect codeLine="7" fill="#F1F1F1" height="48" id="AutowireCapableBeanFactory" rx="2.5" ry="2.5" style="stroke:#181818;stroke-width:0.5;" width="234" x="132.5" y="326"/><ellipse cx="147.5" cy="342" fill="#B4A7E5" rx="11" ry="11" style="stroke:#181818;stroke-width:1.0;"/><path d="M143.4219,337.7656 L143.4219,335.6094 L150.8125,335.6094 L150.8125,337.7656 L148.3438,337.7656 L148.3438,345.8438 L150.8125,345.8438 L150.8125,348 L143.4219,348 L143.4219,345.8438 L145.8906,345.8438 L145.8906,337.7656 L143.4219,337.7656 Z " fill="#000000"/><text fill="#000000" font-family="sans-serif" font-size="14" font-style="italic" lengthAdjust="spacing" textLength="202" x="161.5" y="346.8467">AutowireCapableBeanFactory</text><line style="stroke:#181818;stroke-width:0.5;" x1="133.5" x2="365.5" y1="358" y2="358"/><line style="stroke:#181818;stroke-width:0.5;" x1="133.5" x2="365.5" y1="366" y2="366"/></g><g id="elem_ListableBeanFactory"><rect codeLine="9" fill="#F1F1F1" height="48" id="ListableBeanFactory" rx="2.5" ry="2.5" style="stroke:#181818;stroke-width:0.5;" width="170" x="95.5" y="166.5"/><ellipse cx="110.5" cy="182.5" fill="#B4A7E5" rx="11" ry="11" style="stroke:#181818;stroke-width:1.0;"/><path d="M106.4219,178.2656 L106.4219,176.1094 L113.8125,176.1094 L113.8125,178.2656 L111.3438,178.2656 L111.3438,186.3438 L113.8125,186.3438 L113.8125,188.5 L106.4219,188.5 L106.4219,186.3438 L108.8906,186.3438 L108.8906,178.2656 L106.4219,178.2656 Z " fill="#000000"/><text fill="#000000" font-family="sans-serif" font-size="14" font-style="italic" lengthAdjust="spacing" textLength="138" x="124.5" y="187.3467">ListableBeanFactory</text><line style="stroke:#181818;stroke-width:0.5;" x1="96.5" x2="264.5" y1="198.5" y2="198.5"/><line style="stroke:#181818;stroke-width:0.5;" x1="96.5" x2="264.5" y1="206.5" y2="206.5"/></g><g id="elem_ConfigurableBeanFactory"><rect codeLine="11" fill="#F1F1F1" height="48" id="ConfigurableBeanFactory" rx="2.5" ry="2.5" style="stroke:#181818;stroke-width:0.5;" width="205" x="402" y="326"/><ellipse cx="417" cy="342" fill="#B4A7E5" rx="11" ry="11" style="stroke:#181818;stroke-width:1.0;"/><path d="M412.9219,337.7656 L412.9219,335.6094 L420.3125,335.6094 L420.3125,337.7656 L417.8438,337.7656 L417.8438,345.8438 L420.3125,345.8438 L420.3125,348 L412.9219,348 L412.9219,345.8438 L415.3906,345.8438 L415.3906,337.7656 L412.9219,337.7656 Z " fill="#000000"/><text fill="#000000" font-family="sans-serif" font-size="14" font-style="italic" lengthAdjust="spacing" textLength="173" x="431" y="346.8467">ConfigurableBeanFactory</text><line style="stroke:#181818;stroke-width:0.5;" x1="403" x2="606" y1="358" y2="358"/><line style="stroke:#181818;stroke-width:0.5;" x1="403" x2="606" y1="366" y2="366"/></g><g id="elem_ConfigurableListableBeanFactory"><rect codeLine="13" fill="#F1F1F1" height="48" id="ConfigurableListableBeanFactory" rx="2.5" ry="2.5" style="stroke:#181818;stroke-width:0.5;" width="257" x="121" y="442"/><ellipse cx="136" cy="458" fill="#B4A7E5" rx="11" ry="11" style="stroke:#181818;stroke-width:1.0;"/><path d="M131.9219,453.7656 L131.9219,451.6094 L139.3125,451.6094 L139.3125,453.7656 L136.8438,453.7656 L136.8438,461.8438 L139.3125,461.8438 L139.3125,464 L131.9219,464 L131.9219,461.8438 L134.3906,461.8438 L134.3906,453.7656 L131.9219,453.7656 Z " fill="#000000"/><text fill="#000000" font-family="sans-serif" font-size="14" font-style="italic" lengthAdjust="spacing" textLength="225" x="150" y="462.8467">ConfigurableListableBeanFactory</text><line style="stroke:#181818;stroke-width:0.5;" x1="122" x2="377" y1="474" y2="474"/><line style="stroke:#181818;stroke-width:0.5;" x1="122" x2="377" y1="482" y2="482"/></g><g id="elem_BeanDefinitionRegistry"><rect codeLine="17" fill="#F1F1F1" height="48" id="BeanDefinitionRegistry" rx="2.5" ry="2.5" style="stroke:#181818;stroke-width:0.5;" width="189" x="7" y="590.5"/><ellipse cx="22" cy="606.5" fill="#B4A7E5" rx="11" ry="11" style="stroke:#181818;stroke-width:1.0;"/><path d="M17.9219,602.2656 L17.9219,600.1094 L25.3125,600.1094 L25.3125,602.2656 L22.8438,602.2656 L22.8438,610.3438 L25.3125,610.3438 L25.3125,612.5 L17.9219,612.5 L17.9219,610.3438 L20.3906,610.3438 L20.3906,602.2656 L17.9219,602.2656 Z " fill="#000000"/><text fill="#000000" font-family="sans-serif" font-size="14" font-style="italic" lengthAdjust="spacing" textLength="157" x="36" y="611.3467">BeanDefinitionRegistry</text><line style="stroke:#181818;stroke-width:0.5;" x1="8" x2="195" y1="622.5" y2="622.5"/><line style="stroke:#181818;stroke-width:0.5;" x1="8" x2="195" y1="630.5" y2="630.5"/></g><g id="elem_SingletonBeanRegistry"><rect codeLine="19" fill="#F1F1F1" height="48" id="SingletonBeanRegistry" rx="2.5" ry="2.5" style="stroke:#181818;stroke-width:0.5;" width="189" x="690" y="7"/><ellipse cx="705" cy="23" fill="#B4A7E5" rx="11" ry="11" style="stroke:#181818;stroke-width:1.0;"/><path d="M700.9219,18.7656 L700.9219,16.6094 L708.3125,16.6094 L708.3125,18.7656 L705.8438,18.7656 L705.8438,26.8438 L708.3125,26.8438 L708.3125,29 L700.9219,29 L700.9219,26.8438 L703.3906,26.8438 L703.3906,18.7656 L700.9219,18.7656 Z " fill="#000000"/><text fill="#000000" font-family="sans-serif" font-size="14" font-style="italic" lengthAdjust="spacing" textLength="157" x="719" y="27.8467">SingletonBeanRegistry</text><line style="stroke:#181818;stroke-width:0.5;" x1="691" x2="878" y1="39" y2="39"/><line style="stroke:#181818;stroke-width:0.5;" x1="691" x2="878" y1="47" y2="47"/></g><g id="elem_DefaultSingletonBeanRegistry"><rect codeLine="21" fill="#F1F1F1" height="96.8906" id="DefaultSingletonBeanRegistry" rx="2.5" ry="2.5" style="stroke:#181818;stroke-width:0.5;" width="389" x="642" y="142"/><ellipse cx="729.25" cy="158" fill="#ADD1B2" rx="11" ry="11" style="stroke:#181818;stroke-width:1.0;"/><path d="M732.2188,163.6406 Q731.6406,163.9375 731,164.0781 Q730.3594,164.2344 729.6563,164.2344 Q727.1563,164.2344 725.8281,162.5938 Q724.5156,160.9375 724.5156,157.8125 Q724.5156,154.6875 725.8281,153.0313 Q727.1563,151.375 729.6563,151.375 Q730.3594,151.375 731,151.5313 Q731.6563,151.6875 732.2188,151.9844 L732.2188,154.7031 Q731.5938,154.125 731,153.8594 Q730.4063,153.5781 729.7813,153.5781 Q728.4375,153.5781 727.75,154.6563 Q727.0625,155.7188 727.0625,157.8125 Q727.0625,159.9063 727.75,160.9844 Q728.4375,162.0469 729.7813,162.0469 Q730.4063,162.0469 731,161.7813 Q731.5938,161.5 732.2188,160.9219 L732.2188,163.6406 Z " fill="#000000"/><text fill="#000000" font-family="sans-serif" font-size="14" lengthAdjust="spacing" textLength="206" x="749.75" y="162.8467">DefaultSingletonBeanRegistry</text><line style="stroke:#181818;stroke-width:0.5;" x1="643" x2="1030" y1="174" y2="174"/><rect fill="none" height="6" style="stroke:#C82930;stroke-width:1.0;" width="6" x="650" y="184.6484"/><text fill="#000000" font-family="sans-serif" font-size="14" lengthAdjust="spacing" textLength="272" x="662" y="190.9951">singletonObjects: Map&lt;String, Object&gt;</text><rect fill="none" height="6" style="stroke:#C82930;stroke-width:1.0;" width="6" x="650" y="200.9453"/><text fill="#000000" font-family="sans-serif" font-size="14" lengthAdjust="spacing" textLength="305" x="662" y="207.292">earlySingletonObjects: Map&lt;String, Object&gt;</text><rect fill="none" height="6" style="stroke:#C82930;stroke-width:1.0;" width="6" x="650" y="217.2422"/><text fill="#000000" font-family="sans-serif" font-size="14" lengthAdjust="spacing" textLength="363" x="662" y="223.5889">singletonFactories: Map&lt;String, ObjectFactory&lt;?&gt;&gt;</text><line style="stroke:#181818;stroke-width:0.5;" x1="643" x2="1030" y1="230.8906" y2="230.8906"/></g><g id="elem_FactoryBeanRegistrySupport"><rect codeLine="27" fill="#F1F1F1" height="48" id="FactoryBeanRegistrySupport" rx="2.5" ry="2.5" style="stroke:#181818;stroke-width:0.5;" width="229" x="713" y="326"/><ellipse cx="728" cy="342" fill="#A9DCDF" rx="11" ry="11" style="stroke:#181818;stroke-width:1.0;"/><path d="M728.1094,337.3438 L726.9531,342.4219 L729.2813,342.4219 L728.1094,337.3438 Z M726.625,335.1094 L729.6094,335.1094 L732.9688,347.5 L730.5156,347.5 L729.75,344.4375 L726.4688,344.4375 L725.7188,347.5 L723.2813,347.5 L726.625,335.1094 Z " fill="#000000"/><text fill="#000000" font-family="sans-serif" font-size="14" font-style="italic" lengthAdjust="spacing" textLength="197" x="742" y="346.8467">FactoryBeanRegistrySupport</text><line style="stroke:#181818;stroke-width:0.5;" x1="714" x2="941" y1="358" y2="358"/><line style="stroke:#181818;stroke-width:0.5;" x1="714" x2="941" y1="366" y2="366"/></g><g id="elem_AbstractBeanFactory"><rect codeLine="29" fill="#F1F1F1" height="64.2969" id="AbstractBeanFactory" rx="2.5" ry="2.5" style="stroke:#181818;stroke-width:0.5;" width="363" x="638" y="434"/><ellipse cx="743.75" cy="450" fill="#A9DCDF" rx="11" ry="11" style="stroke:#181818;stroke-width:1.0;"/><path d="M743.8594,445.3438 L742.7031,450.4219 L745.0313,450.4219 L743.8594,445.3438 Z M742.375,443.1094 L745.3594,443.1094 L748.7188,455.5 L746.2656,455.5 L745.5,452.4375 L742.2188,452.4375 L741.4688,455.5 L739.0313,455.5 L742.375,443.1094 Z " fill="#000000"/><text fill="#000000" font-family="sans-serif" font-size="14" font-style="italic" lengthAdjust="spacing" textLength="143" x="764.25" y="454.8467">AbstractBeanFactory</text><line style="stroke:#181818;stroke-width:0.5;" x1="639" x2="1000" y1="466" y2="466"/><rect fill="none" height="6" style="stroke:#C82930;stroke-width:1.0;" width="6" x="646" y="476.6484"/><text fill="#000000" font-family="sans-serif" font-size="14" lengthAdjust="spacing" textLength="337" x="658" y="482.9951">beanPostProcessors: List&lt;BeanPostProcessor&gt;</text><line style="stroke:#181818;stroke-width:0.5;" x1="639" x2="1000" y1="490.2969" y2="490.2969"/></g><g id="elem_AbstractAutowireCapableBeanFactory"><rect codeLine="33" fill="#F1F1F1" height="113.1875" id="AbstractAutowireCapableBeanFactory" rx="2.5" ry="2.5" style="stroke:#181818;stroke-width:0.5;" width="291" x="302" y="558"/><ellipse cx="317" cy="574" fill="#A9DCDF" rx="11" ry="11" style="stroke:#181818;stroke-width:1.0;"/><path d="M317.1094,569.3438 L315.9531,574.4219 L318.2813,574.4219 L317.1094,569.3438 Z M315.625,567.1094 L318.6094,567.1094 L321.9688,579.5 L319.5156,579.5 L318.75,576.4375 L315.4688,576.4375 L314.7188,579.5 L312.2813,579.5 L315.625,567.1094 Z " fill="#000000"/><text fill="#000000" font-family="sans-serif" font-size="14" font-style="italic" lengthAdjust="spacing" textLength="259" x="331" y="578.8467">AbstractAutowireCapableBeanFactory</text><line style="stroke:#181818;stroke-width:0.5;" x1="303" x2="592" y1="590" y2="590"/><line style="stroke:#181818;stroke-width:0.5;" x1="303" x2="592" y1="598" y2="598"/><ellipse cx="313" cy="611.6484" fill="#84BE84" rx="3" ry="3" style="stroke:#038048;stroke-width:1.0;"/><text fill="#000000" font-family="sans-serif" font-size="14" lengthAdjust="spacing" textLength="108" x="322" y="614.9951">createBean(): T</text><ellipse cx="313" cy="627.9453" fill="#84BE84" rx="3" ry="3" style="stroke:#038048;stroke-width:1.0;"/><text fill="#000000" font-family="sans-serif" font-size="14" lengthAdjust="spacing" textLength="144" x="322" y="631.292">populateBean(): void</text><ellipse cx="313" cy="644.2422" fill="#84BE84" rx="3" ry="3" style="stroke:#038048;stroke-width:1.0;"/><text fill="#000000" font-family="sans-serif" font-size="14" lengthAdjust="spacing" textLength="154" x="322" y="647.5889">initializeBean(): Object</text><ellipse cx="313" cy="660.5391" fill="#84BE84" rx="3" ry="3" style="stroke:#038048;stroke-width:1.0;"/><text fill="#000000" font-family="sans-serif" font-size="14" lengthAdjust="spacing" textLength="123" x="322" y="663.8857">autowire(): Object</text></g><g id="elem_DefaultListableBeanFactory"><rect codeLine="40" fill="#F1F1F1" height="64.2969" id="DefaultListableBeanFactory" rx="2.5" ry="2.5" style="stroke:#181818;stroke-width:0.5;" width="366" x="66.5" y="731"/><ellipse cx="151.75" cy="747" fill="#ADD1B2" rx="11" ry="11" style="stroke:#181818;stroke-width:1.0;"/><path d="M154.7188,752.6406 Q154.1406,752.9375 153.5,753.0781 Q152.8594,753.2344 152.1563,753.2344 Q149.6563,753.2344 148.3281,751.5938 Q147.0156,749.9375 147.0156,746.8125 Q147.0156,743.6875 148.3281,742.0313 Q149.6563,740.375 152.1563,740.375 Q152.8594,740.375 153.5,740.5313 Q154.1563,740.6875 154.7188,740.9844 L154.7188,743.7031 Q154.0938,743.125 153.5,742.8594 Q152.9063,742.5781 152.2813,742.5781 Q150.9375,742.5781 150.25,743.6563 Q149.5625,744.7188 149.5625,746.8125 Q149.5625,748.9063 150.25,749.9844 Q150.9375,751.0469 152.2813,751.0469 Q152.9063,751.0469 153.5,750.7813 Q154.0938,750.5 154.7188,749.9219 L154.7188,752.6406 Z " fill="#000000"/><text fill="#000000" font-family="sans-serif" font-size="14" lengthAdjust="spacing" textLength="187" x="172.25" y="751.8467">DefaultListableBeanFactory</text><line style="stroke:#181818;stroke-width:0.5;" x1="67.5" x2="431.5" y1="763" y2="763"/><rect fill="none" height="6" style="stroke:#C82930;stroke-width:1.0;" width="6" x="74.5" y="773.6484"/><text fill="#000000" font-family="sans-serif" font-size="14" lengthAdjust="spacing" textLength="340" x="86.5" y="779.9951">beanDefinitionMap: Map&lt;String, BeanDefinition&gt;</text><line style="stroke:#181818;stroke-width:0.5;" x1="67.5" x2="431.5" y1="787.2969" y2="787.2969"/></g><path d="M1036,448.5 L1036,457.0664 L995,478.1484 L1036,465.0664 L1036,473.6328 A0,0 0 0 0 1036,473.6328 L1215,473.6328 A0,0 0 0 0 1215,473.6328 L1215,458.5 L1205,448.5 L1036,448.5 A0,0 0 0 0 1036,448.5 " fill="#FEFFDD" style="stroke:#181818;stroke-width:0.5;"/><path d="M1205,448.5 L1205,458.5 L1215,458.5 L1205,448.5 " fill="#FEFFDD" style="stroke:#181818;stroke-width:0.5;"/><text fill="#000000" font-family="sans-serif" font-size="13" lengthAdjust="spacing" textLength="158" x="1042" y="465.5669">维护 Bean 后置处理器集合</text><path d="M467.5,745.5 L467.5,754.0664 L426.5,775.1484 L467.5,762.0664 L467.5,770.6328 A0,0 0 0 0 467.5,770.6328 L821.5,770.6328 A0,0 0 0 0 821.5,770.6328 L821.5,755.5 L811.5,745.5 L467.5,745.5 A0,0 0 0 0 467.5,745.5 " fill="#FEFFDD" style="stroke:#181818;stroke-width:0.5;"/><path d="M811.5,745.5 L811.5,755.5 L821.5,755.5 L811.5,745.5 " fill="#FEFFDD" style="stroke:#181818;stroke-width:0.5;"/><text fill="#000000" font-family="sans-serif" font-size="13" lengthAdjust="spacing" textLength="333" x="473.5" y="762.5669">Bean 定义信息集合，K: beanName, V: BeanDefinition</text><path d="M1066,115 L1066,131.1328 L934,186.1484 L1066,139.1328 L1066,155.2656 A0,0 0 0 0 1066,155.2656 L1426,155.2656 A0,0 0 0 0 1426,155.2656 L1426,125 L1416,115 L1066,115 A0,0 0 0 0 1066,115 " fill="#FEFFDD" style="stroke:#181818;stroke-width:0.5;"/><path d="M1416,115 L1416,125 L1426,125 L1416,115 " fill="#FEFFDD" style="stroke:#181818;stroke-width:0.5;"/><text fill="#000000" font-family="sans-serif" font-size="13" lengthAdjust="spacing" textLength="299" x="1080" y="132.0669">一级缓存，缓存所有的单实例对象，是单例对象池；</text><text fill="#000000" font-family="sans-serif" font-size="13" lengthAdjust="spacing" textLength="339" x="1072" y="147.1997">K: beanName，V: 经历了完整生命周期的 bean 实例对象</text><path d="M1066,165.2656 L1066,181.3984 L967,202.4453 L1066,189.3984 L1066,205.5313 A0,0 0 0 0 1066,205.5313 L1537,205.5313 A0,0 0 0 0 1537,205.5313 L1537,175.2656 L1527,165.2656 L1066,165.2656 A0,0 0 0 0 1066,165.2656 " fill="#FEFFDD" style="stroke:#181818;stroke-width:0.5;"/><path d="M1527,165.2656 L1527,175.2656 L1537,175.2656 L1527,165.2656 " fill="#FEFFDD" style="stroke:#181818;stroke-width:0.5;"/><text fill="#000000" font-family="sans-serif" font-size="13" lengthAdjust="spacing" textLength="143" x="1080" y="182.3325">二级缓存，早期单例池；</text><text fill="#000000" font-family="sans-serif" font-size="13" lengthAdjust="spacing" textLength="450" x="1072" y="197.4653">K: beanName，V: 未完成生命周期的 bean 实例对象(bean 的属性尚未赋值)</text><path d="M1066,215.5313 L1066,231.6641 L1025,218.7422 L1066,239.6641 L1066,255.7969 A0,0 0 0 0 1066,255.7969 L1407,255.7969 A0,0 0 0 0 1407,255.7969 L1407,225.5313 L1397,215.5313 L1066,215.5313 A0,0 0 0 0 1066,215.5313 " fill="#FEFFDD" style="stroke:#181818;stroke-width:0.5;"/><path d="M1397,215.5313 L1397,225.5313 L1407,225.5313 L1397,215.5313 " fill="#FEFFDD" style="stroke:#181818;stroke-width:0.5;"/><text fill="#000000" font-family="sans-serif" font-size="13" lengthAdjust="spacing" textLength="143" x="1080" y="232.5981">三级缓存，单例工厂池；</text><text fill="#000000" font-family="sans-serif" font-size="13" lengthAdjust="spacing" textLength="320" x="1072" y="247.731">K: beanName，V: ObjectFactory(生成 bean 的工厂)</text><g id="link_BeanFactory_HierarchicalBeanFactory"><path codeLine="44" d="M334.637,70.66 C360.365,100.676 395.177,141.29 416.718,166.422 " fill="none" id="BeanFactory-backto-HierarchicalBeanFactory" style="stroke:#181818;stroke-width:1.0;"/><polygon fill="none" points="329.121,74.98,321.42,55.24,339.75,65.869,329.121,74.98" style="stroke:#181818;stroke-width:1.0;"/></g><g id="link_BeanFactory_AutowireCapableBeanFactory"><path codeLine="45" d="M301.804,75.329 C301.257,122.753 297.763,200.731 282.5,266 C277.592,286.988 268.285,309.654 260.803,325.988 " fill="none" id="BeanFactory-backto-AutowireCapableBeanFactory" style="stroke:#181818;stroke-width:1.0;"/><polygon fill="none" points="294.804,75.243,301.877,55.269,308.804,75.294,294.804,75.243" style="stroke:#181818;stroke-width:1.0;"/></g><g id="link_BeanFactory_ListableBeanFactory"><path codeLine="46" d="M271.157,71.496 C248.162,101.427 217.359,141.523 198.23,166.422 " fill="none" id="BeanFactory-backto-ListableBeanFactory" style="stroke:#181818;stroke-width:1.0;"/><polygon fill="none" points="265.911,66.835,283.646,55.24,277.013,75.364,265.911,66.835" style="stroke:#181818;stroke-width:1.0;"/></g><g id="link_HierarchicalBeanFactory_ConfigurableBeanFactory"><path codeLine="47" d="M454.465,233.11 C467.28,262.792 484.037,301.605 494.536,325.922 " fill="none" id="HierarchicalBeanFactory-backto-ConfigurableBeanFactory" style="stroke:#181818;stroke-width:1.0;"/><polygon fill="none" points="448.035,235.876,446.534,214.74,460.888,230.327,448.035,235.876" style="stroke:#181818;stroke-width:1.0;"/></g><g id="link_ConfigurableBeanFactory_ConfigurableListableBeanFactory"><path codeLine="48" d="M434.63,382.236 C392.389,401.12 339.459,424.783 301.026,441.965 " fill="none" id="ConfigurableBeanFactory-backto-ConfigurableListableBeanFactory" style="stroke:#181818;stroke-width:1.0;"/><polygon fill="none" points="431.782,375.842,452.897,374.07,437.495,388.623,431.782,375.842" style="stroke:#181818;stroke-width:1.0;"/></g><g id="link_AutowireCapableBeanFactory_ConfigurableListableBeanFactory"><path codeLine="49" d="M249.5,394.324 C249.5,410.527 249.5,428.297 249.5,441.965 " fill="none" id="AutowireCapableBeanFactory-backto-ConfigurableListableBeanFactory" style="stroke:#181818;stroke-width:1.0;"/><polygon fill="none" points="242.5,394.07,249.5,374.07,256.5,394.07,242.5,394.07" style="stroke:#181818;stroke-width:1.0;"/></g><g id="link_ListableBeanFactory_ConfigurableListableBeanFactory"><path codeLine="50" d="M147.849,230.663 C120.464,268.569 89.5162,327.029 114.5,374 C130.893,404.819 162.888,427.081 191.616,441.87 " fill="none" id="ListableBeanFactory-backto-ConfigurableListableBeanFactory" style="stroke:#181818;stroke-width:1.0;"/><polygon fill="none" points="142.45,226.2,160.162,214.568,153.57,234.706,142.45,226.2" style="stroke:#181818;stroke-width:1.0;"/></g><g id="link_BeanDefinitionRegistry_DefaultListableBeanFactory"><path codeLine="52" d="M139.472,653.087 C163.873,677.241 195.188,708.2383 218.166,730.9836 " fill="none" id="BeanDefinitionRegistry-backto-DefaultListableBeanFactory" style="stroke:#181818;stroke-width:1.0;stroke-dasharray:7.0,7.0;"/><polygon fill="none" points="134.241,657.758,124.951,638.713,144.09,647.808,134.241,657.758" style="stroke:#181818;stroke-width:1.0;"/></g><g id="link_ConfigurableListableBeanFactory_DefaultListableBeanFactory"><path codeLine="53" d="M249.5,510.325 C249.5,570.453 249.5,677.762 249.5,730.7004 " fill="none" id="ConfigurableListableBeanFactory-backto-DefaultListableBeanFactory" style="stroke:#181818;stroke-width:1.0;stroke-dasharray:7.0,7.0;"/><polygon fill="none" points="242.5,510.148,249.5,490.148,256.5,510.148,242.5,510.148" style="stroke:#181818;stroke-width:1.0;"/></g><g id="link_AbstractAutowireCapableBeanFactory_DefaultListableBeanFactory"><path codeLine="54" d="M356.109,683.12 C333.566,699.7996 310.494,716.8706 291.605,730.8464 " fill="none" id="AbstractAutowireCapableBeanFactory-backto-DefaultListableBeanFactory" style="stroke:#181818;stroke-width:1.0;"/><polygon fill="none" points="352.121,677.363,372.362,671.094,360.448,688.617,352.121,677.363" style="stroke:#181818;stroke-width:1.0;"/></g><g id="link_AutowireCapableBeanFactory_AbstractAutowireCapableBeanFactory"><path codeLine="55" d="M331.091,383.109 C354.725,395.852 378.663,412.657 395.5,434 C423.532,469.534 436.454,519.642 442.41,557.89 " fill="none" id="AutowireCapableBeanFactory-backto-AbstractAutowireCapableBeanFactory" style="stroke:#181818;stroke-width:1.0;stroke-dasharray:7.0,7.0;"/><polygon fill="none" points="327.948,389.364,313.2,374.148,334.217,376.846,327.948,389.364" style="stroke:#181818;stroke-width:1.0;"/></g><g id="link_AbstractBeanFactory_AbstractAutowireCapableBeanFactory"><path codeLine="56" d="M721.86,505.452 C681.14,521.488 633.061,540.423 588.618,557.925 " fill="none" id="AbstractBeanFactory-backto-AbstractAutowireCapableBeanFactory" style="stroke:#181818;stroke-width:1.0;"/><polygon fill="none" points="719.434,498.884,740.608,498.069,724.564,511.911,719.434,498.884" style="stroke:#181818;stroke-width:1.0;"/></g><g id="link_ConfigurableBeanFactory_AbstractBeanFactory"><path codeLine="57" d="M587.195,380.928 C632.334,397.264 688.15,417.464 733.756,433.969 " fill="none" id="ConfigurableBeanFactory-backto-AbstractBeanFactory" style="stroke:#181818;stroke-width:1.0;stroke-dasharray:7.0,7.0;"/><polygon fill="none" points="584.669,387.458,568.245,374.07,589.433,374.294,584.669,387.458" style="stroke:#181818;stroke-width:1.0;"/></g><g id="link_FactoryBeanRegistrySupport_AbstractBeanFactory"><path codeLine="58" d="M824.476,394.093 C823.551,407.277 822.551,421.519 821.693,433.755 " fill="none" id="FactoryBeanRegistrySupport-backto-AbstractBeanFactory" style="stroke:#181818;stroke-width:1.0;"/><polygon fill="none" points="817.498,393.53,825.881,374.07,831.464,394.511,817.498,393.53" style="stroke:#181818;stroke-width:1.0;"/></g><g id="link_DefaultSingletonBeanRegistry_FactoryBeanRegistrySupport"><path codeLine="59" d="M832.619,259.412 C831.267,283.072 829.839,308.062 828.836,325.62 " fill="none" id="DefaultSingletonBeanRegistry-backto-FactoryBeanRegistrySupport" style="stroke:#181818;stroke-width:1.0;"/><polygon fill="none" points="825.646,258.751,833.775,239.183,839.623,259.549,825.646,258.751" style="stroke:#181818;stroke-width:1.0;"/></g><g id="link_SingletonBeanRegistry_DefaultSingletonBeanRegistry"><path codeLine="60" d="M798.463,74.292 C805.331,95.093 813.636,120.249 820.732,141.74 " fill="none" id="SingletonBeanRegistry-backto-DefaultSingletonBeanRegistry" style="stroke:#181818;stroke-width:1.0;stroke-dasharray:7.0,7.0;"/><polygon fill="none" points="791.796,76.426,792.173,55.24,805.09,72.037,791.796,76.426" style="stroke:#181818;stroke-width:1.0;"/></g><g id="link_SingletonBeanRegistry_ConfigurableBeanFactory"><path codeLine="61" d="M699.446,63.504 C672.998,76.398 645.343,93.445 624.5,115 C572.817,168.449 587.138,200.212 552.5,266 C541.721,286.473 528.496,309.184 518.659,325.666 " fill="none" id="SingletonBeanRegistry-backto-ConfigurableBeanFactory" style="stroke:#181818;stroke-width:1.0;"/><polygon fill="none" points="696.821,57.007,717.919,55.04,702.652,69.735,696.821,57.007" style="stroke:#181818;stroke-width:1.0;"/></g></g></svg>