<svg version="1.1" xmlns="http://www.w3.org/2000/svg" viewBox="0 0 964 318" width="964" height="318">
  <!-- svg-source:excalidraw -->
  
  <defs>
    <style class="style-fonts">
      @font-face {
        font-family: "Virgil";
        src: url("https://excalidraw.com/Virgil.woff2");
      }
      @font-face {
        font-family: "Cascadia";
        src: url("https://excalidraw.com/Cascadia.woff2");
      }
    </style>
    
  </defs>
  <rect x="0" y="0" width="964" height="318" fill="#ffffff"></rect><g stroke-linecap="round" transform="translate(10 10) rotate(0 398.5 148.5711956521739)"><path d="M33.54 -1.83 L766.12 -0.16 L779.69 0.26 L782.89 4.52 L793.21 12.79 L794.58 17.73 L798.53 33.34 L797.82 264.48 L795.52 279.2 L794.2 283.42 L784.99 293.3 L780.25 296.69 L766.67 298.05 L33.93 295.82 L19.76 295.29 L14.13 293.45 L4.36 283.91 L2.21 270.75 L0.53 32.74 L0.92 18.31 L9.77 8.57 L19.48 2.73 L31.01 0.36" stroke="none" stroke-width="0" fill="#fdeada"></path><path d="M32 0 M32 0 C290.04 -1.35, 548.39 -2.28, 765 0 M32 0 C322.66 -2.83, 614.24 -2.71, 765 0 M765 0 C785.19 1.41, 795.63 9.72, 797 32 M765 0 C788.47 -0.67, 794.99 10.25, 797 32 M797 32 C796.13 98.89, 795.68 161.72, 797 265.14 M797 32 C796.69 100.04, 795.73 168.84, 797 265.14 M797 265.14 C798.92 287.21, 788.12 298.61, 765 297.14 M797 265.14 C797.54 284.67, 786.95 297.38, 765 297.14 M765 297.14 C580.47 297.4, 396.35 298, 32 297.14 M765 297.14 C613.45 296.8, 462.73 297.18, 32 297.14 M32 297.14 C11.48 295.57, -0.95 287.16, 0 265.14 M32 297.14 C12.48 297.14, -0.05 284.5, 0 265.14 M0 265.14 C-0.6 187.6, -0.61 109.96, 0 32 M0 265.14 C-0.86 206.04, -0.3 146.59, 0 32 M0 32 C1.81 11.73, 9.55 -1.11, 32 0 M0 32 C1.41 8.98, 12.41 1.28, 32 0" stroke="#1e1e1e" stroke-width="1" fill="none"></path></g><g transform="translate(296.7467391304348 250.8326086956522) rotate(0 115.09327021059784 19.49184782608694)"><text x="0" y="0" font-family="Muyao, Segoe UI Emoji" font-size="31.186956521739134px" fill="#e87c24" text-anchor="start" style="white-space: pre;" direction="ltr" dominant-baseline="text-before-edge">nacos存储的配置</text></g><g transform="translate(437.08804347826094 42.053260869565236) rotate(0 181.11852072010868 15.16032608695653)"><text x="0" y="0" font-family="Muyao, Segoe UI Emoji" font-size="24.256521739130434px" fill="#1e1e1e" text-anchor="start" style="white-space: pre;" direction="ltr" dominant-baseline="text-before-edge">&gt; extension-config&gt;shared-config</text></g><g stroke-linecap="round" transform="translate(23.458656832298175 18.663043478260875) rotate(0 206.3815411490683 96.15978260869565)"><path d="M31.52 1.47 L382.2 0.86 L389.88 -1.11 L399.25 3.95 L406.8 13.91 L411.04 16.73 L412.77 32.07 L411.06 161.76 L413.56 167.13 L409.88 179.57 L399.5 187.36 L393.1 189.62 L380.98 192.92 L32.14 191.45 L24.71 193.58 L10.77 187.55 L5.24 181.56 L0.03 166.87 L1.38 23.17 L0.28 18.44 L9.29 6.16 L18.45 2.71 L32.16 1.22" stroke="none" stroke-width="0" fill="#fac090"></path><path d="M32 0 M32 0 C128.8 -1.08, 225.4 -0.16, 380.76 0 M32 0 C125.49 0.03, 217.77 -0.16, 380.76 0 M380.76 0 C401.4 1.99, 412.31 8.79, 412.76 32 M380.76 0 C400.24 -1.62, 410.77 11.94, 412.76 32 M412.76 32 C414.33 57.08, 412.08 83.64, 412.76 160.32 M412.76 32 C413.31 82.01, 413.17 130.76, 412.76 160.32 M412.76 160.32 C414.74 180.64, 402.47 191.85, 380.76 192.32 M412.76 160.32 C412.73 180.8, 401.17 193.05, 380.76 192.32 M380.76 192.32 C304.87 194.33, 227.58 193.29, 32 192.32 M380.76 192.32 C267.01 191.19, 153.13 192.18, 32 192.32 M32 192.32 C10.86 191.6, -1.12 179.81, 0 160.32 M32 192.32 C8.6 192.13, -1.84 181.22, 0 160.32 M0 160.32 C0.72 128.09, 1.06 93.17, 0 32 M0 160.32 C-1.65 120.7, -0.9 80.72, 0 32 M0 32 C-0.25 12.48, 11.63 0.06, 32 0 M0 32 C-0.35 9.31, 10.53 -1.83, 32 0" stroke="#ffffff" stroke-width="1" fill="none"></path></g><g transform="translate(68.3394099378882 153.97359472049686) rotate(0 160.72420807453418 15.454250776397515)"><text x="0" y="0" font-family="Muyao, Segoe UI Emoji" font-size="24.726801242236025px" fill="#ffffff" text-anchor="start" style="white-space: pre;" direction="ltr" dominant-baseline="text-before-edge">本服务的配置（支持热更新）</text></g><g transform="translate(272.3355201863353 40.24949145962728) rotate(0 77.69667119565219 15.16032608695653)"><text x="0" y="0" font-family="Muyao, Segoe UI Emoji" font-size="24.256521739130434px" fill="#1e1e1e" text-anchor="start" style="white-space: pre;" direction="ltr" dominant-baseline="text-before-edge">&gt; 服务名称.yml</text></g><g stroke-linecap="round" transform="translate(37.430908385093176 29.652732919254674) rotate(0 114.36145574534157 51.17074145962735)"><path d="M26.1 1.56 L202.11 -1.5 L214.06 1.11 L221.35 4.54 L227.35 13.31 L226.97 18.04 L227.2 75.32 L228.72 87.36 L222.83 96.59 L217.89 97.22 L205.02 101.17 L23.79 100.83 L14.16 98.93 L7.57 95.71 L2.47 87.21 L-1.56 82.81 L1.86 17.59 L1.97 8.53 L5.77 8.2 L13.68 1.41 L23.6 1.52" stroke="none" stroke-width="0" fill="#e46c0a"></path><path d="M25.59 0 M25.59 0 C91.13 2.59, 158.32 0.33, 203.14 0 M25.59 0 C89.23 -0.21, 153.06 -0.38, 203.14 0 M203.14 0 C218.59 0.46, 229.64 7.12, 228.72 25.59 M203.14 0 C218.22 -1.66, 228.99 6.45, 228.72 25.59 M228.72 25.59 C230.35 39.32, 230.18 57.63, 228.72 76.76 M228.72 25.59 C229.33 39.69, 228.9 54.72, 228.72 76.76 M228.72 76.76 C229.56 92.62, 220.82 101.66, 203.14 102.34 M228.72 76.76 C229.45 92.53, 218.24 102.73, 203.14 102.34 M203.14 102.34 C146.85 100.94, 93.09 101.19, 25.59 102.34 M203.14 102.34 C148.69 102.92, 93.54 101.7, 25.59 102.34 M25.59 102.34 C8.07 103.93, -0.68 92.01, 0 76.76 M25.59 102.34 C7.1 100.73, 1 92.33, 0 76.76 M0 76.76 C-1.46 63.98, -0.9 46.87, 0 25.59 M0 76.76 C-0.61 64.17, -1.3 51.52, 0 25.59 M0 25.59 C-0.51 9.23, 8.37 0.47, 25.59 0 M0 25.59 C2.28 10.39, 8.97 1.52, 25.59 0" stroke="#1e1e1e" stroke-width="1" fill="none"></path></g><g transform="translate(97.53077251552793 83.22746894409943) rotate(0 49.45360248447204 15.454250776397515)"><text x="49.45360248447205" y="0" font-family="Muyao, Segoe UI Emoji" font-size="24.726801242236025px" fill="#ffffff" text-anchor="middle" style="white-space: pre;" direction="ltr" dominant-baseline="text-before-edge">环境配置</text></g><g transform="translate(51.85487577639748 37.50206909937884) rotate(0 97.90254330842393 15.16032608695653)"><text x="0" y="0" font-family="Muyao, Segoe UI Emoji" font-size="24.256521739130434px" fill="#1e1e1e" text-anchor="start" style="white-space: pre;" direction="ltr" dominant-baseline="text-before-edge">服务名-profile.yml</text></g><g stroke-linecap="round" transform="translate(810 14) rotate(0 72 147)"><path d="M31.7 -1.1 L118.48 1.73 L133.43 4.55 L134.91 8.6 L142.9 18.41 L144.59 30.3 L145.49 261.13 L142.61 268.26 L137.51 282.4 L136.99 287.97 L124.18 292 L112.19 293.48 L23.7 293.77 L10.62 287.92 L4.19 280.6 L1.61 277.45 L-0.31 261.46 L1.44 23.32 L2.7 19.86 L9.81 8.34 L19.66 2.4 L33.38 -0.63" stroke="none" stroke-width="0" fill="#fef9f4"></path><path d="M32 0 M32 0 C52.53 -0.99, 69.41 -0.9, 112 0 M32 0 C60.6 -0.12, 90.79 -0.31, 112 0 M112 0 C135.25 -1.4, 144.77 12.07, 144 32 M112 0 C131.64 -1.89, 143.33 10.68, 144 32 M144 32 C143.6 111.72, 144.14 192.03, 144 262 M144 32 C142.81 91.73, 143.35 152.41, 144 262 M144 262 C144.6 284.21, 133.4 294.46, 112 294 M144 262 C145.69 284.88, 133.66 295.32, 112 294 M112 294 C83.33 292.97, 53.19 292.84, 32 294 M112 294 C81.56 294.1, 52.05 294.66, 32 294 M32 294 C9.52 294.28, 0.27 283.8, 0 262 M32 294 C9.39 294.32, 1.81 281.38, 0 262 M0 262 C2.72 179.06, 1.17 100.3, 0 32 M0 262 C-0.04 190.31, 0.5 116.87, 0 32 M0 32 C1.47 10.34, 10.4 -1.51, 32 0 M0 32 C0.13 9.63, 11.74 -1.27, 32 0" stroke="#1e1e1e" stroke-width="1" fill="none"></path></g><g transform="translate(819 44) rotate(0 62.53515625 17.5)"><text x="0" y="0" font-family="Muyao, Segoe UI Emoji" font-size="28px" fill="#1e1e1e" text-anchor="start" style="white-space: pre;" direction="ltr" dominant-baseline="text-before-edge">&gt;本地配置</text></g></svg>