<svg version="1.1" xmlns="http://www.w3.org/2000/svg" viewBox="0 0 556.390625 445" width="556.390625" height="445">
  <!-- svg-source:excalidraw -->
  
  <defs>
    <style class="style-fonts">
      @font-face {
        font-family: "Virgil";
        src: url("https://excalidraw.com/Virgil.woff2");
      }
      @font-face {
        font-family: "Cascadia";
        src: url("https://excalidraw.com/Cascadia.woff2");
      }
    </style>
    
  </defs>
  <rect x="0" y="0" width="556.390625" height="445" fill="#ffffff"></rect><g stroke-linecap="round" transform="translate(41.32617608874057 64.6256017813453) rotate(0 44.5 19.5)"><path d="M0 0 L89 0 L89 39 L0 39" stroke="none" stroke-width="0" fill="#e9ecef"></path><path d="M0 0 C28.57 0, 57.14 0, 89 0 M0 0 C22.17 0, 44.35 0, 89 0 M89 0 C89 14.64, 89 29.28, 89 39 M89 0 C89 13.89, 89 27.79, 89 39 M89 39 C55.12 39, 21.24 39, 0 39 M89 39 C54.19 39, 19.38 39, 0 39 M0 39 C0 31.1, 0 23.2, 0 0 M0 39 C0 26.22, 0 13.44, 0 0" stroke="#1e1e1e" stroke-width="1" fill="none"></path></g><g stroke-linecap="round" transform="translate(131.11392898113593 64.6256017813453) rotate(0 44.5 19.5)"><path d="M0 0 L89 0 L89 39 L0 39" stroke="none" stroke-width="0" fill="#e9ecef"></path><path d="M0 0 C24.78 0, 49.55 0, 89 0 M0 0 C23.56 0, 47.12 0, 89 0 M89 0 C89 10.4, 89 20.8, 89 39 M89 0 C89 8.35, 89 16.7, 89 39 M89 39 C55.97 39, 22.94 39, 0 39 M89 39 C54.42 39, 19.84 39, 0 39 M0 39 C0 30.34, 0 21.68, 0 0 M0 39 C0 24.52, 0 10.04, 0 0" stroke="#1e1e1e" stroke-width="1" fill="none"></path></g><g stroke-linecap="round" transform="translate(220.7271867383795 64.6256017813453) rotate(0 44.5 19.5)"><path d="M0 0 L89 0 L89 39 L0 39" stroke="none" stroke-width="0" fill="#e9ecef"></path><path d="M0 0 C27.71 0, 55.43 0, 89 0 M0 0 C29.79 0, 59.58 0, 89 0 M89 0 C89 10.61, 89 21.21, 89 39 M89 0 C89 13.03, 89 26.06, 89 39 M89 39 C62.93 39, 36.86 39, 0 39 M89 39 C54 39, 18.99 39, 0 39 M0 39 C0 29.87, 0 20.74, 0 0 M0 39 C0 27.65, 0 16.3, 0 0" stroke="#1e1e1e" stroke-width="1" fill="none"></path></g><g stroke-linecap="round" transform="translate(41.32617608874057 103.99430281397545) rotate(0 44.5 19.5)"><path d="M0 0 C27.58 0, 55.15 0, 89 0 M0 0 C27.53 0, 55.06 0, 89 0 M89 0 C89 8.86, 89 17.71, 89 39 M89 0 C89 11.1, 89 22.2, 89 39 M89 39 C53.53 39, 18.06 39, 0 39 M89 39 C69.09 39, 49.19 39, 0 39 M0 39 C0 29.41, 0 19.82, 0 0 M0 39 C0 26.3, 0 13.59, 0 0" stroke="#1e1e1e" stroke-width="1" fill="none"></path></g><g stroke-linecap="round" transform="translate(131.1139289811358 103.99430281397545) rotate(0 44.5 19.5)"><path d="M0 0 C28.68 0, 57.35 0, 89 0 M0 0 C25.29 0, 50.59 0, 89 0 M89 0 C89 8.28, 89 16.56, 89 39 M89 0 C89 15.14, 89 30.28, 89 39 M89 39 C69.99 39, 50.98 39, 0 39 M89 39 C63.49 39, 37.98 39, 0 39 M0 39 C0 26.06, 0 13.13, 0 0 M0 39 C0 26.28, 0 13.56, 0 0" stroke="#1e1e1e" stroke-width="1" fill="none"></path></g><g stroke-linecap="round" transform="translate(220.7271867383795 103.99430281397545) rotate(0 44.5 19.5)"><path d="M0 0 C32.46 0, 64.92 0, 89 0 M0 0 C33.51 0, 67.02 0, 89 0 M89 0 C89 14.63, 89 29.26, 89 39 M89 0 C89 15.59, 89 31.19, 89 39 M89 39 C57.35 39, 25.69 39, 0 39 M89 39 C67.63 39, 46.26 39, 0 39 M0 39 C0 30.87, 0 22.74, 0 0 M0 39 C0 28.13, 0 17.27, 0 0" stroke="#1e1e1e" stroke-width="1" fill="none"></path></g><g stroke-linecap="round" transform="translate(41.32617608874057 144.21695724475146) rotate(0 44.5 19.5)"><path d="M0 0 C29.85 0, 59.7 0, 89 0 M0 0 C27.11 0, 54.23 0, 89 0 M89 0 C89 14.57, 89 29.14, 89 39 M89 0 C89 12.9, 89 25.8, 89 39 M89 39 C60.61 39, 32.22 39, 0 39 M89 39 C64.03 39, 39.05 39, 0 39 M0 39 C0 30.56, 0 22.12, 0 0 M0 39 C0 29.83, 0 20.66, 0 0" stroke="#1e1e1e" stroke-width="1" fill="none"></path></g><g stroke-linecap="round" transform="translate(131.1139289811358 144.21695724475146) rotate(0 44.5 19.5)"><path d="M0 0 C20.05 0, 40.09 0, 89 0 M0 0 C21.73 0, 43.46 0, 89 0 M89 0 C89 14.7, 89 29.4, 89 39 M89 0 C89 12.24, 89 24.49, 89 39 M89 39 C57.52 39, 26.05 39, 0 39 M89 39 C58.51 39, 28.03 39, 0 39 M0 39 C0 27.88, 0 16.77, 0 0 M0 39 C0 27.5, 0 16, 0 0" stroke="#1e1e1e" stroke-width="1" fill="none"></path></g><g stroke-linecap="round" transform="translate(220.7271867383795 144.21695724475146) rotate(0 44.5 19.5)"><path d="M0 0 C22.34 0, 44.68 0, 89 0 M0 0 C19.02 0, 38.04 0, 89 0 M89 0 C89 8.51, 89 17.02, 89 39 M89 0 C89 8.15, 89 16.3, 89 39 M89 39 C59.41 39, 29.83 39, 0 39 M89 39 C62.29 39, 35.57 39, 0 39 M0 39 C0 27.47, 0 15.93, 0 0 M0 39 C0 29.31, 0 19.61, 0 0" stroke="#1e1e1e" stroke-width="1" fill="none"></path></g><g stroke-linecap="round" transform="translate(41.32617608874057 183.3811207694545) rotate(0 44.5 19.5)"><path d="M0 0 C20.34 0, 40.68 0, 89 0 M0 0 C32.05 0, 64.1 0, 89 0 M89 0 C89 12.26, 89 24.52, 89 39 M89 0 C89 14.32, 89 28.64, 89 39 M89 39 C55.85 39, 22.7 39, 0 39 M89 39 C63.86 39, 38.71 39, 0 39 M0 39 C0 27.32, 0 15.65, 0 0 M0 39 C0 30.01, 0 21.03, 0 0" stroke="#1e1e1e" stroke-width="1" fill="none"></path></g><g stroke-linecap="round" transform="translate(131.1139289811356 183.3811207694545) rotate(0 44.5 19.5)"><path d="M0 0 C26.69 0, 53.39 0, 89 0 M0 0 C20.22 0, 40.43 0, 89 0 M89 0 C89 8.29, 89 16.58, 89 39 M89 0 C89 11.56, 89 23.13, 89 39 M89 39 C55.24 39, 21.48 39, 0 39 M89 39 C64.09 39, 39.19 39, 0 39 M0 39 C0 28.04, 0 17.09, 0 0 M0 39 C0 29.3, 0 19.6, 0 0" stroke="#1e1e1e" stroke-width="1" fill="none"></path></g><g stroke-linecap="round" transform="translate(220.7271867383795 183.3811207694545) rotate(0 44.5 19.5)"><path d="M0 0 C23.42 0, 46.84 0, 89 0 M0 0 C27.81 0, 55.61 0, 89 0 M89 0 C89 8.78, 89 17.55, 89 39 M89 0 C89 14.03, 89 28.05, 89 39 M89 39 C60.08 39, 31.16 39, 0 39 M89 39 C60.66 39, 32.32 39, 0 39 M0 39 C0 25.74, 0 12.47, 0 0 M0 39 C0 27.5, 0 15.99, 0 0" stroke="#1e1e1e" stroke-width="1" fill="none"></path></g><g stroke-linecap="round" transform="translate(41.32617608874057 222.89811459618178) rotate(0 44.5 19.5)"><path d="M0 0 L89 0 L89 39 L0 39" stroke="none" stroke-width="0" fill="#e9ecef"></path><path d="M0 0 C20.44 0, 40.88 0, 89 0 M0 0 C29.03 0, 58.05 0, 89 0 M89 0 C89 10.67, 89 21.34, 89 39 M89 0 C89 11.22, 89 22.45, 89 39 M89 39 C58.69 39, 28.38 39, 0 39 M89 39 C68.86 39, 48.71 39, 0 39 M0 39 C0 25.12, 0 11.24, 0 0 M0 39 C0 31.01, 0 23.02, 0 0" stroke="#1e1e1e" stroke-width="1" fill="none"></path></g><g stroke-linecap="round" transform="translate(131.1139289811358 222.89811459618178) rotate(0 44.5 19.5)"><path d="M0 0 L89 0 L89 39 L0 39" stroke="none" stroke-width="0" fill="#e9ecef"></path><path d="M0 0 C25.76 0, 51.52 0, 89 0 M0 0 C20.49 0, 40.98 0, 89 0 M89 0 C89 11.61, 89 23.22, 89 39 M89 0 C89 9.44, 89 18.88, 89 39 M89 39 C54.46 39, 19.91 39, 0 39 M89 39 C61.22 39, 33.44 39, 0 39 M0 39 C0 23.55, 0 8.11, 0 0 M0 39 C0 24.87, 0 10.74, 0 0" stroke="#1e1e1e" stroke-width="1" fill="none"></path></g><g stroke-linecap="round" transform="translate(220.7271867383795 222.89811459618178) rotate(0 44.5 19.5)"><path d="M0 0 L89 0 L89 39 L0 39" stroke="none" stroke-width="0" fill="#e9ecef"></path><path d="M0 0 C30.87 0, 61.74 0, 89 0 M0 0 C28.91 0, 57.81 0, 89 0 M89 0 C89 13.48, 89 26.96, 89 39 M89 0 C89 11.98, 89 23.95, 89 39 M89 39 C56.51 39, 24.02 39, 0 39 M89 39 C66.25 39, 43.49 39, 0 39 M0 39 C0 29.73, 0 20.45, 0 0 M0 39 C0 28.7, 0 18.41, 0 0" stroke="#1e1e1e" stroke-width="1" fill="none"></path></g><g stroke-linecap="round" transform="translate(41.32617608874057 262.2386932718972) rotate(0 44.5 19.5)"><path d="M0 0 C26.17 0, 52.34 0, 89 0 M0 0 C19.16 0, 38.31 0, 89 0 M89 0 C89 13.63, 89 27.26, 89 39 M89 0 C89 12.77, 89 25.53, 89 39 M89 39 C68.46 39, 47.92 39, 0 39 M89 39 C64.63 39, 40.27 39, 0 39 M0 39 C0 23.8, 0 8.6, 0 0 M0 39 C0 25.45, 0 11.89, 0 0" stroke="#1e1e1e" stroke-width="1" fill="none"></path></g><g stroke-linecap="round" transform="translate(131.1139289811356 262.2386932718972) rotate(0 44.5 19.5)"><path d="M0 0 C25.99 0, 51.98 0, 89 0 M0 0 C26.18 0, 52.37 0, 89 0 M89 0 C89 14.76, 89 29.52, 89 39 M89 0 C89 13.49, 89 26.97, 89 39 M89 39 C55.29 39, 21.58 39, 0 39 M89 39 C57.57 39, 26.14 39, 0 39 M0 39 C0 30.55, 0 22.1, 0 0 M0 39 C0 27.08, 0 15.16, 0 0" stroke="#1e1e1e" stroke-width="1" fill="none"></path></g><g stroke-linecap="round" transform="translate(220.7271867383795 262.2386932718972) rotate(0 44.5 19.5)"><path d="M0 0 C23.29 0, 46.57 0, 89 0 M0 0 C34.08 0, 68.15 0, 89 0 M89 0 C89 9.4, 89 18.8, 89 39 M89 0 C89 10.33, 89 20.65, 89 39 M89 39 C54.4 39, 19.81 39, 0 39 M89 39 C56.67 39, 24.34 39, 0 39 M0 39 C0 23.85, 0 8.71, 0 0 M0 39 C0 28.2, 0 17.4, 0 0" stroke="#1e1e1e" stroke-width="1" fill="none"></path></g><g stroke-linecap="round" transform="translate(41.32617608874057 302.46134770267327) rotate(0 44.5 19.5)"><path d="M0 0 C34.13 0, 68.26 0, 89 0 M0 0 C29.67 0, 59.34 0, 89 0 M89 0 C89 10.44, 89 20.89, 89 39 M89 0 C89 11.89, 89 23.77, 89 39 M89 39 C70.82 39, 52.63 39, 0 39 M89 39 C68.48 39, 47.95 39, 0 39 M0 39 C0 26.37, 0 13.74, 0 0 M0 39 C0 30, 0 20.99, 0 0" stroke="#1e1e1e" stroke-width="1" fill="none"></path></g><g stroke-linecap="round" transform="translate(131.1139289811356 302.46134770267327) rotate(0 44.5 19.5)"><path d="M0 0 C21.28 0, 42.55 0, 89 0 M0 0 C31.42 0, 62.84 0, 89 0 M89 0 C89 14.76, 89 29.51, 89 39 M89 0 C89 9.91, 89 19.81, 89 39 M89 39 C58.26 39, 27.52 39, 0 39 M89 39 C65.72 39, 42.43 39, 0 39 M0 39 C0 30.97, 0 22.93, 0 0 M0 39 C0 26.13, 0 13.26, 0 0" stroke="#1e1e1e" stroke-width="1" fill="none"></path></g><g stroke-linecap="round" transform="translate(220.7271867383795 302.46134770267327) rotate(0 44.5 19.5)"><path d="M0 0 C33.26 0, 66.52 0, 89 0 M0 0 C21.5 0, 43.01 0, 89 0 M89 0 C89 9.49, 89 18.98, 89 39 M89 0 C89 11.92, 89 23.83, 89 39 M89 39 C64.91 39, 40.83 39, 0 39 M89 39 C55.15 39, 21.3 39, 0 39 M0 39 C0 25.6, 0 12.19, 0 0 M0 39 C0 24.7, 0 10.4, 0 0" stroke="#1e1e1e" stroke-width="1" fill="none"></path></g><g stroke-linecap="round" transform="translate(41.32617608874057 341.62551122737625) rotate(0 44.5 19.50000000000003)"><path d="M0 0 C23.03 0, 46.07 0, 89 0 M0 0 C20.39 0, 40.78 0, 89 0 M89 0 C89 9.63, 89 19.27, 89 39 M89 0 C89 11.51, 89 23.03, 89 39 M89 39 C58.77 39, 28.54 39, 0 39 M89 39 C56.43 39, 23.85 39, 0 39 M0 39 C0 25.95, 0 12.9, 0 0 M0 39 C0 31.17, 0 23.34, 0 0" stroke="#1e1e1e" stroke-width="1" fill="none"></path></g><g stroke-linecap="round" transform="translate(131.1139289811356 341.62551122737625) rotate(0 44.5 19.50000000000003)"><path d="M0 0 C22.65 0, 45.31 0, 89 0 M0 0 C18.95 0, 37.91 0, 89 0 M89 0 C89 9.75, 89 19.5, 89 39 M89 0 C89 13.22, 89 26.44, 89 39 M89 39 C55.54 39, 22.08 39, 0 39 M89 39 C63.17 39, 37.34 39, 0 39 M0 39 C0 30.13, 0 21.26, 0 0 M0 39 C0 23.49, 0 7.98, 0 0" stroke="#1e1e1e" stroke-width="1" fill="none"></path></g><g stroke-linecap="round" transform="translate(220.7271867383795 341.62551122737625) rotate(0 44.5 19.50000000000003)"><path d="M0 0 C33.12 0, 66.24 0, 89 0 M0 0 C35.22 0, 70.45 0, 89 0 M89 0 C89 13.7, 89 27.41, 89 39 M89 0 C89 10.53, 89 21.07, 89 39 M89 39 C68.62 39, 48.24 39, 0 39 M89 39 C57.42 39, 25.85 39, 0 39 M0 39 C0 27.9, 0 16.79, 0 0 M0 39 C0 28.67, 0 18.35, 0 0" stroke="#1e1e1e" stroke-width="1" fill="none"></path></g><g stroke-linecap="round" transform="translate(41.32617608874057 381.1425050541035) rotate(0 44.5 19.5)"><path d="M0 0 L89 0 L89 39 L0 39" stroke="none" stroke-width="0" fill="#e9ecef"></path><path d="M0 0 C21.06 0, 42.12 0, 89 0 M0 0 C28.72 0, 57.44 0, 89 0 M89 0 C89 9.81, 89 19.63, 89 39 M89 0 C89 10.81, 89 21.62, 89 39 M89 39 C59 39, 28.99 39, 0 39 M89 39 C59.7 39, 30.41 39, 0 39 M0 39 C0 25.54, 0 12.08, 0 0 M0 39 C0 27.69, 0 16.39, 0 0" stroke="#1e1e1e" stroke-width="1" fill="none"></path></g><g stroke-linecap="round" transform="translate(131.1139289811356 381.1425050541035) rotate(0 44.5 19.5)"><path d="M0 0 L89 0 L89 39 L0 39" stroke="none" stroke-width="0" fill="#e9ecef"></path><path d="M0 0 C22.17 0, 44.35 0, 89 0 M0 0 C28.39 0, 56.77 0, 89 0 M89 0 C89 8.37, 89 16.75, 89 39 M89 0 C89 13.31, 89 26.63, 89 39 M89 39 C63.22 39, 37.44 39, 0 39 M89 39 C54.49 39, 19.98 39, 0 39 M0 39 C0 23.95, 0 8.9, 0 0 M0 39 C0 24.24, 0 9.49, 0 0" stroke="#1e1e1e" stroke-width="1" fill="none"></path></g><g stroke-linecap="round" transform="translate(220.7271867383795 381.1425050541035) rotate(0 44.5 19.5)"><path d="M0 0 L89 0 L89 39 L0 39" stroke="none" stroke-width="0" fill="#e9ecef"></path><path d="M0 0 C31.1 0, 62.2 0, 89 0 M0 0 C29.14 0, 58.27 0, 89 0 M89 0 C89 9, 89 18, 89 39 M89 0 C89 10.68, 89 21.35, 89 39 M89 39 C54.31 39, 19.62 39, 0 39 M89 39 C58.07 39, 27.14 39, 0 39 M0 39 C0 27.87, 0 16.73, 0 0 M0 39 C0 27.67, 0 16.34, 0 0" stroke="#1e1e1e" stroke-width="1" fill="none"></path></g><g stroke-linecap="round"><g transform="translate(175.24550313746477 124.29954223203961) rotate(0 0 58.72201135923186)"><path d="M0 0 C0 23.91, 0 47.82, 0 117.44" stroke="#1e1e1e" stroke-width="1.5" fill="none" stroke-dasharray="8 9"></path></g><g transform="translate(175.24550313746477 124.29954223203961) rotate(0 0 58.72201135923186)"><path d="M-10.26 89.25 C-8.17 94.99, -6.08 100.73, 0 117.44" stroke="#1e1e1e" stroke-width="1.5" fill="none"></path></g><g transform="translate(175.24550313746477 124.29954223203961) rotate(0 0 58.72201135923186)"><path d="M10.26 89.25 C8.17 94.99, 6.08 100.73, 0 117.44" stroke="#1e1e1e" stroke-width="1.5" fill="none"></path></g></g><mask></mask><g stroke-linecap="round"><g transform="translate(354.0510315448456 82.90669376026204) rotate(0 -18.585485294675266 0)"><path d="M0 0 C-9.9 0, -19.8 0, -37.17 0 M0 0 C-11.87 0, -23.73 0, -37.17 0" stroke="#1e1e1e" stroke-width="1" fill="none"></path></g><g transform="translate(354.0510315448456 82.90669376026204) rotate(0 -18.585485294675266 0)"><path d="M-19.71 -6.36 C-24.36 -4.66, -29.01 -2.97, -37.17 0 M-19.71 -6.36 C-25.28 -4.33, -30.86 -2.3, -37.17 0" stroke="#1e1e1e" stroke-width="1" fill="none"></path></g><g transform="translate(354.0510315448456 82.90669376026204) rotate(0 -18.585485294675266 0)"><path d="M-19.71 6.36 C-24.36 4.66, -29.01 2.97, -37.17 0 M-19.71 6.36 C-25.28 4.33, -30.86 2.3, -37.17 0" stroke="#1e1e1e" stroke-width="1" fill="none"></path></g></g><mask></mask><g transform="translate(356 71) rotate(0 95.1953125 12.5)"><text x="0" y="0" font-family="Muyao, Segoe UI Emoji" font-size="20px" fill="#1e1e1e" text-anchor="start" style="white-space: pre;" direction="ltr" dominant-baseline="text-before-edge">UNBOUNDED PRECEDING</text></g><g stroke-linecap="round"><g transform="translate(352.4156885670982 163.40669376026202) rotate(0 -18.585485294675266 0)"><path d="M0 0 C-9.06 0, -18.12 0, -37.17 0 M0 0 C-11.66 0, -23.32 0, -37.17 0" stroke="#1e1e1e" stroke-width="1" fill="none"></path></g><g transform="translate(352.4156885670982 163.40669376026202) rotate(0 -18.585485294675266 0)"><path d="M-19.71 -6.36 C-23.96 -4.81, -28.22 -3.26, -37.17 0 M-19.71 -6.36 C-25.19 -4.36, -30.67 -2.37, -37.17 0" stroke="#1e1e1e" stroke-width="1" fill="none"></path></g><g transform="translate(352.4156885670982 163.40669376026202) rotate(0 -18.585485294675266 0)"><path d="M-19.71 6.36 C-23.96 4.81, -28.22 3.26, -37.17 0 M-19.71 6.36 C-25.19 4.36, -30.67 2.37, -37.17 0" stroke="#1e1e1e" stroke-width="1" fill="none"></path></g></g><mask></mask><g transform="translate(354.36465702225246 151.50000000000003) rotate(0 54.55078125 12.5)"><text x="0" y="0" font-family="Muyao, Segoe UI Emoji" font-size="20px" fill="#1e1e1e" text-anchor="start" style="white-space: pre;" direction="ltr" dominant-baseline="text-before-edge">N PRECEDING</text></g><g stroke-linecap="round"><g transform="translate(350.4156885670982 242.40669376026202) rotate(0 -18.585485294675266 0)"><path d="M0 0 C-8.92 0, -17.83 0, -37.17 0 M0 0 C-7.51 0, -15.01 0, -37.17 0" stroke="#1e1e1e" stroke-width="1" fill="none"></path></g><g transform="translate(350.4156885670982 242.40669376026202) rotate(0 -18.585485294675266 0)"><path d="M-19.71 -6.36 C-23.9 -4.83, -28.09 -3.31, -37.17 0 M-19.71 -6.36 C-23.23 -5.07, -26.76 -3.79, -37.17 0" stroke="#1e1e1e" stroke-width="1" fill="none"></path></g><g transform="translate(350.4156885670982 242.40669376026202) rotate(0 -18.585485294675266 0)"><path d="M-19.71 6.36 C-23.9 4.83, -28.09 3.31, -37.17 0 M-19.71 6.36 C-23.23 5.07, -26.76 3.79, -37.17 0" stroke="#1e1e1e" stroke-width="1" fill="none"></path></g></g><mask></mask><g transform="translate(352.36465702225246 230.50000000000003) rotate(0 55.2734375 12.5)"><text x="0" y="0" font-family="Muyao, Segoe UI Emoji" font-size="20px" fill="#1e1e1e" text-anchor="start" style="white-space: pre;" direction="ltr" dominant-baseline="text-before-edge">CURRENT ROW</text></g><g stroke-linecap="round"><g transform="translate(353.33756356709796 323.406693760262) rotate(0 -18.58548529467521 0)"><path d="M0 0 C-12.1 0, -24.2 0, -37.17 0 M0 0 C-13.48 0, -26.95 0, -37.17 0" stroke="#1e1e1e" stroke-width="1" fill="none"></path></g><g transform="translate(353.33756356709796 323.406693760262) rotate(0 -18.58548529467521 0)"><path d="M-19.71 -6.36 C-25.39 -4.29, -31.08 -2.22, -37.17 0 M-19.71 -6.36 C-26.04 -4.05, -32.37 -1.75, -37.17 0" stroke="#1e1e1e" stroke-width="1" fill="none"></path></g><g transform="translate(353.33756356709796 323.406693760262) rotate(0 -18.58548529467521 0)"><path d="M-19.71 6.36 C-25.39 4.29, -31.08 2.22, -37.17 0 M-19.71 6.36 C-26.04 4.05, -32.37 1.75, -37.17 0" stroke="#1e1e1e" stroke-width="1" fill="none"></path></g></g><mask></mask><g transform="translate(355.28653202225235 311.5) rotate(0 54.39453124999994 12.5)"><text x="0" y="0" font-family="Muyao, Segoe UI Emoji" font-size="20px" fill="#1e1e1e" text-anchor="start" style="white-space: pre;" direction="ltr" dominant-baseline="text-before-edge">M FOLLOWING</text></g><g stroke-linecap="round"><g transform="translate(353.33756356709796 400.406693760262) rotate(0 -18.58548529467521 0)"><path d="M0 0 C-11.12 0, -22.24 0, -37.17 0 M0 0 C-10.79 0, -21.57 0, -37.17 0" stroke="#1e1e1e" stroke-width="1" fill="none"></path></g><g transform="translate(353.33756356709796 400.406693760262) rotate(0 -18.58548529467521 0)"><path d="M-19.71 -6.36 C-24.93 -4.46, -30.15 -2.55, -37.17 0 M-19.71 -6.36 C-24.77 -4.51, -29.84 -2.67, -37.17 0" stroke="#1e1e1e" stroke-width="1" fill="none"></path></g><g transform="translate(353.33756356709796 400.406693760262) rotate(0 -18.58548529467521 0)"><path d="M-19.71 6.36 C-24.93 4.46, -30.15 2.55, -37.17 0 M-19.71 6.36 C-24.77 4.51, -29.84 2.67, -37.17 0" stroke="#1e1e1e" stroke-width="1" fill="none"></path></g></g><mask></mask><g transform="translate(355.28653202225235 388.5) rotate(0 94.96093749999994 12.5)"><text x="0" y="0" font-family="Muyao, Segoe UI Emoji" font-size="20px" fill="#1e1e1e" text-anchor="start" style="white-space: pre;" direction="ltr" dominant-baseline="text-before-edge">UNBOUNDED FOLLOWING</text></g><g stroke-linecap="round" transform="translate(20 41) rotate(0 29.5 197)"><path d="M14.75 0 M14.75 0 C24.18 0, 33.61 0, 44.25 0 M44.25 0 C54.08 0, 59 4.92, 59 14.75 M59 14.75 C59 158.47, 59 302.2, 59 379.25 M59 379.25 C59 389.08, 54.08 394, 44.25 394 M44.25 394 C33.98 394, 23.72 394, 14.75 394 M14.75 394 C4.92 394, 0 389.08, 0 379.25 M0 379.25 C0 288.23, 0 197.22, 0 14.75 M0 14.75 C0 4.92, 4.92 0, 14.75 0" stroke="#1e1e1e" stroke-width="1.5" fill="none" stroke-dasharray="8 9"></path></g><g transform="translate(10 10) rotate(0 40 12.5)"><text x="0" y="0" font-family="Muyao, Segoe UI Emoji" font-size="20px" fill="#1e1e1e" text-anchor="start" style="white-space: pre;" direction="ltr" dominant-baseline="text-before-edge">当前分区</text></g></svg>