<svg version="1.1" xmlns="http://www.w3.org/2000/svg" viewBox="0 0 1225.8723553546693 445.41046445008794" width="1225.8723553546693" height="445.41046445008794">
  <!-- svg-source:excalidraw -->
  
  <defs>
    <style class="style-fonts">
      @font-face {
        font-family: "Virgil";
        src: url("https://excalidraw.com/Virgil.woff2");
      }
      @font-face {
        font-family: "Cascadia";
        src: url("https://excalidraw.com/Cascadia.woff2");
      }
      @font-face {
        font-family: "Assistant";
        src: url("https://excalidraw.com/Assistant-Regular.woff2");
      }
    </style>
    
  </defs>
  <rect x="0" y="0" width="1225.8723553546693" height="445.41046445008794" fill="#ffffff"></rect><g transform="translate(168.3149576870095 10) rotate(0 31.210376332852775 19.506485208032984)"><text x="0" y="31.83519343717258" font-family="Muyao, Segoe UI Emoji" font-size="31.210376332852775px" fill="#40c057" text-anchor="start" style="white-space: pre;" direction="ltr" dominant-baseline="alphabetic">元素</text></g><g transform="translate(166.51752151986227 42.817675503988966) rotate(0 33.0078125 12.5)"><text x="0" y="20.400390625" font-family="Muyao, Segoe UI Emoji" font-size="20px" fill="#1e1e1e" text-anchor="start" style="white-space: pre;" direction="ltr" dominant-baseline="alphabetic">element</text></g><g stroke-linecap="round" transform="translate(155.3004270065079 135.03914163511695) rotate(0 144.01592388725027 26.232408722632115)"><path d="M13.12 0 C107.45 0, 201.78 0, 274.92 0 M13.12 0 C111.99 0, 210.87 0, 274.92 0 M274.92 0 C283.66 0, 288.03 4.37, 288.03 13.12 M274.92 0 C283.66 0, 288.03 4.37, 288.03 13.12 M288.03 13.12 C288.03 19.44, 288.03 25.77, 288.03 39.35 M288.03 13.12 C288.03 19.7, 288.03 26.28, 288.03 39.35 M288.03 39.35 C288.03 48.09, 283.66 52.46, 274.92 52.46 M288.03 39.35 C288.03 48.09, 283.66 52.46, 274.92 52.46 M274.92 52.46 C204.84 52.46, 134.76 52.46, 13.12 52.46 M274.92 52.46 C199.92 52.46, 124.93 52.46, 13.12 52.46 M13.12 52.46 C4.37 52.46, 0 48.09, 0 39.35 M13.12 52.46 C4.37 52.46, 0 48.09, 0 39.35 M0 39.35 C0 33.6, 0 27.84, 0 13.12 M0 39.35 C0 29.39, 0 19.42, 0 13.12 M0 13.12 C0 4.37, 4.37 0, 13.12 0 M0 13.12 C0 4.37, 4.37 0, 13.12 0" stroke="#b2f2bb" stroke-width="1" fill="none"></path></g><g stroke-linecap="round" transform="translate(161.59636248718823 140.3891366124231) rotate(0 34 21.5)"><path d="M10.75 0 C23.73 0, 36.7 0, 57.25 0 C64.42 0, 68 3.58, 68 10.75 C68 15.63, 68 20.51, 68 32.25 C68 39.42, 64.42 43, 57.25 43 C47.84 43, 38.43 43, 10.75 43 C3.58 43, 0 39.42, 0 32.25 C0 25.08, 0 17.91, 0 10.75 C0 3.58, 3.58 0, 10.75 0" stroke="none" stroke-width="0" fill="#b2f2bb"></path><path d="M10.75 0 C24.06 0, 37.37 0, 57.25 0 M10.75 0 C22.84 0, 34.94 0, 57.25 0 M57.25 0 C64.42 0, 68 3.58, 68 10.75 M57.25 0 C64.42 0, 68 3.58, 68 10.75 M68 10.75 C68 16.08, 68 21.41, 68 32.25 M68 10.75 C68 19.22, 68 27.68, 68 32.25 M68 32.25 C68 39.42, 64.42 43, 57.25 43 M68 32.25 C68 39.42, 64.42 43, 57.25 43 M57.25 43 C45.77 43, 34.3 43, 10.75 43 M57.25 43 C41.23 43, 25.2 43, 10.75 43 M10.75 43 C3.58 43, 0 39.42, 0 32.25 M10.75 43 C3.58 43, 0 39.42, 0 32.25 M0 32.25 C0 25.4, 0 18.55, 0 10.75 M0 32.25 C0 27.49, 0 22.73, 0 10.75 M0 10.75 C0 3.58, 3.58 0, 10.75 0 M0 10.75 C0 3.58, 3.58 0, 10.75 0" stroke="#1e1e1e" stroke-width="2" fill="none"></path></g><g transform="translate(192.19792498718823 149.3891366124231) rotate(0 3.3984375 12.5)"><text x="3.3984375" y="20.400390625" font-family="Muyao, Segoe UI Emoji" font-size="20px" fill="#1e1e1e" text-anchor="middle" style="white-space: pre;" direction="ltr" dominant-baseline="alphabetic">1</text></g><g stroke-linecap="round" transform="translate(229.869663760153 140.3891366124231) rotate(0 34 21.5)"><path d="M10.75 0 C20.64 0, 30.53 0, 57.25 0 C64.42 0, 68 3.58, 68 10.75 C68 19.15, 68 27.54, 68 32.25 C68 39.42, 64.42 43, 57.25 43 C45.41 43, 33.57 43, 10.75 43 C3.58 43, 0 39.42, 0 32.25 C0 26.63, 0 21.02, 0 10.75 C0 3.58, 3.58 0, 10.75 0" stroke="none" stroke-width="0" fill="#b2f2bb"></path><path d="M10.75 0 C25.67 0, 40.6 0, 57.25 0 M10.75 0 C28.63 0, 46.51 0, 57.25 0 M57.25 0 C64.42 0, 68 3.58, 68 10.75 M57.25 0 C64.42 0, 68 3.58, 68 10.75 M68 10.75 C68 16.3, 68 21.85, 68 32.25 M68 10.75 C68 17.89, 68 25.04, 68 32.25 M68 32.25 C68 39.42, 64.42 43, 57.25 43 M68 32.25 C68 39.42, 64.42 43, 57.25 43 M57.25 43 C41.72 43, 26.2 43, 10.75 43 M57.25 43 C44.04 43, 30.84 43, 10.75 43 M10.75 43 C3.58 43, 0 39.42, 0 32.25 M10.75 43 C3.58 43, 0 39.42, 0 32.25 M0 32.25 C0 26.32, 0 20.4, 0 10.75 M0 32.25 C0 27.63, 0 23.02, 0 10.75 M0 10.75 C0 3.58, 3.58 0, 10.75 0 M0 10.75 C0 3.58, 3.58 0, 10.75 0" stroke="#1e1e1e" stroke-width="2" fill="none"></path></g><g transform="translate(259.455601260153 149.3891366124231) rotate(0 4.4140625 12.5)"><text x="4.4140625" y="20.400390625" font-family="Muyao, Segoe UI Emoji" font-size="20px" fill="#1e1e1e" text-anchor="middle" style="white-space: pre;" direction="ltr" dominant-baseline="alphabetic">3</text></g><g stroke-linecap="round" transform="translate(299.08701553800245 140.3891366124231) rotate(0 34 21.5)"><path d="M10.75 0 C24.3 0, 37.85 0, 57.25 0 C64.42 0, 68 3.58, 68 10.75 C68 17.59, 68 24.42, 68 32.25 C68 39.42, 64.42 43, 57.25 43 C42.44 43, 27.63 43, 10.75 43 C3.58 43, 0 39.42, 0 32.25 C0 24.66, 0 17.07, 0 10.75 C0 3.58, 3.58 0, 10.75 0" stroke="none" stroke-width="0" fill="#b2f2bb"></path><path d="M10.75 0 C26.25 0, 41.75 0, 57.25 0 M10.75 0 C20.55 0, 30.34 0, 57.25 0 M57.25 0 C64.42 0, 68 3.58, 68 10.75 M57.25 0 C64.42 0, 68 3.58, 68 10.75 M68 10.75 C68 18.52, 68 26.29, 68 32.25 M68 10.75 C68 15.36, 68 19.97, 68 32.25 M68 32.25 C68 39.42, 64.42 43, 57.25 43 M68 32.25 C68 39.42, 64.42 43, 57.25 43 M57.25 43 C43.96 43, 30.68 43, 10.75 43 M57.25 43 C40.8 43, 24.35 43, 10.75 43 M10.75 43 C3.58 43, 0 39.42, 0 32.25 M10.75 43 C3.58 43, 0 39.42, 0 32.25 M0 32.25 C0 23.86, 0 15.48, 0 10.75 M0 32.25 C0 25.92, 0 19.59, 0 10.75 M0 10.75 C0 3.58, 3.58 0, 10.75 0 M0 10.75 C0 3.58, 3.58 0, 10.75 0" stroke="#1e1e1e" stroke-width="2" fill="none"></path></g><g transform="translate(328.14560928800245 149.3891366124231) rotate(0 4.94140625 12.5)"><text x="4.94140625" y="20.400390625" font-family="Muyao, Segoe UI Emoji" font-size="20px" fill="#1e1e1e" text-anchor="middle" style="white-space: pre;" direction="ltr" dominant-baseline="alphabetic">2</text></g><g stroke-linecap="round" transform="translate(368.460652142874 140.3891366124231) rotate(0 34 21.5)"><path d="M10.75 0 C24.27 0, 37.8 0, 57.25 0 C64.42 0, 68 3.58, 68 10.75 C68 17.71, 68 24.68, 68 32.25 C68 39.42, 64.42 43, 57.25 43 C39.64 43, 22.03 43, 10.75 43 C3.58 43, 0 39.42, 0 32.25 C0 27.75, 0 23.25, 0 10.75 C0 3.58, 3.58 0, 10.75 0" stroke="none" stroke-width="0" fill="#b2f2bb"></path><path d="M10.75 0 C23.63 0, 36.51 0, 57.25 0 M10.75 0 C25.19 0, 39.64 0, 57.25 0 M57.25 0 C64.42 0, 68 3.58, 68 10.75 M57.25 0 C64.42 0, 68 3.58, 68 10.75 M68 10.75 C68 17.29, 68 23.83, 68 32.25 M68 10.75 C68 17.14, 68 23.52, 68 32.25 M68 32.25 C68 39.42, 64.42 43, 57.25 43 M68 32.25 C68 39.42, 64.42 43, 57.25 43 M57.25 43 C45.28 43, 33.31 43, 10.75 43 M57.25 43 C46.71 43, 36.17 43, 10.75 43 M10.75 43 C3.58 43, 0 39.42, 0 32.25 M10.75 43 C3.58 43, 0 39.42, 0 32.25 M0 32.25 C0 23.68, 0 15.12, 0 10.75 M0 32.25 C0 23.86, 0 15.48, 0 10.75 M0 10.75 C0 3.58, 3.58 0, 10.75 0 M0 10.75 C0 3.58, 3.58 0, 10.75 0" stroke="#1e1e1e" stroke-width="2" fill="none"></path></g><g transform="translate(397.382527142874 149.3891366124231) rotate(0 5.078125 12.5)"><text x="5.078125" y="20.400390625" font-family="Muyao, Segoe UI Emoji" font-size="20px" fill="#1e1e1e" text-anchor="middle" style="white-space: pre;" direction="ltr" dominant-baseline="alphabetic">4</text></g><g transform="translate(50.79410948721414 135.32940538049252) rotate(0 31.209991455078125 19.506485208032984)"><text x="0" y="31.83519343717258" font-family="Muyao, Segoe UI Emoji" font-size="31.210376332852775px" fill="#40c057" text-anchor="start" style="white-space: pre;" direction="ltr" dominant-baseline="alphabetic">数组</text></g><g transform="translate(58.62519469229227 162.21369533500558) rotate(0 23.37890625 12.5)"><text x="0" y="20.400390625" font-family="Muyao, Segoe UI Emoji" font-size="20px" fill="#1e1e1e" text-anchor="start" style="white-space: pre;" direction="ltr" dominant-baseline="alphabetic">array</text></g><g stroke-linecap="round"><g transform="translate(200.05714660690182 76.19537482391104) rotate(0 -0.39246348743034787 26.987900425471153)"><path d="M0 0 C-0.13 9, -0.65 44.98, -0.78 53.98 M0 0 C-0.13 9, -0.65 44.98, -0.78 53.98" stroke="#1e1e1e" stroke-width="1" fill="none"></path></g><g transform="translate(200.05714660690182 76.19537482391104) rotate(0 -0.39246348743034787 26.987900425471153)"><path d="M-0.78 53.98 L-6.93 40.29 L5.75 40.47 L-0.78 53.98" stroke="none" stroke-width="0" fill="#1e1e1e" fill-rule="evenodd"></path><path d="M-0.78 53.98 C-2.25 50.72, -3.71 47.46, -6.93 40.29 M-0.78 53.98 C-2.82 49.44, -4.85 44.91, -6.93 40.29 M-6.93 40.29 C-2.9 40.35, 1.12 40.41, 5.75 40.47 M-6.93 40.29 C-2.77 40.35, 1.39 40.41, 5.75 40.47 M5.75 40.47 C3.45 45.22, 1.15 49.97, -0.78 53.98 M5.75 40.47 C3.38 45.38, 1 50.28, -0.78 53.98 M-0.78 53.98 C-0.78 53.98, -0.78 53.98, -0.78 53.98 M-0.78 53.98 C-0.78 53.98, -0.78 53.98, -0.78 53.98" stroke="#1e1e1e" stroke-width="1" fill="none"></path></g></g><mask></mask><g transform="translate(50.79410948721414 204.91236391003943) rotate(0 31.209991455078125 19.506485208032984)"><text x="0" y="31.83519343717258" font-family="Muyao, Segoe UI Emoji" font-size="31.210376332852775px" fill="#868e96" text-anchor="start" style="white-space: pre;" direction="ltr" dominant-baseline="alphabetic">索引</text></g><g transform="translate(57.64863219229227 232.10253215440318) rotate(0 24.35546875 12.5)"><text x="0" y="20.400390625" font-family="Muyao, Segoe UI Emoji" font-size="20px" fill="#ced4da" text-anchor="start" style="white-space: pre;" direction="ltr" dominant-baseline="alphabetic">index</text></g><g transform="translate(186.40879487968948 218.50744803222133) rotate(0 4.98046875 12.5)"><text x="0" y="20.400390625" font-family="Muyao, Segoe UI Emoji" font-size="20px" fill="#868e96" text-anchor="start" style="white-space: pre;" direction="ltr" dominant-baseline="alphabetic">0</text></g><g transform="translate(259.3436849012927 218.50744803222133) rotate(0 3.3984375 12.5)"><text x="0" y="20.400390625" font-family="Muyao, Segoe UI Emoji" font-size="20px" fill="#868e96" text-anchor="start" style="white-space: pre;" direction="ltr" dominant-baseline="alphabetic">1</text></g><g transform="translate(329.1145124228959 218.50744803222133) rotate(0 4.94140625 12.5)"><text x="0" y="20.400390625" font-family="Muyao, Segoe UI Emoji" font-size="20px" fill="#868e96" text-anchor="start" style="white-space: pre;" direction="ltr" dominant-baseline="alphabetic">2</text></g><g transform="translate(400.91658994449915 218.50744803222133) rotate(0 4.4140625 12.5)"><text x="0" y="20.400390625" font-family="Muyao, Segoe UI Emoji" font-size="20px" fill="#868e96" text-anchor="start" style="white-space: pre;" direction="ltr" dominant-baseline="alphabetic">3</text></g><g transform="translate(10 273.3595626691533) rotate(0 62.41998291015625 19.506485208032984)"><text x="0" y="31.83519343717258" font-family="Muyao, Segoe UI Emoji" font-size="31.210376332852775px" fill="#868e96" text-anchor="start" style="white-space: pre;" direction="ltr" dominant-baseline="alphabetic">内存地址</text></g><g transform="translate(16.854522705078125 300.549730913517) rotate(0 70.0390625 12.5)"><text x="0" y="20.400390625" font-family="Muyao, Segoe UI Emoji" font-size="20px" fill="#ced4da" text-anchor="start" style="white-space: pre;" direction="ltr" dominant-baseline="alphabetic">memory location</text></g><g transform="translate(185.40743578130957 286.9546467913352) rotate(0 9.9609375 12.5)"><text x="0" y="20.400390625" font-family="Muyao, Segoe UI Emoji" font-size="20px" fill="#868e96" text-anchor="start" style="white-space: pre;" direction="ltr" dominant-baseline="alphabetic">00</text></g><g transform="translate(258.3423258029128 286.9546467913352) rotate(0 10.05859375 12.5)"><text x="0" y="20.400390625" font-family="Muyao, Segoe UI Emoji" font-size="20px" fill="#868e96" text-anchor="start" style="white-space: pre;" direction="ltr" dominant-baseline="alphabetic">04</text></g><g transform="translate(328.113153324516 286.9546467913352) rotate(0 9.74609375 12.5)"><text x="0" y="20.400390625" font-family="Muyao, Segoe UI Emoji" font-size="20px" fill="#868e96" text-anchor="start" style="white-space: pre;" direction="ltr" dominant-baseline="alphabetic">08</text></g><g transform="translate(399.91523084611947 286.9546467913352) rotate(0 8.33984375 12.5)"><text x="0" y="20.400390625" font-family="Muyao, Segoe UI Emoji" font-size="20px" fill="#868e96" text-anchor="start" style="white-space: pre;" direction="ltr" dominant-baseline="alphabetic">12</text></g><g stroke-linecap="round" transform="translate(671.3963934821074 94.35943298300444) rotate(0 34 21.5)"><path d="M10.75 0 C23.6 0, 36.45 0, 57.25 0 C64.42 0, 68 3.58, 68 10.75 C68 17.97, 68 25.19, 68 32.25 C68 39.42, 64.42 43, 57.25 43 C47.23 43, 37.21 43, 10.75 43 C3.58 43, 0 39.42, 0 32.25 C0 26.04, 0 19.82, 0 10.75 C0 3.58, 3.58 0, 10.75 0" stroke="none" stroke-width="0" fill="#e9ecef"></path><path d="M10.75 0 C27.83 0, 44.92 0, 57.25 0 M10.75 0 C21.89 0, 33.03 0, 57.25 0 M57.25 0 C64.42 0, 68 3.58, 68 10.75 M57.25 0 C64.42 0, 68 3.58, 68 10.75 M68 10.75 C68 18.95, 68 27.14, 68 32.25 M68 10.75 C68 18.53, 68 26.32, 68 32.25 M68 32.25 C68 39.42, 64.42 43, 57.25 43 M68 32.25 C68 39.42, 64.42 43, 57.25 43 M57.25 43 C38.83 43, 20.4 43, 10.75 43 M57.25 43 C44.12 43, 31 43, 10.75 43 M10.75 43 C3.58 43, 0 39.42, 0 32.25 M10.75 43 C3.58 43, 0 39.42, 0 32.25 M0 32.25 C0 26.74, 0 21.23, 0 10.75 M0 32.25 C0 27.37, 0 22.49, 0 10.75 M0 10.75 C0 3.58, 3.58 0, 10.75 0 M0 10.75 C0 3.58, 3.58 0, 10.75 0" stroke="#1e1e1e" stroke-width="2" fill="none"></path></g><g stroke-linecap="round" transform="translate(739.4643880353306 94.35943298300444) rotate(0 34 21.5)"><path d="M10.75 0 C26.09 0, 41.44 0, 57.25 0 C64.42 0, 68 3.58, 68 10.75 C68 15.15, 68 19.55, 68 32.25 C68 39.42, 64.42 43, 57.25 43 C46.35 43, 35.44 43, 10.75 43 C3.58 43, 0 39.42, 0 32.25 C0 26.64, 0 21.04, 0 10.75 C0 3.58, 3.58 0, 10.75 0" stroke="none" stroke-width="0" fill="#e9ecef"></path><path d="M10.75 0 C22.96 0, 35.18 0, 57.25 0 M10.75 0 C27.96 0, 45.17 0, 57.25 0 M57.25 0 C64.42 0, 68 3.58, 68 10.75 M57.25 0 C64.42 0, 68 3.58, 68 10.75 M68 10.75 C68 17.62, 68 24.5, 68 32.25 M68 10.75 C68 18.2, 68 25.65, 68 32.25 M68 32.25 C68 39.42, 64.42 43, 57.25 43 M68 32.25 C68 39.42, 64.42 43, 57.25 43 M57.25 43 C39.52 43, 21.8 43, 10.75 43 M57.25 43 C44.69 43, 32.12 43, 10.75 43 M10.75 43 C3.58 43, 0 39.42, 0 32.25 M10.75 43 C3.58 43, 0 39.42, 0 32.25 M0 32.25 C0 27.17, 0 22.09, 0 10.75 M0 32.25 C0 27.43, 0 22.61, 0 10.75 M0 10.75 C0 3.58, 3.58 0, 10.75 0 M0 10.75 C0 3.58, 3.58 0, 10.75 0" stroke="#1e1e1e" stroke-width="2" fill="none"></path></g><g stroke-linecap="round" transform="translate(807.5323825885539 94.35943298300444) rotate(0 34 21.5)"><path d="M10.75 0 C28.05 0, 45.35 0, 57.25 0 C64.42 0, 68 3.58, 68 10.75 C68 17.76, 68 24.78, 68 32.25 C68 39.42, 64.42 43, 57.25 43 C43.1 43, 28.96 43, 10.75 43 C3.58 43, 0 39.42, 0 32.25 C0 24.95, 0 17.64, 0 10.75 C0 3.58, 3.58 0, 10.75 0" stroke="none" stroke-width="0" fill="#e9ecef"></path><path d="M10.75 0 C25.67 0, 40.59 0, 57.25 0 M10.75 0 C27.93 0, 45.12 0, 57.25 0 M57.25 0 C64.42 0, 68 3.58, 68 10.75 M57.25 0 C64.42 0, 68 3.58, 68 10.75 M68 10.75 C68 17.29, 68 23.83, 68 32.25 M68 10.75 C68 16.37, 68 21.99, 68 32.25 M68 32.25 C68 39.42, 64.42 43, 57.25 43 M68 32.25 C68 39.42, 64.42 43, 57.25 43 M57.25 43 C42.82 43, 28.39 43, 10.75 43 M57.25 43 C45.53 43, 33.81 43, 10.75 43 M10.75 43 C3.58 43, 0 39.42, 0 32.25 M10.75 43 C3.58 43, 0 39.42, 0 32.25 M0 32.25 C0 27.24, 0 22.23, 0 10.75 M0 32.25 C0 26.99, 0 21.74, 0 10.75 M0 10.75 C0 3.58, 3.58 0, 10.75 0 M0 10.75 C0 3.58, 3.58 0, 10.75 0" stroke="#1e1e1e" stroke-width="2" fill="none"></path></g><g stroke-linecap="round" transform="translate(875.6003771417768 94.35943298300444) rotate(0 34 21.5)"><path d="M10.75 0 C24.59 0, 38.42 0, 57.25 0 C64.42 0, 68 3.58, 68 10.75 C68 17.67, 68 24.6, 68 32.25 C68 39.42, 64.42 43, 57.25 43 C43.92 43, 30.59 43, 10.75 43 C3.58 43, 0 39.42, 0 32.25 C0 25.4, 0 18.56, 0 10.75 C0 3.58, 3.58 0, 10.75 0" stroke="none" stroke-width="0" fill="#e9ecef"></path><path d="M10.75 0 C28.81 0, 46.87 0, 57.25 0 M10.75 0 C25.71 0, 40.68 0, 57.25 0 M57.25 0 C64.42 0, 68 3.58, 68 10.75 M57.25 0 C64.42 0, 68 3.58, 68 10.75 M68 10.75 C68 19.17, 68 27.59, 68 32.25 M68 10.75 C68 15.46, 68 20.17, 68 32.25 M68 32.25 C68 39.42, 64.42 43, 57.25 43 M68 32.25 C68 39.42, 64.42 43, 57.25 43 M57.25 43 C39.04 43, 20.83 43, 10.75 43 M57.25 43 C45.6 43, 33.95 43, 10.75 43 M10.75 43 C3.58 43, 0 39.42, 0 32.25 M10.75 43 C3.58 43, 0 39.42, 0 32.25 M0 32.25 C0 25.54, 0 18.84, 0 10.75 M0 32.25 C0 26.06, 0 19.86, 0 10.75 M0 10.75 C0 3.58, 3.58 0, 10.75 0 M0 10.75 C0 3.58, 3.58 0, 10.75 0" stroke="#1e1e1e" stroke-width="2" fill="none"></path></g><g stroke-linecap="round" transform="translate(943.6683716950001 94.35943298300444) rotate(0 34 21.5)"><path d="M10.75 0 C22.61 0, 34.47 0, 57.25 0 C64.42 0, 68 3.58, 68 10.75 C68 18.6, 68 26.44, 68 32.25 C68 39.42, 64.42 43, 57.25 43 C44 43, 30.76 43, 10.75 43 C3.58 43, 0 39.42, 0 32.25 C0 24.84, 0 17.42, 0 10.75 C0 3.58, 3.58 0, 10.75 0" stroke="none" stroke-width="0" fill="#e9ecef"></path><path d="M10.75 0 C24.73 0, 38.72 0, 57.25 0 M10.75 0 C27.4 0, 44.05 0, 57.25 0 M57.25 0 C64.42 0, 68 3.58, 68 10.75 M57.25 0 C64.42 0, 68 3.58, 68 10.75 M68 10.75 C68 16.48, 68 22.22, 68 32.25 M68 10.75 C68 18.82, 68 26.89, 68 32.25 M68 32.25 C68 39.42, 64.42 43, 57.25 43 M68 32.25 C68 39.42, 64.42 43, 57.25 43 M57.25 43 C44.4 43, 31.54 43, 10.75 43 M57.25 43 C46.2 43, 35.15 43, 10.75 43 M10.75 43 C3.58 43, 0 39.42, 0 32.25 M10.75 43 C3.58 43, 0 39.42, 0 32.25 M0 32.25 C0 25.37, 0 18.49, 0 10.75 M0 32.25 C0 25.14, 0 18.03, 0 10.75 M0 10.75 C0 3.58, 3.58 0, 10.75 0 M0 10.75 C0 3.58, 3.58 0, 10.75 0" stroke="#1e1e1e" stroke-width="2" fill="none"></path></g><g stroke-linecap="round" transform="translate(1011.736366248223 94.35943298300444) rotate(0 34 21.5)"><path d="M10.75 0 C25.7 0, 40.64 0, 57.25 0 C64.42 0, 68 3.58, 68 10.75 C68 16.56, 68 22.37, 68 32.25 C68 39.42, 64.42 43, 57.25 43 C44.16 43, 31.07 43, 10.75 43 C3.58 43, 0 39.42, 0 32.25 C0 24.77, 0 17.29, 0 10.75 C0 3.58, 3.58 0, 10.75 0" stroke="none" stroke-width="0" fill="#e9ecef"></path><path d="M10.75 0 C25.06 0, 39.37 0, 57.25 0 M10.75 0 C25.08 0, 39.41 0, 57.25 0 M57.25 0 C64.42 0, 68 3.58, 68 10.75 M57.25 0 C64.42 0, 68 3.58, 68 10.75 M68 10.75 C68 16.97, 68 23.18, 68 32.25 M68 10.75 C68 17.2, 68 23.66, 68 32.25 M68 32.25 C68 39.42, 64.42 43, 57.25 43 M68 32.25 C68 39.42, 64.42 43, 57.25 43 M57.25 43 C41.07 43, 24.9 43, 10.75 43 M57.25 43 C42.73 43, 28.21 43, 10.75 43 M10.75 43 C3.58 43, 0 39.42, 0 32.25 M10.75 43 C3.58 43, 0 39.42, 0 32.25 M0 32.25 C0 26.56, 0 20.88, 0 10.75 M0 32.25 C0 27.6, 0 22.96, 0 10.75 M0 10.75 C0 3.58, 3.58 0, 10.75 0 M0 10.75 C0 3.58, 3.58 0, 10.75 0" stroke="#1e1e1e" stroke-width="2" fill="none"></path></g><g stroke-linecap="round" transform="translate(1079.8043608014464 94.35943298300444) rotate(0 34 21.5)"><path d="M10.75 0 C23.62 0, 36.5 0, 57.25 0 C64.42 0, 68 3.58, 68 10.75 C68 18.16, 68 25.58, 68 32.25 C68 39.42, 64.42 43, 57.25 43 C44.99 43, 32.73 43, 10.75 43 C3.58 43, 0 39.42, 0 32.25 C0 26.73, 0 21.21, 0 10.75 C0 3.58, 3.58 0, 10.75 0" stroke="none" stroke-width="0" fill="#e9ecef"></path><path d="M10.75 0 C25.66 0, 40.57 0, 57.25 0 M10.75 0 C23.26 0, 35.78 0, 57.25 0 M57.25 0 C64.42 0, 68 3.58, 68 10.75 M57.25 0 C64.42 0, 68 3.58, 68 10.75 M68 10.75 C68 16.32, 68 21.89, 68 32.25 M68 10.75 C68 18.57, 68 26.39, 68 32.25 M68 32.25 C68 39.42, 64.42 43, 57.25 43 M68 32.25 C68 39.42, 64.42 43, 57.25 43 M57.25 43 C45.98 43, 34.71 43, 10.75 43 M57.25 43 C41.04 43, 24.83 43, 10.75 43 M10.75 43 C3.58 43, 0 39.42, 0 32.25 M10.75 43 C3.58 43, 0 39.42, 0 32.25 M0 32.25 C0 24.84, 0 17.42, 0 10.75 M0 32.25 C0 27.33, 0 22.41, 0 10.75 M0 10.75 C0 3.58, 3.58 0, 10.75 0 M0 10.75 C0 3.58, 3.58 0, 10.75 0" stroke="#1e1e1e" stroke-width="2" fill="none"></path></g><g stroke-linecap="round" transform="translate(1147.8723553546693 94.35943298300444) rotate(0 34 21.5)"><path d="M10.75 0 C21.64 0, 32.53 0, 57.25 0 C64.42 0, 68 3.58, 68 10.75 C68 18.96, 68 27.17, 68 32.25 C68 39.42, 64.42 43, 57.25 43 C44.62 43, 31.99 43, 10.75 43 C3.58 43, 0 39.42, 0 32.25 C0 24.29, 0 16.32, 0 10.75 C0 3.58, 3.58 0, 10.75 0" stroke="none" stroke-width="0" fill="#e9ecef"></path><path d="M10.75 0 C21.77 0, 32.79 0, 57.25 0 M10.75 0 C23.86 0, 36.98 0, 57.25 0 M57.25 0 C64.42 0, 68 3.58, 68 10.75 M57.25 0 C64.42 0, 68 3.58, 68 10.75 M68 10.75 C68 18.57, 68 26.39, 68 32.25 M68 10.75 C68 15.17, 68 19.6, 68 32.25 M68 32.25 C68 39.42, 64.42 43, 57.25 43 M68 32.25 C68 39.42, 64.42 43, 57.25 43 M57.25 43 C41.14 43, 25.04 43, 10.75 43 M57.25 43 C42.05 43, 26.85 43, 10.75 43 M10.75 43 C3.58 43, 0 39.42, 0 32.25 M10.75 43 C3.58 43, 0 39.42, 0 32.25 M0 32.25 C0 24.6, 0 16.94, 0 10.75 M0 32.25 C0 25.16, 0 18.07, 0 10.75 M0 10.75 C0 3.58, 3.58 0, 10.75 0 M0 10.75 C0 3.58, 3.58 0, 10.75 0" stroke="#1e1e1e" stroke-width="2" fill="none"></path></g><g stroke-linecap="round" transform="translate(671.3963934821074 139.30201203107518) rotate(0 34 21.5)"><path d="M10.75 0 C22.01 0, 33.27 0, 57.25 0 C64.42 0, 68 3.58, 68 10.75 C68 16.87, 68 22.99, 68 32.25 C68 39.42, 64.42 43, 57.25 43 C39.25 43, 21.26 43, 10.75 43 C3.58 43, 0 39.42, 0 32.25 C0 26.9, 0 21.54, 0 10.75 C0 3.58, 3.58 0, 10.75 0" stroke="none" stroke-width="0" fill="#b2f2bb"></path><path d="M10.75 0 C27.71 0, 44.67 0, 57.25 0 M10.75 0 C28.3 0, 45.85 0, 57.25 0 M57.25 0 C64.42 0, 68 3.58, 68 10.75 M57.25 0 C64.42 0, 68 3.58, 68 10.75 M68 10.75 C68 18.78, 68 26.81, 68 32.25 M68 10.75 C68 17.99, 68 25.22, 68 32.25 M68 32.25 C68 39.42, 64.42 43, 57.25 43 M68 32.25 C68 39.42, 64.42 43, 57.25 43 M57.25 43 C43.23 43, 29.2 43, 10.75 43 M57.25 43 C44.44 43, 31.62 43, 10.75 43 M10.75 43 C3.58 43, 0 39.42, 0 32.25 M10.75 43 C3.58 43, 0 39.42, 0 32.25 M0 32.25 C0 26, 0 19.74, 0 10.75 M0 32.25 C0 26.79, 0 21.32, 0 10.75 M0 10.75 C0 3.58, 3.58 0, 10.75 0 M0 10.75 C0 3.58, 3.58 0, 10.75 0" stroke="#1e1e1e" stroke-width="2" fill="none"></path></g><g transform="translate(701.9979559821074 148.30201203107518) rotate(0 3.3984375 12.5)"><text x="3.3984375" y="20.400390625" font-family="Muyao, Segoe UI Emoji" font-size="20px" fill="#1e1e1e" text-anchor="middle" style="white-space: pre;" direction="ltr" dominant-baseline="alphabetic">1</text></g><g stroke-linecap="round" transform="translate(739.4643880353306 139.30201203107518) rotate(0 34 21.5)"><path d="M10.75 0 C28.05 0, 45.35 0, 57.25 0 C64.42 0, 68 3.58, 68 10.75 C68 18.16, 68 25.57, 68 32.25 C68 39.42, 64.42 43, 57.25 43 C42.65 43, 28.05 43, 10.75 43 C3.58 43, 0 39.42, 0 32.25 C0 25.14, 0 18.03, 0 10.75 C0 3.58, 3.58 0, 10.75 0" stroke="none" stroke-width="0" fill="#b2f2bb"></path><path d="M10.75 0 C23.9 0, 37.05 0, 57.25 0 M10.75 0 C20.53 0, 30.31 0, 57.25 0 M57.25 0 C64.42 0, 68 3.58, 68 10.75 M57.25 0 C64.42 0, 68 3.58, 68 10.75 M68 10.75 C68 18.65, 68 26.56, 68 32.25 M68 10.75 C68 16.83, 68 22.91, 68 32.25 M68 32.25 C68 39.42, 64.42 43, 57.25 43 M68 32.25 C68 39.42, 64.42 43, 57.25 43 M57.25 43 C39.69 43, 22.13 43, 10.75 43 M57.25 43 C40.83 43, 24.42 43, 10.75 43 M10.75 43 C3.58 43, 0 39.42, 0 32.25 M10.75 43 C3.58 43, 0 39.42, 0 32.25 M0 32.25 C0 24.86, 0 17.46, 0 10.75 M0 32.25 C0 27.1, 0 21.94, 0 10.75 M0 10.75 C0 3.58, 3.58 0, 10.75 0 M0 10.75 C0 3.58, 3.58 0, 10.75 0" stroke="#1e1e1e" stroke-width="2" fill="none"></path></g><g transform="translate(769.0503255353306 148.30201203107518) rotate(0 4.4140625 12.5)"><text x="4.4140625" y="20.400390625" font-family="Muyao, Segoe UI Emoji" font-size="20px" fill="#1e1e1e" text-anchor="middle" style="white-space: pre;" direction="ltr" dominant-baseline="alphabetic">3</text></g><g stroke-linecap="round" transform="translate(807.5323825885539 139.30201203107518) rotate(0 34 21.5)"><path d="M10.75 0 C27.08 0, 43.41 0, 57.25 0 C64.42 0, 68 3.58, 68 10.75 C68 17.12, 68 23.48, 68 32.25 C68 39.42, 64.42 43, 57.25 43 C43.33 43, 29.41 43, 10.75 43 C3.58 43, 0 39.42, 0 32.25 C0 25.3, 0 18.36, 0 10.75 C0 3.58, 3.58 0, 10.75 0" stroke="none" stroke-width="0" fill="#b2f2bb"></path><path d="M10.75 0 C24.75 0, 38.74 0, 57.25 0 M10.75 0 C25.28 0, 39.82 0, 57.25 0 M57.25 0 C64.42 0, 68 3.58, 68 10.75 M57.25 0 C64.42 0, 68 3.58, 68 10.75 M68 10.75 C68 18.7, 68 26.65, 68 32.25 M68 10.75 C68 17.58, 68 24.41, 68 32.25 M68 32.25 C68 39.42, 64.42 43, 57.25 43 M68 32.25 C68 39.42, 64.42 43, 57.25 43 M57.25 43 C44.48 43, 31.71 43, 10.75 43 M57.25 43 C39.66 43, 22.07 43, 10.75 43 M10.75 43 C3.58 43, 0 39.42, 0 32.25 M10.75 43 C3.58 43, 0 39.42, 0 32.25 M0 32.25 C0 26.17, 0 20.09, 0 10.75 M0 32.25 C0 24.17, 0 16.08, 0 10.75 M0 10.75 C0 3.58, 3.58 0, 10.75 0 M0 10.75 C0 3.58, 3.58 0, 10.75 0" stroke="#1e1e1e" stroke-width="2" fill="none"></path></g><g transform="translate(836.5909763385539 148.30201203107518) rotate(0 4.94140625 12.5)"><text x="4.94140625" y="20.400390625" font-family="Muyao, Segoe UI Emoji" font-size="20px" fill="#1e1e1e" text-anchor="middle" style="white-space: pre;" direction="ltr" dominant-baseline="alphabetic">2</text></g><g stroke-linecap="round" transform="translate(875.6003771417768 139.30201203107518) rotate(0 34 21.5)"><path d="M10.75 0 C28.31 0, 45.86 0, 57.25 0 C64.42 0, 68 3.58, 68 10.75 C68 17.63, 68 24.51, 68 32.25 C68 39.42, 64.42 43, 57.25 43 C41.86 43, 26.47 43, 10.75 43 C3.58 43, 0 39.42, 0 32.25 C0 27.75, 0 23.24, 0 10.75 C0 3.58, 3.58 0, 10.75 0" stroke="none" stroke-width="0" fill="#b2f2bb"></path><path d="M10.75 0 C23.02 0, 35.29 0, 57.25 0 M10.75 0 C28.85 0, 46.96 0, 57.25 0 M57.25 0 C64.42 0, 68 3.58, 68 10.75 M57.25 0 C64.42 0, 68 3.58, 68 10.75 M68 10.75 C68 16.17, 68 21.59, 68 32.25 M68 10.75 C68 18.37, 68 25.99, 68 32.25 M68 32.25 C68 39.42, 64.42 43, 57.25 43 M68 32.25 C68 39.42, 64.42 43, 57.25 43 M57.25 43 C41.78 43, 26.31 43, 10.75 43 M57.25 43 C39.44 43, 21.63 43, 10.75 43 M10.75 43 C3.58 43, 0 39.42, 0 32.25 M10.75 43 C3.58 43, 0 39.42, 0 32.25 M0 32.25 C0 26.75, 0 21.25, 0 10.75 M0 32.25 C0 27.48, 0 22.72, 0 10.75 M0 10.75 C0 3.58, 3.58 0, 10.75 0 M0 10.75 C0 3.58, 3.58 0, 10.75 0" stroke="#1e1e1e" stroke-width="2" fill="none"></path></g><g transform="translate(904.5222521417768 148.30201203107518) rotate(0 5.078125 12.5)"><text x="5.078125" y="20.400390625" font-family="Muyao, Segoe UI Emoji" font-size="20px" fill="#1e1e1e" text-anchor="middle" style="white-space: pre;" direction="ltr" dominant-baseline="alphabetic">4</text></g><g stroke-linecap="round" transform="translate(943.6683716950001 139.30201203107518) rotate(0 34 21.5)"><path d="M10.75 0 C27.33 0, 43.91 0, 57.25 0 C64.42 0, 68 3.58, 68 10.75 C68 16.48, 68 22.21, 68 32.25 C68 39.42, 64.42 43, 57.25 43 C46.74 43, 36.23 43, 10.75 43 C3.58 43, 0 39.42, 0 32.25 C0 24.29, 0 16.33, 0 10.75 C0 3.58, 3.58 0, 10.75 0" stroke="none" stroke-width="0" fill="#e9ecef"></path><path d="M10.75 0 C21.71 0, 32.66 0, 57.25 0 M10.75 0 C21.63 0, 32.5 0, 57.25 0 M57.25 0 C64.42 0, 68 3.58, 68 10.75 M57.25 0 C64.42 0, 68 3.58, 68 10.75 M68 10.75 C68 15.65, 68 20.55, 68 32.25 M68 10.75 C68 17.7, 68 24.65, 68 32.25 M68 32.25 C68 39.42, 64.42 43, 57.25 43 M68 32.25 C68 39.42, 64.42 43, 57.25 43 M57.25 43 C45.38 43, 33.51 43, 10.75 43 M57.25 43 C45.95 43, 34.66 43, 10.75 43 M10.75 43 C3.58 43, 0 39.42, 0 32.25 M10.75 43 C3.58 43, 0 39.42, 0 32.25 M0 32.25 C0 25.85, 0 19.45, 0 10.75 M0 32.25 C0 25.62, 0 19, 0 10.75 M0 10.75 C0 3.58, 3.58 0, 10.75 0 M0 10.75 C0 3.58, 3.58 0, 10.75 0" stroke="#1e1e1e" stroke-width="2" fill="none"></path></g><g stroke-linecap="round" transform="translate(1011.736366248223 139.30201203107518) rotate(0 34 21.5)"><path d="M10.75 0 C23.14 0, 35.52 0, 57.25 0 C64.42 0, 68 3.58, 68 10.75 C68 15.89, 68 21.03, 68 32.25 C68 39.42, 64.42 43, 57.25 43 C43.46 43, 29.67 43, 10.75 43 C3.58 43, 0 39.42, 0 32.25 C0 26.5, 0 20.75, 0 10.75 C0 3.58, 3.58 0, 10.75 0" stroke="none" stroke-width="0" fill="#e9ecef"></path><path d="M10.75 0 C23.12 0, 35.5 0, 57.25 0 M10.75 0 C25.26 0, 39.76 0, 57.25 0 M57.25 0 C64.42 0, 68 3.58, 68 10.75 M57.25 0 C64.42 0, 68 3.58, 68 10.75 M68 10.75 C68 17.59, 68 24.43, 68 32.25 M68 10.75 C68 16.22, 68 21.7, 68 32.25 M68 32.25 C68 39.42, 64.42 43, 57.25 43 M68 32.25 C68 39.42, 64.42 43, 57.25 43 M57.25 43 C44.46 43, 31.66 43, 10.75 43 M57.25 43 C45.04 43, 32.82 43, 10.75 43 M10.75 43 C3.58 43, 0 39.42, 0 32.25 M10.75 43 C3.58 43, 0 39.42, 0 32.25 M0 32.25 C0 23.79, 0 15.34, 0 10.75 M0 32.25 C0 27.45, 0 22.64, 0 10.75 M0 10.75 C0 3.58, 3.58 0, 10.75 0 M0 10.75 C0 3.58, 3.58 0, 10.75 0" stroke="#1e1e1e" stroke-width="2" fill="none"></path></g><g stroke-linecap="round" transform="translate(1079.8043608014464 139.30201203107518) rotate(0 34 21.5)"><path d="M10.75 0 C21.16 0, 31.58 0, 57.25 0 C64.42 0, 68 3.58, 68 10.75 C68 16.76, 68 22.77, 68 32.25 C68 39.42, 64.42 43, 57.25 43 C42.61 43, 27.96 43, 10.75 43 C3.58 43, 0 39.42, 0 32.25 C0 27.31, 0 22.38, 0 10.75 C0 3.58, 3.58 0, 10.75 0" stroke="none" stroke-width="0" fill="#e9ecef"></path><path d="M10.75 0 C22.66 0, 34.58 0, 57.25 0 M10.75 0 C22.18 0, 33.61 0, 57.25 0 M57.25 0 C64.42 0, 68 3.58, 68 10.75 M57.25 0 C64.42 0, 68 3.58, 68 10.75 M68 10.75 C68 17.57, 68 24.39, 68 32.25 M68 10.75 C68 16.41, 68 22.08, 68 32.25 M68 32.25 C68 39.42, 64.42 43, 57.25 43 M68 32.25 C68 39.42, 64.42 43, 57.25 43 M57.25 43 C47.02 43, 36.79 43, 10.75 43 M57.25 43 C45.18 43, 33.11 43, 10.75 43 M10.75 43 C3.58 43, 0 39.42, 0 32.25 M10.75 43 C3.58 43, 0 39.42, 0 32.25 M0 32.25 C0 26.99, 0 21.73, 0 10.75 M0 32.25 C0 23.73, 0 15.2, 0 10.75 M0 10.75 C0 3.58, 3.58 0, 10.75 0 M0 10.75 C0 3.58, 3.58 0, 10.75 0" stroke="#1e1e1e" stroke-width="2" fill="none"></path></g><g stroke-linecap="round" transform="translate(1147.8723553546693 139.30201203107518) rotate(0 34 21.5)"><path d="M10.75 0 C22.39 0, 34.03 0, 57.25 0 C64.42 0, 68 3.58, 68 10.75 C68 18.31, 68 25.88, 68 32.25 C68 39.42, 64.42 43, 57.25 43 C39.6 43, 21.94 43, 10.75 43 C3.58 43, 0 39.42, 0 32.25 C0 25.04, 0 17.83, 0 10.75 C0 3.58, 3.58 0, 10.75 0" stroke="none" stroke-width="0" fill="#e9ecef"></path><path d="M10.75 0 C25.79 0, 40.82 0, 57.25 0 M10.75 0 C29.29 0, 47.84 0, 57.25 0 M57.25 0 C64.42 0, 68 3.58, 68 10.75 M57.25 0 C64.42 0, 68 3.58, 68 10.75 M68 10.75 C68 16.28, 68 21.8, 68 32.25 M68 10.75 C68 15.79, 68 20.82, 68 32.25 M68 32.25 C68 39.42, 64.42 43, 57.25 43 M68 32.25 C68 39.42, 64.42 43, 57.25 43 M57.25 43 C44.33 43, 31.41 43, 10.75 43 M57.25 43 C41.04 43, 24.84 43, 10.75 43 M10.75 43 C3.58 43, 0 39.42, 0 32.25 M10.75 43 C3.58 43, 0 39.42, 0 32.25 M0 32.25 C0 25.03, 0 17.8, 0 10.75 M0 32.25 C0 24.04, 0 15.83, 0 10.75 M0 10.75 C0 3.58, 3.58 0, 10.75 0 M0 10.75 C0 3.58, 3.58 0, 10.75 0" stroke="#1e1e1e" stroke-width="2" fill="none"></path></g><g stroke-linecap="round" transform="translate(671.3963934821072 184.24459107914592) rotate(0 34 21.5)"><path d="M10.75 0 C28.74 0, 46.73 0, 57.25 0 C64.42 0, 68 3.58, 68 10.75 C68 18.98, 68 27.21, 68 32.25 C68 39.42, 64.42 43, 57.25 43 C39.74 43, 22.22 43, 10.75 43 C3.58 43, 0 39.42, 0 32.25 C0 27.37, 0 22.49, 0 10.75 C0 3.58, 3.58 0, 10.75 0" stroke="none" stroke-width="0" fill="#e9ecef"></path><path d="M10.75 0 C22.51 0, 34.26 0, 57.25 0 M10.75 0 C24.43 0, 38.11 0, 57.25 0 M57.25 0 C64.42 0, 68 3.58, 68 10.75 M57.25 0 C64.42 0, 68 3.58, 68 10.75 M68 10.75 C68 17.74, 68 24.73, 68 32.25 M68 10.75 C68 15.38, 68 20, 68 32.25 M68 32.25 C68 39.42, 64.42 43, 57.25 43 M68 32.25 C68 39.42, 64.42 43, 57.25 43 M57.25 43 C38.94 43, 20.63 43, 10.75 43 M57.25 43 C46.73 43, 36.21 43, 10.75 43 M10.75 43 C3.58 43, 0 39.42, 0 32.25 M10.75 43 C3.58 43, 0 39.42, 0 32.25 M0 32.25 C0 25.17, 0 18.09, 0 10.75 M0 32.25 C0 23.74, 0 15.24, 0 10.75 M0 10.75 C0 3.58, 3.58 0, 10.75 0 M0 10.75 C0 3.58, 3.58 0, 10.75 0" stroke="#1e1e1e" stroke-width="2" fill="none"></path></g><g stroke-linecap="round" transform="translate(739.4643880353306 184.24459107914592) rotate(0 34 21.5)"><path d="M10.75 0 C24.36 0, 37.97 0, 57.25 0 C64.42 0, 68 3.58, 68 10.75 C68 18.24, 68 25.72, 68 32.25 C68 39.42, 64.42 43, 57.25 43 C44.85 43, 32.44 43, 10.75 43 C3.58 43, 0 39.42, 0 32.25 C0 24.34, 0 16.44, 0 10.75 C0 3.58, 3.58 0, 10.75 0" stroke="none" stroke-width="0" fill="#e9ecef"></path><path d="M10.75 0 C27.74 0, 44.72 0, 57.25 0 M10.75 0 C23.45 0, 36.14 0, 57.25 0 M57.25 0 C64.42 0, 68 3.58, 68 10.75 M57.25 0 C64.42 0, 68 3.58, 68 10.75 M68 10.75 C68 17.29, 68 23.82, 68 32.25 M68 10.75 C68 17.81, 68 24.88, 68 32.25 M68 32.25 C68 39.42, 64.42 43, 57.25 43 M68 32.25 C68 39.42, 64.42 43, 57.25 43 M57.25 43 C41.83 43, 26.42 43, 10.75 43 M57.25 43 C47.14 43, 37.02 43, 10.75 43 M10.75 43 C3.58 43, 0 39.42, 0 32.25 M10.75 43 C3.58 43, 0 39.42, 0 32.25 M0 32.25 C0 26.17, 0 20.08, 0 10.75 M0 32.25 C0 25.96, 0 19.67, 0 10.75 M0 10.75 C0 3.58, 3.58 0, 10.75 0 M0 10.75 C0 3.58, 3.58 0, 10.75 0" stroke="#1e1e1e" stroke-width="2" fill="none"></path></g><g stroke-linecap="round" transform="translate(807.5323825885534 184.24459107914592) rotate(0 34 21.5)"><path d="M10.75 0 C24.12 0, 37.48 0, 57.25 0 C64.42 0, 68 3.58, 68 10.75 C68 18.03, 68 25.3, 68 32.25 C68 39.42, 64.42 43, 57.25 43 C42.6 43, 27.95 43, 10.75 43 C3.58 43, 0 39.42, 0 32.25 C0 24.08, 0 15.91, 0 10.75 C0 3.58, 3.58 0, 10.75 0" stroke="none" stroke-width="0" fill="#e9ecef"></path><path d="M10.75 0 C21.3 0, 31.86 0, 57.25 0 M10.75 0 C22.66 0, 34.57 0, 57.25 0 M57.25 0 C64.42 0, 68 3.58, 68 10.75 M57.25 0 C64.42 0, 68 3.58, 68 10.75 M68 10.75 C68 17.2, 68 23.65, 68 32.25 M68 10.75 C68 18.11, 68 25.48, 68 32.25 M68 32.25 C68 39.42, 64.42 43, 57.25 43 M68 32.25 C68 39.42, 64.42 43, 57.25 43 M57.25 43 C44.01 43, 30.78 43, 10.75 43 M57.25 43 C46.97 43, 36.68 43, 10.75 43 M10.75 43 C3.58 43, 0 39.42, 0 32.25 M10.75 43 C3.58 43, 0 39.42, 0 32.25 M0 32.25 C0 25.23, 0 18.2, 0 10.75 M0 32.25 C0 27.26, 0 22.27, 0 10.75 M0 10.75 C0 3.58, 3.58 0, 10.75 0 M0 10.75 C0 3.58, 3.58 0, 10.75 0" stroke="#1e1e1e" stroke-width="2" fill="none"></path></g><g stroke-linecap="round" transform="translate(875.6003771417768 184.24459107914592) rotate(0 34 21.5)"><path d="M10.75 0 C22.36 0, 33.96 0, 57.25 0 C64.42 0, 68 3.58, 68 10.75 C68 17.55, 68 24.36, 68 32.25 C68 39.42, 64.42 43, 57.25 43 C44.93 43, 32.61 43, 10.75 43 C3.58 43, 0 39.42, 0 32.25 C0 24.64, 0 17.03, 0 10.75 C0 3.58, 3.58 0, 10.75 0" stroke="none" stroke-width="0" fill="#e9ecef"></path><path d="M10.75 0 C22.97 0, 35.19 0, 57.25 0 M10.75 0 C23.81 0, 36.86 0, 57.25 0 M57.25 0 C64.42 0, 68 3.58, 68 10.75 M57.25 0 C64.42 0, 68 3.58, 68 10.75 M68 10.75 C68 15.93, 68 21.11, 68 32.25 M68 10.75 C68 15.65, 68 20.55, 68 32.25 M68 32.25 C68 39.42, 64.42 43, 57.25 43 M68 32.25 C68 39.42, 64.42 43, 57.25 43 M57.25 43 C42.2 43, 27.15 43, 10.75 43 M57.25 43 C45.58 43, 33.92 43, 10.75 43 M10.75 43 C3.58 43, 0 39.42, 0 32.25 M10.75 43 C3.58 43, 0 39.42, 0 32.25 M0 32.25 C0 27.63, 0 23.01, 0 10.75 M0 32.25 C0 26.23, 0 20.2, 0 10.75 M0 10.75 C0 3.58, 3.58 0, 10.75 0 M0 10.75 C0 3.58, 3.58 0, 10.75 0" stroke="#1e1e1e" stroke-width="2" fill="none"></path></g><g stroke-linecap="round" transform="translate(943.6683716950001 184.24459107914592) rotate(0 34 21.5)"><path d="M10.75 0 C28.88 0, 47.02 0, 57.25 0 C64.42 0, 68 3.58, 68 10.75 C68 16.97, 68 23.2, 68 32.25 C68 39.42, 64.42 43, 57.25 43 C42.65 43, 28.04 43, 10.75 43 C3.58 43, 0 39.42, 0 32.25 C0 24.68, 0 17.1, 0 10.75 C0 3.58, 3.58 0, 10.75 0" stroke="none" stroke-width="0" fill="#e9ecef"></path><path d="M10.75 0 C26.68 0, 42.61 0, 57.25 0 M10.75 0 C22.25 0, 33.74 0, 57.25 0 M57.25 0 C64.42 0, 68 3.58, 68 10.75 M57.25 0 C64.42 0, 68 3.58, 68 10.75 M68 10.75 C68 15.49, 68 20.23, 68 32.25 M68 10.75 C68 18.2, 68 25.66, 68 32.25 M68 32.25 C68 39.42, 64.42 43, 57.25 43 M68 32.25 C68 39.42, 64.42 43, 57.25 43 M57.25 43 C42.96 43, 28.66 43, 10.75 43 M57.25 43 C41.46 43, 25.67 43, 10.75 43 M10.75 43 C3.58 43, 0 39.42, 0 32.25 M10.75 43 C3.58 43, 0 39.42, 0 32.25 M0 32.25 C0 27.69, 0 23.12, 0 10.75 M0 32.25 C0 26.88, 0 21.5, 0 10.75 M0 10.75 C0 3.58, 3.58 0, 10.75 0 M0 10.75 C0 3.58, 3.58 0, 10.75 0" stroke="#1e1e1e" stroke-width="2" fill="none"></path></g><g stroke-linecap="round" transform="translate(1011.736366248223 184.24459107914592) rotate(0 34 21.5)"><path d="M10.75 0 C20.85 0, 30.96 0, 57.25 0 C64.42 0, 68 3.58, 68 10.75 C68 17.05, 68 23.35, 68 32.25 C68 39.42, 64.42 43, 57.25 43 C39.59 43, 21.92 43, 10.75 43 C3.58 43, 0 39.42, 0 32.25 C0 25.93, 0 19.62, 0 10.75 C0 3.58, 3.58 0, 10.75 0" stroke="none" stroke-width="0" fill="#e9ecef"></path><path d="M10.75 0 C26.86 0, 42.97 0, 57.25 0 M10.75 0 C24.84 0, 38.94 0, 57.25 0 M57.25 0 C64.42 0, 68 3.58, 68 10.75 M57.25 0 C64.42 0, 68 3.58, 68 10.75 M68 10.75 C68 18.6, 68 26.45, 68 32.25 M68 10.75 C68 17.98, 68 25.21, 68 32.25 M68 32.25 C68 39.42, 64.42 43, 57.25 43 M68 32.25 C68 39.42, 64.42 43, 57.25 43 M57.25 43 C45.66 43, 34.06 43, 10.75 43 M57.25 43 C42.2 43, 27.15 43, 10.75 43 M10.75 43 C3.58 43, 0 39.42, 0 32.25 M10.75 43 C3.58 43, 0 39.42, 0 32.25 M0 32.25 C0 24.53, 0 16.8, 0 10.75 M0 32.25 C0 23.94, 0 15.63, 0 10.75 M0 10.75 C0 3.58, 3.58 0, 10.75 0 M0 10.75 C0 3.58, 3.58 0, 10.75 0" stroke="#1e1e1e" stroke-width="2" fill="none"></path></g><g stroke-linecap="round" transform="translate(1079.804360801446 184.24459107914592) rotate(0 34 21.5)"><path d="M10.75 0 C20.23 0, 29.71 0, 57.25 0 C64.42 0, 68 3.58, 68 10.75 C68 16.69, 68 22.62, 68 32.25 C68 39.42, 64.42 43, 57.25 43 C44.92 43, 32.59 43, 10.75 43 C3.58 43, 0 39.42, 0 32.25 C0 24.96, 0 17.67, 0 10.75 C0 3.58, 3.58 0, 10.75 0" stroke="none" stroke-width="0" fill="#e9ecef"></path><path d="M10.75 0 C21.49 0, 32.22 0, 57.25 0 M10.75 0 C25.99 0, 41.24 0, 57.25 0 M57.25 0 C64.42 0, 68 3.58, 68 10.75 M57.25 0 C64.42 0, 68 3.58, 68 10.75 M68 10.75 C68 19.34, 68 27.93, 68 32.25 M68 10.75 C68 17.06, 68 23.38, 68 32.25 M68 32.25 C68 39.42, 64.42 43, 57.25 43 M68 32.25 C68 39.42, 64.42 43, 57.25 43 M57.25 43 C39.47 43, 21.69 43, 10.75 43 M57.25 43 C42.01 43, 26.76 43, 10.75 43 M10.75 43 C3.58 43, 0 39.42, 0 32.25 M10.75 43 C3.58 43, 0 39.42, 0 32.25 M0 32.25 C0 27.13, 0 22, 0 10.75 M0 32.25 C0 24.7, 0 17.15, 0 10.75 M0 10.75 C0 3.58, 3.58 0, 10.75 0 M0 10.75 C0 3.58, 3.58 0, 10.75 0" stroke="#1e1e1e" stroke-width="2" fill="none"></path></g><g stroke-linecap="round" transform="translate(1147.8723553546693 184.24459107914592) rotate(0 34 21.5)"><path d="M10.75 0 C27.09 0, 43.42 0, 57.25 0 C64.42 0, 68 3.58, 68 10.75 C68 16.87, 68 22.98, 68 32.25 C68 39.42, 64.42 43, 57.25 43 C42.18 43, 27.11 43, 10.75 43 C3.58 43, 0 39.42, 0 32.25 C0 24.22, 0 16.18, 0 10.75 C0 3.58, 3.58 0, 10.75 0" stroke="none" stroke-width="0" fill="#e9ecef"></path><path d="M10.75 0 C29.06 0, 47.37 0, 57.25 0 M10.75 0 C25.49 0, 40.22 0, 57.25 0 M57.25 0 C64.42 0, 68 3.58, 68 10.75 M57.25 0 C64.42 0, 68 3.58, 68 10.75 M68 10.75 C68 17.45, 68 24.14, 68 32.25 M68 10.75 C68 16.35, 68 21.96, 68 32.25 M68 32.25 C68 39.42, 64.42 43, 57.25 43 M68 32.25 C68 39.42, 64.42 43, 57.25 43 M57.25 43 C42.13 43, 27.01 43, 10.75 43 M57.25 43 C41.03 43, 24.82 43, 10.75 43 M10.75 43 C3.58 43, 0 39.42, 0 32.25 M10.75 43 C3.58 43, 0 39.42, 0 32.25 M0 32.25 C0 27.11, 0 21.96, 0 10.75 M0 32.25 C0 25.69, 0 19.13, 0 10.75 M0 10.75 C0 3.58, 3.58 0, 10.75 0 M0 10.75 C0 3.58, 3.58 0, 10.75 0" stroke="#1e1e1e" stroke-width="2" fill="none"></path></g><g stroke-linecap="round" transform="translate(671.3963934821072 229.18717012721666) rotate(0 34 21.5)"><path d="M10.75 0 C28.87 0, 46.98 0, 57.25 0 C64.42 0, 68 3.58, 68 10.75 C68 18.68, 68 26.62, 68 32.25 C68 39.42, 64.42 43, 57.25 43 C42.35 43, 27.46 43, 10.75 43 C3.58 43, 0 39.42, 0 32.25 C0 23.75, 0 15.24, 0 10.75 C0 3.58, 3.58 0, 10.75 0" stroke="none" stroke-width="0" fill="#e9ecef"></path><path d="M10.75 0 C28.82 0, 46.88 0, 57.25 0 M10.75 0 C21.68 0, 32.61 0, 57.25 0 M57.25 0 C64.42 0, 68 3.58, 68 10.75 M57.25 0 C64.42 0, 68 3.58, 68 10.75 M68 10.75 C68 18.89, 68 27.04, 68 32.25 M68 10.75 C68 19.09, 68 27.42, 68 32.25 M68 32.25 C68 39.42, 64.42 43, 57.25 43 M68 32.25 C68 39.42, 64.42 43, 57.25 43 M57.25 43 C44.35 43, 31.45 43, 10.75 43 M57.25 43 C43.11 43, 28.96 43, 10.75 43 M10.75 43 C3.58 43, 0 39.42, 0 32.25 M10.75 43 C3.58 43, 0 39.42, 0 32.25 M0 32.25 C0 24.79, 0 17.34, 0 10.75 M0 32.25 C0 24.82, 0 17.4, 0 10.75 M0 10.75 C0 3.58, 3.58 0, 10.75 0 M0 10.75 C0 3.58, 3.58 0, 10.75 0" stroke="#1e1e1e" stroke-width="2" fill="none"></path></g><g stroke-linecap="round" transform="translate(739.4643880353306 229.18717012721666) rotate(0 34 21.5)"><path d="M10.75 0 C28.67 0, 46.59 0, 57.25 0 C64.42 0, 68 3.58, 68 10.75 C68 16.34, 68 21.94, 68 32.25 C68 39.42, 64.42 43, 57.25 43 C40.94 43, 24.62 43, 10.75 43 C3.58 43, 0 39.42, 0 32.25 C0 24.82, 0 17.4, 0 10.75 C0 3.58, 3.58 0, 10.75 0" stroke="none" stroke-width="0" fill="#e9ecef"></path><path d="M10.75 0 C22.95 0, 35.15 0, 57.25 0 M10.75 0 C25.21 0, 39.68 0, 57.25 0 M57.25 0 C64.42 0, 68 3.58, 68 10.75 M57.25 0 C64.42 0, 68 3.58, 68 10.75 M68 10.75 C68 18.44, 68 26.13, 68 32.25 M68 10.75 C68 16.76, 68 22.77, 68 32.25 M68 32.25 C68 39.42, 64.42 43, 57.25 43 M68 32.25 C68 39.42, 64.42 43, 57.25 43 M57.25 43 C47.78 43, 38.3 43, 10.75 43 M57.25 43 C45.23 43, 33.21 43, 10.75 43 M10.75 43 C3.58 43, 0 39.42, 0 32.25 M10.75 43 C3.58 43, 0 39.42, 0 32.25 M0 32.25 C0 25.89, 0 19.52, 0 10.75 M0 32.25 C0 25.27, 0 18.29, 0 10.75 M0 10.75 C0 3.58, 3.58 0, 10.75 0 M0 10.75 C0 3.58, 3.58 0, 10.75 0" stroke="#1e1e1e" stroke-width="2" fill="none"></path></g><g stroke-linecap="round" transform="translate(807.5323825885534 229.18717012721666) rotate(0 34 21.5)"><path d="M10.75 0 C26.02 0, 41.29 0, 57.25 0 C64.42 0, 68 3.58, 68 10.75 C68 16.27, 68 21.78, 68 32.25 C68 39.42, 64.42 43, 57.25 43 C38.78 43, 20.31 43, 10.75 43 C3.58 43, 0 39.42, 0 32.25 C0 24.3, 0 16.36, 0 10.75 C0 3.58, 3.58 0, 10.75 0" stroke="none" stroke-width="0" fill="#e9ecef"></path><path d="M10.75 0 C20.45 0, 30.14 0, 57.25 0 M10.75 0 C25.43 0, 40.11 0, 57.25 0 M57.25 0 C64.42 0, 68 3.58, 68 10.75 M57.25 0 C64.42 0, 68 3.58, 68 10.75 M68 10.75 C68 16.15, 68 21.56, 68 32.25 M68 10.75 C68 18.95, 68 27.15, 68 32.25 M68 32.25 C68 39.42, 64.42 43, 57.25 43 M68 32.25 C68 39.42, 64.42 43, 57.25 43 M57.25 43 C46.85 43, 36.46 43, 10.75 43 M57.25 43 C47.33 43, 37.41 43, 10.75 43 M10.75 43 C3.58 43, 0 39.42, 0 32.25 M10.75 43 C3.58 43, 0 39.42, 0 32.25 M0 32.25 C0 27.94, 0 23.63, 0 10.75 M0 32.25 C0 25.65, 0 19.05, 0 10.75 M0 10.75 C0 3.58, 3.58 0, 10.75 0 M0 10.75 C0 3.58, 3.58 0, 10.75 0" stroke="#1e1e1e" stroke-width="2" fill="none"></path></g><g stroke-linecap="round" transform="translate(875.6003771417768 229.18717012721666) rotate(0 34 21.5)"><path d="M10.75 0 C23.31 0, 35.88 0, 57.25 0 C64.42 0, 68 3.58, 68 10.75 C68 17.49, 68 24.23, 68 32.25 C68 39.42, 64.42 43, 57.25 43 C38.89 43, 20.54 43, 10.75 43 C3.58 43, 0 39.42, 0 32.25 C0 27.26, 0 22.28, 0 10.75 C0 3.58, 3.58 0, 10.75 0" stroke="none" stroke-width="0" fill="#e9ecef"></path><path d="M10.75 0 C27.03 0, 43.31 0, 57.25 0 M10.75 0 C23.13 0, 35.51 0, 57.25 0 M57.25 0 C64.42 0, 68 3.58, 68 10.75 M57.25 0 C64.42 0, 68 3.58, 68 10.75 M68 10.75 C68 17.29, 68 23.83, 68 32.25 M68 10.75 C68 17.74, 68 24.73, 68 32.25 M68 32.25 C68 39.42, 64.42 43, 57.25 43 M68 32.25 C68 39.42, 64.42 43, 57.25 43 M57.25 43 C41.29 43, 25.33 43, 10.75 43 M57.25 43 C42.14 43, 27.04 43, 10.75 43 M10.75 43 C3.58 43, 0 39.42, 0 32.25 M10.75 43 C3.58 43, 0 39.42, 0 32.25 M0 32.25 C0 24.32, 0 16.39, 0 10.75 M0 32.25 C0 24.03, 0 15.81, 0 10.75 M0 10.75 C0 3.58, 3.58 0, 10.75 0 M0 10.75 C0 3.58, 3.58 0, 10.75 0" stroke="#1e1e1e" stroke-width="2" fill="none"></path></g><g stroke-linecap="round" transform="translate(943.6683716949997 229.18717012721666) rotate(0 34 21.5)"><path d="M10.75 0 C22.43 0, 34.12 0, 57.25 0 C64.42 0, 68 3.58, 68 10.75 C68 16.65, 68 22.54, 68 32.25 C68 39.42, 64.42 43, 57.25 43 C39.14 43, 21.03 43, 10.75 43 C3.58 43, 0 39.42, 0 32.25 C0 25.54, 0 18.82, 0 10.75 C0 3.58, 3.58 0, 10.75 0" stroke="none" stroke-width="0" fill="#e9ecef"></path><path d="M10.75 0 C25.23 0, 39.72 0, 57.25 0 M10.75 0 C24.08 0, 37.4 0, 57.25 0 M57.25 0 C64.42 0, 68 3.58, 68 10.75 M57.25 0 C64.42 0, 68 3.58, 68 10.75 M68 10.75 C68 19, 68 27.24, 68 32.25 M68 10.75 C68 18.87, 68 26.99, 68 32.25 M68 32.25 C68 39.42, 64.42 43, 57.25 43 M68 32.25 C68 39.42, 64.42 43, 57.25 43 M57.25 43 C47.32 43, 37.39 43, 10.75 43 M57.25 43 C47.4 43, 37.54 43, 10.75 43 M10.75 43 C3.58 43, 0 39.42, 0 32.25 M10.75 43 C3.58 43, 0 39.42, 0 32.25 M0 32.25 C0 26.3, 0 20.35, 0 10.75 M0 32.25 C0 27.29, 0 22.32, 0 10.75 M0 10.75 C0 3.58, 3.58 0, 10.75 0 M0 10.75 C0 3.58, 3.58 0, 10.75 0" stroke="#1e1e1e" stroke-width="2" fill="none"></path></g><g stroke-linecap="round" transform="translate(1011.736366248223 229.18717012721666) rotate(0 34 21.5)"><path d="M10.75 0 C23.12 0, 35.49 0, 57.25 0 C64.42 0, 68 3.58, 68 10.75 C68 16.22, 68 21.68, 68 32.25 C68 39.42, 64.42 43, 57.25 43 C47.8 43, 38.35 43, 10.75 43 C3.58 43, 0 39.42, 0 32.25 C0 26, 0 19.75, 0 10.75 C0 3.58, 3.58 0, 10.75 0" stroke="none" stroke-width="0" fill="#e9ecef"></path><path d="M10.75 0 C28.59 0, 46.43 0, 57.25 0 M10.75 0 C28.97 0, 47.18 0, 57.25 0 M57.25 0 C64.42 0, 68 3.58, 68 10.75 M57.25 0 C64.42 0, 68 3.58, 68 10.75 M68 10.75 C68 16.03, 68 21.3, 68 32.25 M68 10.75 C68 17.74, 68 24.73, 68 32.25 M68 32.25 C68 39.42, 64.42 43, 57.25 43 M68 32.25 C68 39.42, 64.42 43, 57.25 43 M57.25 43 C43.48 43, 29.71 43, 10.75 43 M57.25 43 C41.4 43, 25.54 43, 10.75 43 M10.75 43 C3.58 43, 0 39.42, 0 32.25 M10.75 43 C3.58 43, 0 39.42, 0 32.25 M0 32.25 C0 27.27, 0 22.29, 0 10.75 M0 32.25 C0 27.76, 0 23.27, 0 10.75 M0 10.75 C0 3.58, 3.58 0, 10.75 0 M0 10.75 C0 3.58, 3.58 0, 10.75 0" stroke="#1e1e1e" stroke-width="2" fill="none"></path></g><g stroke-linecap="round" transform="translate(1079.8043608014464 229.18717012721666) rotate(0 34 21.5)"><path d="M10.75 0 C26.04 0, 41.32 0, 57.25 0 C64.42 0, 68 3.58, 68 10.75 C68 17.76, 68 24.77, 68 32.25 C68 39.42, 64.42 43, 57.25 43 C38.66 43, 20.08 43, 10.75 43 C3.58 43, 0 39.42, 0 32.25 C0 25.09, 0 17.94, 0 10.75 C0 3.58, 3.58 0, 10.75 0" stroke="none" stroke-width="0" fill="#e9ecef"></path><path d="M10.75 0 C28.88 0, 47 0, 57.25 0 M10.75 0 C28.06 0, 45.36 0, 57.25 0 M57.25 0 C64.42 0, 68 3.58, 68 10.75 M57.25 0 C64.42 0, 68 3.58, 68 10.75 M68 10.75 C68 17.2, 68 23.64, 68 32.25 M68 10.75 C68 16.28, 68 21.8, 68 32.25 M68 32.25 C68 39.42, 64.42 43, 57.25 43 M68 32.25 C68 39.42, 64.42 43, 57.25 43 M57.25 43 C41.97 43, 26.69 43, 10.75 43 M57.25 43 C42.83 43, 28.41 43, 10.75 43 M10.75 43 C3.58 43, 0 39.42, 0 32.25 M10.75 43 C3.58 43, 0 39.42, 0 32.25 M0 32.25 C0 24.96, 0 17.66, 0 10.75 M0 32.25 C0 25.1, 0 17.95, 0 10.75 M0 10.75 C0 3.58, 3.58 0, 10.75 0 M0 10.75 C0 3.58, 3.58 0, 10.75 0" stroke="#1e1e1e" stroke-width="2" fill="none"></path></g><g stroke-linecap="round" transform="translate(1147.8723553546693 229.18717012721666) rotate(0 34 21.5)"><path d="M10.75 0 C21.88 0, 33 0, 57.25 0 C64.42 0, 68 3.58, 68 10.75 C68 17.26, 68 23.77, 68 32.25 C68 39.42, 64.42 43, 57.25 43 C40.98 43, 24.72 43, 10.75 43 C3.58 43, 0 39.42, 0 32.25 C0 24.23, 0 16.22, 0 10.75 C0 3.58, 3.58 0, 10.75 0" stroke="none" stroke-width="0" fill="#e9ecef"></path><path d="M10.75 0 C22.44 0, 34.12 0, 57.25 0 M10.75 0 C28.34 0, 45.94 0, 57.25 0 M57.25 0 C64.42 0, 68 3.58, 68 10.75 M57.25 0 C64.42 0, 68 3.58, 68 10.75 M68 10.75 C68 16.7, 68 22.65, 68 32.25 M68 10.75 C68 16.15, 68 21.54, 68 32.25 M68 32.25 C68 39.42, 64.42 43, 57.25 43 M68 32.25 C68 39.42, 64.42 43, 57.25 43 M57.25 43 C43.76 43, 30.27 43, 10.75 43 M57.25 43 C46.38 43, 35.52 43, 10.75 43 M10.75 43 C3.58 43, 0 39.42, 0 32.25 M10.75 43 C3.58 43, 0 39.42, 0 32.25 M0 32.25 C0 24.32, 0 16.39, 0 10.75 M0 32.25 C0 24.47, 0 16.69, 0 10.75 M0 10.75 C0 3.58, 3.58 0, 10.75 0 M0 10.75 C0 3.58, 3.58 0, 10.75 0" stroke="#1e1e1e" stroke-width="2" fill="none"></path></g><g transform="translate(671.3963934821072 40.611834793624965) rotate(0 28 17.500000000000007)"><text x="0" y="28.560546875" font-family="Muyao, Segoe UI Emoji" font-size="28px" fill="#1e1e1e" text-anchor="start" style="white-space: pre;" direction="ltr" dominant-baseline="alphabetic">存储</text></g><g transform="translate(725.5110936948163 40.611834793624965) rotate(0 28 17.500000000000007)"><text x="0" y="28.560546875" font-family="Muyao, Segoe UI Emoji" font-size="28px" fill="#2f9e44" text-anchor="start" style="white-space: pre;" direction="ltr" dominant-baseline="alphabetic">数组</text></g><g transform="translate(777.6424767020967 40.611834793624965) rotate(0 84 17.500000000000007)"><text x="0" y="28.560546875" font-family="Muyao, Segoe UI Emoji" font-size="28px" fill="#1e1e1e" text-anchor="start" style="white-space: pre;" direction="ltr" dominant-baseline="alphabetic">的内存空间是</text></g><g transform="translate(939.8885599220862 40.611834793624965) rotate(0 28 17.500000000000007)"><text x="0" y="28.560546875" font-family="Muyao, Segoe UI Emoji" font-size="28px" fill="#fa5252" text-anchor="start" style="white-space: pre;" direction="ltr" dominant-baseline="alphabetic">连续</text></g><g transform="translate(994.297312389207 40.611834793624965) rotate(0 14 17.500000000000007)"><text x="0" y="28.560546875" font-family="Muyao, Segoe UI Emoji" font-size="28px" fill="#1e1e1e" text-anchor="start" style="white-space: pre;" direction="ltr" dominant-baseline="alphabetic">的</text></g><g stroke-linecap="round" transform="translate(671.3963934821072 325.576094874668) rotate(0 34 21.5)"><path d="M10.75 0 C21.91 0, 33.07 0, 57.25 0 C64.42 0, 68 3.58, 68 10.75 C68 15.1, 68 19.45, 68 32.25 C68 39.42, 64.42 43, 57.25 43 C41.6 43, 25.95 43, 10.75 43 C3.58 43, 0 39.42, 0 32.25 C0 24.49, 0 16.72, 0 10.75 C0 3.58, 3.58 0, 10.75 0" stroke="none" stroke-width="0" fill="#e9ecef"></path><path d="M10.75 0 C27.13 0, 43.5 0, 57.25 0 M10.75 0 C20.1 0, 29.44 0, 57.25 0 M57.25 0 C64.42 0, 68 3.58, 68 10.75 M57.25 0 C64.42 0, 68 3.58, 68 10.75 M68 10.75 C68 16.22, 68 21.69, 68 32.25 M68 10.75 C68 17.6, 68 24.46, 68 32.25 M68 32.25 C68 39.42, 64.42 43, 57.25 43 M68 32.25 C68 39.42, 64.42 43, 57.25 43 M57.25 43 C44.18 43, 31.12 43, 10.75 43 M57.25 43 C45.88 43, 34.5 43, 10.75 43 M10.75 43 C3.58 43, 0 39.42, 0 32.25 M10.75 43 C3.58 43, 0 39.42, 0 32.25 M0 32.25 C0 25.96, 0 19.67, 0 10.75 M0 32.25 C0 24.38, 0 16.5, 0 10.75 M0 10.75 C0 3.58, 3.58 0, 10.75 0 M0 10.75 C0 3.58, 3.58 0, 10.75 0" stroke="#1e1e1e" stroke-width="2" fill="none"></path></g><g transform="translate(752.2264225123363 329.576094874668) rotate(0 84 17.5)"><text x="0" y="28.560546875" font-family="Muyao, Segoe UI Emoji" font-size="28px" fill="#868e96" text-anchor="start" style="white-space: pre;" direction="ltr" dominant-baseline="alphabetic">可用内存空间</text></g><g transform="translate(752.2264225123363 396.41046445008794) rotate(0 140 17.5)"><text x="0" y="28.560546875" font-family="Muyao, Segoe UI Emoji" font-size="28px" fill="#868e96" text-anchor="start" style="white-space: pre;" direction="ltr" dominant-baseline="alphabetic">划分给数组的内存空间</text></g><g stroke-linecap="round" transform="translate(671.3963934821072 392.41046445008794) rotate(0 34 21.5)"><path d="M10.75 0 C21.28 0, 31.8 0, 57.25 0 C64.42 0, 68 3.58, 68 10.75 C68 16.91, 68 23.07, 68 32.25 C68 39.42, 64.42 43, 57.25 43 C42.28 43, 27.32 43, 10.75 43 C3.58 43, 0 39.42, 0 32.25 C0 27.69, 0 23.13, 0 10.75 C0 3.58, 3.58 0, 10.75 0" stroke="none" stroke-width="0" fill="#b2f2bb"></path><path d="M10.75 0 C24.33 0, 37.91 0, 57.25 0 M10.75 0 C27.57 0, 44.39 0, 57.25 0 M57.25 0 C64.42 0, 68 3.58, 68 10.75 M57.25 0 C64.42 0, 68 3.58, 68 10.75 M68 10.75 C68 16.4, 68 22.04, 68 32.25 M68 10.75 C68 16.31, 68 21.88, 68 32.25 M68 32.25 C68 39.42, 64.42 43, 57.25 43 M68 32.25 C68 39.42, 64.42 43, 57.25 43 M57.25 43 C38.99 43, 20.74 43, 10.75 43 M57.25 43 C42.6 43, 27.95 43, 10.75 43 M10.75 43 C3.58 43, 0 39.42, 0 32.25 M10.75 43 C3.58 43, 0 39.42, 0 32.25 M0 32.25 C0 27.33, 0 22.42, 0 10.75 M0 32.25 C0 25.57, 0 18.89, 0 10.75 M0 10.75 C0 3.58, 3.58 0, 10.75 0 M0 10.75 C0 3.58, 3.58 0, 10.75 0" stroke="#1e1e1e" stroke-width="2" fill="none"></path></g><g stroke-linecap="round"><g transform="translate(512.3465981605741 169.0075230442045) rotate(0 41.92269496468418 0.5175641353664844)"><path d="M0 0 C13.97 0.17, 69.87 0.86, 83.85 1.04 M0 0 C13.97 0.17, 69.87 0.86, 83.85 1.04" stroke="#868e96" stroke-width="4" fill="none"></path></g><g transform="translate(512.3465981605741 169.0075230442045) rotate(0 41.92269496468418 0.5175641353664844)"><path d="M0 0 L13.67 -6.17 L13.52 6.51 L0 0" stroke="none" stroke-width="0" fill="#868e96" fill-rule="evenodd"></path><path d="M0 0 C4.36 -1.97, 8.71 -3.93, 13.67 -6.17 M0 0 C3.86 -1.74, 7.71 -3.48, 13.67 -6.17 M13.67 -6.17 C13.63 -2.72, 13.59 0.74, 13.52 6.51 M13.67 -6.17 C13.63 -2.95, 13.59 0.27, 13.52 6.51 M13.52 6.51 C8.63 4.16, 3.75 1.81, 0 0 M13.52 6.51 C8.41 4.05, 3.31 1.59, 0 0 M0 0 C0 0, 0 0, 0 0 M0 0 C0 0, 0 0, 0 0" stroke="#868e96" stroke-width="4" fill="none"></path></g><g transform="translate(512.3465981605741 169.0075230442045) rotate(0 41.92269496468418 0.5175641353664844)"><path d="M83.85 1.04 L70.17 7.21 L70.33 -5.47 L83.85 1.04" stroke="none" stroke-width="0" fill="#868e96" fill-rule="evenodd"></path><path d="M83.85 1.04 C79.49 3, 75.14 4.97, 70.17 7.21 M83.85 1.04 C79.99 2.78, 76.13 4.52, 70.17 7.21 M70.17 7.21 C70.22 3.75, 70.26 0.3, 70.33 -5.47 M70.17 7.21 C70.21 3.98, 70.25 0.76, 70.33 -5.47 M70.33 -5.47 C75.21 -3.12, 80.09 -0.77, 83.85 1.04 M70.33 -5.47 C75.43 -3.01, 80.54 -0.56, 83.85 1.04 M83.85 1.04 C83.85 1.04, 83.85 1.04, 83.85 1.04 M83.85 1.04 C83.85 1.04, 83.85 1.04, 83.85 1.04" stroke="#868e96" stroke-width="4" fill="none"></path></g></g><mask></mask></svg>