<svg version="1.1" xmlns="http://www.w3.org/2000/svg" viewBox="0 0 627.5208621649621 708.4545593261719" width="627.5208621649621" height="708.4545593261719">
  <!-- svg-source:excalidraw -->
  
  <defs>
    <style class="style-fonts">
      @font-face {
        font-family: "Virgil";
        src: url("https://excalidraw.com/Virgil.woff2");
      }
      @font-face {
        font-family: "Cascadia";
        src: url("https://excalidraw.com/Cascadia.woff2");
      }
    </style>
    
  </defs>
  <rect x="0" y="0" width="627.5208621649621" height="708.4545593261719" fill="#ffffff"></rect><g stroke-linecap="round" transform="translate(10 57.909088134765625) rotate(0 111.77273559570312 30)"><path d="M1.59 0.58 C66.77 -0.21, 135.3 -2.21, 223.6 -1.33 M-0.68 0.43 C62.99 0.76, 125.92 0.5, 224.21 0.48 M222.97 -1.46 C222.51 16.05, 222.62 28.54, 224.09 59.89 M223.8 -0.39 C222.51 22.6, 223.83 42.52, 222.8 60.61 M221.89 60.05 C143.88 58.92, 66.36 59.01, 1.14 60.51 M223.98 60.22 C161 59, 98.2 59.59, -0.03 60.34 M0.27 58.06 C1.03 35.17, -1.5 13.59, 1.28 0.65 M-0.4 59.86 C-1.16 37.77, -1.05 16.88, -0.27 0.08" stroke="#000000" stroke-width="1" fill="none"></path></g><g transform="translate(26.264923095703125 62.909088134765625) rotate(0 95.5078125 25)"><text x="95.5078125" y="0" font-family="Muyao, Segoe UI Emoji" font-size="20px" fill="#000000" text-anchor="middle" style="white-space: pre;" direction="ltr" dominant-baseline="text-before-edge"></text><text x="95.5078125" y="25" font-family="Muyao, Segoe UI Emoji" font-size="20px" fill="#000000" text-anchor="middle" style="white-space: pre;" direction="ltr" dominant-baseline="text-before-edge">Application 应用程序</text></g><g stroke-linecap="round" transform="translate(337.18182373046875 10) rotate(0 140.16951921724666 320.9369174760739)"><path d="M-1.27 -0.81 C93.57 -2.54, 186.77 -1.54, 279.36 -1.21 M280.14 -0.68 C280.7 225.1, 279.63 448.55, 280.09 641.64 M280.07 641.42 C217.14 643.38, 154.03 642.84, -0.3 642.26 M0.42 641.23 C1.44 474.88, 2.47 306.58, -0.12 -0.77" stroke="#000000" stroke-width="1.5" fill="none" stroke-dasharray="1.5 7"></path></g><g stroke-linecap="round" transform="translate(379.06174105757293 47.60645637535886) rotate(0 96.15287141426984 33.33299542361354)"><path d="M0.07 -1.54 C69.51 0.78, 138.46 -0.57, 193.31 -0.2 M0.78 0.55 C46.65 0.68, 94.12 1.35, 191.58 -0.23 M192.85 -0.11 C193.41 24.12, 191.79 50.38, 191.52 65.08 M191.56 0.61 C193.2 25.86, 192.5 51.6, 192.33 66.45 M193.63 67.26 C143.03 65.5, 94.37 66.9, 0.52 66.93 M192.27 67.06 C154 66.22, 113.48 66.27, -0.97 67.21 M1.28 67.32 C1.75 51.69, -1.02 34.34, -0.28 -1.86 M-0.27 66.75 C-0.44 50.35, 0.67 32.3, -0.05 0.77" stroke="#000000" stroke-width="1" fill="none"></path></g><g transform="translate(424.3285117027998 59.572147040245774) rotate(0 50.88610076904297 21.367304758726625)"><text x="50.88610076904297" y="0" font-family="Muyao, Segoe UI Emoji" font-size="17.0938438069813px" fill="#000000" text-anchor="middle" style="white-space: pre;" direction="ltr" dominant-baseline="text-before-edge">Load Driver  </text><text x="50.88610076904297" y="21.367304758726625" font-family="Muyao, Segoe UI Emoji" font-size="17.0938438069813px" fill="#000000" text-anchor="middle" style="white-space: pre;" direction="ltr" dominant-baseline="text-before-edge">加载驱动</text></g><g stroke-linecap="round" transform="translate(379.4890871527475 170.68213178562422) rotate(0 96.15287141426978 33.33299542361354)"><path d="M-1.28 -1.58 C43.85 0.02, 84.62 -0.29, 190.6 1.55 M-0.31 -0.29 C67.59 1.62, 137.37 1.68, 192.01 0.27 M191.91 0.51 C191.93 18.06, 194.6 40.35, 190.7 65.17 M192.15 -0.96 C192.7 23.83, 192.21 48.91, 191.9 67.33 M192.13 67.67 C129.41 66.56, 63.57 66.23, -0.55 66.6 M191.94 66.8 C126.12 67.37, 61.23 66.1, 0.35 67.31 M-1.5 65.86 C-0.7 42.64, -1.31 20.71, 0.9 -0.54 M0.13 66.35 C0.6 46.9, 0.1 26.12, 0.75 -0.38" stroke="#000000" stroke-width="1" fill="none"></path></g><g transform="translate(407.49896082531814 182.64782245051114) rotate(0 68.14299774169916 21.367304758726632)"><text x="68.14299774169922" y="0" font-family="Muyao, Segoe UI Emoji" font-size="17.0938438069813px" fill="#000000" text-anchor="middle" style="white-space: pre;" direction="ltr" dominant-baseline="text-before-edge">Open Connection  </text><text x="68.14299774169922" y="21.367304758726625" font-family="Muyao, Segoe UI Emoji" font-size="17.0938438069813px" fill="#000000" text-anchor="middle" style="white-space: pre;" direction="ltr" dominant-baseline="text-before-edge">打开连接</text></g><g stroke-linecap="round" transform="translate(379.4890871527475 298.03126814763493) rotate(0 96.15287141426978 33.33299542361354)"><path d="M-1.09 -0.51 C40.78 1.74, 86.08 -0.95, 190.38 -0.62 M0.74 -0.17 C51.88 0.71, 104.29 1.05, 191.9 -0.2 M194.19 1.05 C190.44 20.2, 193.26 44.48, 191.46 66.36 M191.85 0.81 C191.92 14.26, 192.62 26.99, 192.11 66.58 M190.39 66.6 C124.39 66.86, 58.36 68.77, 0.16 65.93 M191.67 65.94 C132.34 68.35, 72 68.34, 0.39 65.91 M-0.89 65.04 C0.99 48.8, 0.25 30.07, 1.42 0.25 M-0.55 67.2 C0.78 48.41, -0.66 30.06, -0.91 0.03" stroke="#000000" stroke-width="1" fill="none"></path></g><g transform="translate(398.7703841651619 309.9969588125218) rotate(0 76.87157440185541 21.367304758726632)"><text x="76.87157440185547" y="0" font-family="Muyao, Segoe UI Emoji" font-size="17.0938438069813px" fill="#000000" text-anchor="middle" style="white-space: pre;" direction="ltr" dominant-baseline="text-before-edge">Execute Statement  </text><text x="76.87157440185547" y="21.367304758726625" font-family="Muyao, Segoe UI Emoji" font-size="17.0938438069813px" fill="#000000" text-anchor="middle" style="white-space: pre;" direction="ltr" dominant-baseline="text-before-edge">执行语句</text></g><g stroke-linecap="round" transform="translate(379.4890871527475 424.5257123192966) rotate(0 96.15287141426978 33.33299542361354)"><path d="M1.11 -1.14 C50.87 -2.11, 105.02 -2.95, 191.85 1.48 M-0.05 0.61 C53.94 -0.72, 108.96 -0.91, 191.51 0.94 M193.52 1.09 C190.93 23.2, 189.85 47.06, 191.87 65.75 M192.6 -0.2 C191.84 25.28, 192.54 50.99, 192.44 65.71 M193.09 68.52 C135.38 65.87, 78.4 64.66, 1.08 65.39 M192.63 67.3 C148.97 67.15, 104.44 67.76, -0.93 66.22 M0.16 64.71 C1.12 52.33, -0.94 37.39, 1.55 -1.1 M-0.69 65.81 C-1.4 43.15, 0.23 18.91, 0.62 -0.36" stroke="#000000" stroke-width="1" fill="none"></path></g><g transform="translate(401.3572524512947 436.4914029841835) rotate(0 74.2847061157226 21.36730475872662)"><text x="74.28470611572266" y="0" font-family="Muyao, Segoe UI Emoji" font-size="17.0938438069813px" fill="#000000" text-anchor="middle" style="white-space: pre;" direction="ltr" dominant-baseline="text-before-edge">Process ResultSet  </text><text x="74.28470611572266" y="21.367304758726625" font-family="Muyao, Segoe UI Emoji" font-size="17.0938438069813px" fill="#000000" text-anchor="middle" style="white-space: pre;" direction="ltr" dominant-baseline="text-before-edge">处理结果集</text></g><g stroke-linecap="round" transform="translate(377.7797027720493 556.1483096330526) rotate(0 96.15287141426984 33.33299542361357)"><path d="M-0.57 -1.46 C46.23 2.08, 93.03 0.01, 192.85 -0.11 M0.25 -0.39 C68.63 1.32, 139.36 -0.42, 191.56 0.61 M190.38 0.05 C191.59 22.73, 193.64 46.48, 193.63 67.26 M192.81 0.26 C192.31 17.73, 192.15 37.1, 192.27 67.06 M192.58 64.72 C117.89 64.69, 39.86 66.66, 1.28 67.32 M191.9 66.53 C121.55 64.77, 51.84 65.67, -0.27 66.75 M-0.64 66.57 C1.08 52.07, 0.59 41.17, -0.77 -1.39 M0.72 66.01 C1.22 52.03, -0.24 37.42, -0.16 -0.11" stroke="#000000" stroke-width="1" fill="none"></path></g><g transform="translate(402.86892977713944 568.1140002979395) rotate(0 71.06364440917969 21.36730475872662)"><text x="71.06364440917969" y="0" font-family="Muyao, Segoe UI Emoji" font-size="17.0938438069813px" fill="#000000" text-anchor="middle" style="white-space: pre;" direction="ltr" dominant-baseline="text-before-edge">Close Connection  </text><text x="71.06364440917969" y="21.367304758726625" font-family="Muyao, Segoe UI Emoji" font-size="17.0938438069813px" fill="#000000" text-anchor="middle" style="white-space: pre;" direction="ltr" dominant-baseline="text-before-edge">关闭连接</text></g><g transform="translate(410.6853521004882 677.0872545674453) rotate(0 63.25056072719934 10.68365237936331)"><text x="0" y="0" font-family="Muyao, Segoe UI Emoji" font-size="17.0938438069813px" fill="#000000" text-anchor="start" style="white-space: pre;" direction="ltr" dominant-baseline="text-before-edge">JDBC 访问数据库</text></g><g stroke-linecap="round"><g transform="translate(470.5138054249227 121.10998474537845) rotate(0 0.6532941978726967 21.459190622651025)"><path d="M-0.35 0.33 C-0.37 7.61, 0.67 36.44, 0.79 43.47 M1.66 -0.55 C1.4 6.41, 0.2 34.36, -0.19 41.73" stroke="#000000" stroke-width="1" fill="none"></path></g><g transform="translate(470.5138054249227 121.10998474537845) rotate(0 0.6532941978726967 21.459190622651025)"><path d="M-6 21.22 C-2.98 28.16, -2.22 37.11, -0.97 40.14 M-7.29 21.93 C-3.39 29, -1.58 36.5, -0.16 41.51" stroke="#000000" stroke-width="1" fill="none"></path></g><g transform="translate(470.5138054249227 121.10998474537845) rotate(0 0.6532941978726967 21.459190622651025)"><path d="M8.6 21.91 C6.16 28.54, 1.46 37.24, -0.97 40.14 M7.31 22.62 C5.46 29.3, 1.51 36.53, -0.16 41.51" stroke="#000000" stroke-width="1" fill="none"></path></g></g><mask></mask><g stroke-linecap="round"><g transform="translate(470.5138054249227 243.33096796529478) rotate(0 -0.5977569142398806 23.69867359376225)"><path d="M-0.06 0.73 C0.06 8.33, 0.16 38.42, 0.36 45.91 M-1.56 0.07 C-1.61 7.82, -1.19 39.55, -0.84 47.33" stroke="#000000" stroke-width="1" fill="none"></path></g><g transform="translate(470.5138054249227 243.33096796529478) rotate(0 -0.5977569142398806 23.69867359376225)"><path d="M-8.08 25.03 C-7.35 32.17, -5.45 35.89, 1.04 48.38 M-8.75 25.43 C-7.75 29.56, -5.72 35.02, -1.3 48.13" stroke="#000000" stroke-width="1" fill="none"></path></g><g transform="translate(470.5138054249227 243.33096796529478) rotate(0 -0.5977569142398806 23.69867359376225)"><path d="M7.7 24.62 C4.16 31.86, 1.8 35.69, 1.04 48.38 M7.03 25.02 C4.56 29.33, 3.13 34.89, -1.3 48.13" stroke="#000000" stroke-width="1" fill="none"></path></g></g><mask></mask><g stroke-linecap="round"><g transform="translate(467.9497288538756 373.2441808983527) rotate(0 1.1892298962324048 22.35577049944078)"><path d="M-0.49 -0.24 C0 7.11, 2.52 37.05, 2.87 44.83 M1.45 -1.41 C1.82 6.04, 1.66 38.44, 2.08 46.12" stroke="#000000" stroke-width="1" fill="none"></path></g><g transform="translate(467.9497288538756 373.2441808983527) rotate(0 1.1892298962324048 22.35577049944078)"><path d="M-6.52 25.48 C-4.36 29.65, 0.73 38.52, 0.48 44.62 M-6.27 24.01 C-3.02 32.42, -0.54 41.07, 1.68 46.78" stroke="#000000" stroke-width="1" fill="none"></path></g><g transform="translate(467.9497288538756 373.2441808983527) rotate(0 1.1892298962324048 22.35577049944078)"><path d="M9 25.16 C6.59 29.36, 7.1 38.33, 0.48 44.62 M9.24 23.69 C6.9 32.14, 3.78 40.92, 1.68 46.78" stroke="#000000" stroke-width="1" fill="none"></path></g></g><mask></mask><g stroke-linecap="round"><g transform="translate(470.5138054249227 503.15739383141056) rotate(0 -1.1782584956139317 23.616352742426926)"><path d="M0.31 -0.47 C-0.06 7.74, -2.43 41.1, -2.66 48.99 M-0.99 -1.76 C-0.94 6.16, -0.36 39.22, -0.45 47.46" stroke="#000000" stroke-width="1" fill="none"></path></g><g transform="translate(470.5138054249227 503.15739383141056) rotate(0 -1.1782584956139317 23.616352742426926)"><path d="M-9.54 23.42 C-4.77 31.86, -6.1 35.13, 0.77 48.56 M-8.74 24.79 C-7.11 31.68, -4.91 37.33, -0.15 47.27" stroke="#000000" stroke-width="1" fill="none"></path></g><g transform="translate(470.5138054249227 503.15739383141056) rotate(0 -1.1782584956139317 23.616352742426926)"><path d="M6.84 23.33 C7.37 31.83, 1.79 35.13, 0.77 48.56 M7.64 24.7 C5.04 31.46, 3.02 37.13, -0.15 47.27" stroke="#000000" stroke-width="1" fill="none"></path></g></g><mask></mask><g stroke-linecap="round"><g transform="translate(241.54547119140625 90.06976023097465) rotate(0 40.657211804762426 -0.0695738487626425)"><path d="M-0.95 1.13 C12.71 1, 68.65 -1.15, 82.27 -1.27 M0.75 0.68 C14.28 0.71, 67.91 0.13, 81.65 -0.24" stroke="#000000" stroke-width="1" fill="none"></path></g><g transform="translate(241.54547119140625 90.06976023097465) rotate(0 40.657211804762426 -0.0695738487626425)"><path d="M55.53 11.56 C61.19 5.74, 73.13 4.83, 80.81 -0.54 M53.18 11.32 C58.95 9.05, 65.36 5.99, 81.46 -0.33" stroke="#000000" stroke-width="1" fill="none"></path></g><g transform="translate(241.54547119140625 90.06976023097465) rotate(0 40.657211804762426 -0.0695738487626425)"><path d="M55.17 -8.95 C60.87 -8.1, 72.92 -2.33, 80.81 -0.54 M52.83 -9.2 C58.67 -7.29, 65.15 -6.16, 81.46 -0.33" stroke="#000000" stroke-width="1" fill="none"></path></g></g><mask></mask></svg>