<svg version="1.1" xmlns="http://www.w3.org/2000/svg" viewBox="0 0 878.5577487708908 268.5301614772762" width="878.5577487708908" height="268.5301614772762">
  <!-- svg-source:excalidraw -->
  
  <defs>
    <style class="style-fonts">
      @font-face {
        font-family: "Virgil";
        src: url("https://excalidraw.com/Virgil.woff2");
      }
      @font-face {
        font-family: "Cascadia";
        src: url("https://excalidraw.com/Cascadia.woff2");
      }
    </style>
    
  </defs>
  <rect x="0" y="0" width="878.5577487708908" height="268.5301614772762" fill="#ffffff"></rect><g stroke-linecap="round" transform="translate(10 50.80311708414388) rotate(0 20.781717182423137 22.00417113433035)"><path d="M-1.83 -1.8 C9.78 -0.19, 21.78 -1.59, 39.99 -0.95 M0.82 0.23 C10.3 0.66, 19.8 1.16, 41 -0.58 M40.9 0.42 C41.29 15.63, 42.48 34.57, 41.69 44.06 M41.12 0.37 C42.24 10.43, 42.4 20.92, 41.93 43.75 M41.24 43.45 C30.38 45.34, 22.69 43.49, 1.88 45.46 M41.74 43.63 C30.19 44.52, 21 44.54, 0.02 43.76 M-0.12 43.45 C1.36 33.58, 0.48 21.51, 0.73 -0.57 M-0.89 44.55 C-0.17 28.59, 0.84 12.48, -0.29 -0.05" stroke="#000000" stroke-width="4" fill="none"></path></g><g transform="translate(25.664529682423108 60.30728821847424) rotate(0 5.1171875 12.5)"><text x="5.1171875" y="0" font-family="Muyao, Segoe UI Emoji" font-size="20px" fill="#1e1e1e" text-anchor="middle" style="white-space: pre;" direction="ltr" dominant-baseline="text-before-edge">a</text></g><g stroke-linecap="round" transform="translate(51.56343436484758 50.80311708414388) rotate(0 20.781717182423137 22.00417113433035)"><path d="M-1.45 -0.43 C9.39 -1.46, 18.57 -0.58, 40.16 1.87 M0.75 0.37 C10.25 0.78, 18.56 -0.67, 42.51 -0.17 M41.36 -1.73 C42.41 16.23, 41.55 32.82, 40.51 44.69 M42.09 -0.47 C42.05 10.09, 41.73 21.64, 40.77 43.91 M39.56 45.12 C26.35 43.15, 14.03 45.34, -0.84 42.33 M40.9 44.34 C28.2 44.21, 13.14 43.6, -0.48 44.47 M1.56 44.67 C0.71 31.11, 0.76 18.26, 1.21 -1.84 M-0.57 44.45 C0.82 29.03, 0.1 13.64, 0.39 -0.29" stroke="#000000" stroke-width="4" fill="none"></path></g><g transform="translate(68.94671404727069 60.30728821847424) rotate(0 3.3984375 12.5)"><text x="3.3984375" y="0" font-family="Muyao, Segoe UI Emoji" font-size="20px" fill="#1e1e1e" text-anchor="middle" style="white-space: pre;" direction="ltr" dominant-baseline="text-before-edge">1</text></g><g stroke-linecap="round" transform="translate(93.18289786915875 50.80311708414388) rotate(0 20.781717182423108 22.00417113433035)"><path d="M-0.68 -1.83 C7.16 -0.87, 16.06 1.96, 40.16 1.65 M0.69 0.87 C12.86 -0.73, 27.79 -0.32, 42.29 -0.33 M42.55 -0.16 C41.65 14.17, 40.47 28.91, 40.54 43.11 M42.25 -0.86 C42.16 14.58, 41.01 29.58, 42.1 43.84 M41.06 43.27 C32.13 45.69, 18.09 42.56, 0.84 44.37 M42.43 44.37 C30.69 43.9, 19.29 44.61, -0.14 43.95 M0.69 43.7 C0.39 31.46, 0.86 18.21, 0.89 -1.77 M0.43 44.19 C-0.04 28.36, 0.64 12.52, -0.46 0.78" stroke="#000000" stroke-width="4" fill="none"></path></g><g transform="translate(110.56617755158186 60.30728821847424) rotate(0 3.3984375 12.5)"><text x="3.3984375" y="0" font-family="Muyao, Segoe UI Emoji" font-size="20px" fill="#1e1e1e" text-anchor="middle" style="white-space: pre;" direction="ltr" dominant-baseline="text-before-edge">1</text></g><g stroke-linecap="round" transform="translate(10 95.06406237932583) rotate(0 20.781717182423137 22.004171134330363)"><path d="M-1.58 -0.95 C10.18 2.25, 21.76 2.03, 42.02 1.5 M-0.56 -0.58 C14.93 -0.53, 28.7 -0.69, 41.77 -0.1 M41.69 0.05 C40.73 10.08, 40.76 17.91, 42.31 45.07 M41.93 -0.26 C41.07 11.05, 42.4 22.12, 41.29 43.01 M43.44 45.46 C25.95 42.17, 12.87 44.22, -0.76 42.69 M41.58 43.76 C27.22 44.62, 13.7 44.1, -0.28 44.79 M0.73 43.44 C1.06 27.5, 0.74 12.91, 1.09 -1.15 M-0.29 43.96 C0.2 28.58, -0.65 14.52, 0.53 -0.48" stroke="#000000" stroke-width="4" fill="none"></path></g><g transform="translate(26.113748432423108 104.5682335136562) rotate(0 4.66796875 12.5)"><text x="4.66796875" y="0" font-family="Muyao, Segoe UI Emoji" font-size="20px" fill="#1e1e1e" text-anchor="middle" style="white-space: pre;" direction="ltr" dominant-baseline="text-before-edge">b</text></g><g stroke-linecap="round" transform="translate(51.56343436484758 95.06406237932583) rotate(0 20.781717182423137 22.004171134330363)"><path d="M-1.4 1.87 C7.26 1.85, 17.78 1.7, 42.29 1.39 M0.94 -0.17 C16.81 -0.09, 32.39 0.14, 40.7 0.5 M40.51 0.68 C40.57 11.96, 42.34 26.78, 40.63 45.38 M40.77 -0.1 C42.26 9.23, 41.45 17.8, 42.12 43.76 M40.72 42.33 C31.47 44.67, 18.93 42.99, 0.67 45.73 M41.08 44.47 C27.46 43.84, 13.36 44.69, 0.33 44.35 M1.21 42.17 C0.73 29.72, 0.93 17.83, 0.88 0.86 M0.39 43.72 C-0.33 30.8, 0.65 15.54, -0.62 0.91" stroke="#000000" stroke-width="4" fill="none"></path></g><g transform="translate(68.94671404727069 104.5682335136562) rotate(0 3.3984375 12.5)"><text x="3.3984375" y="0" font-family="Muyao, Segoe UI Emoji" font-size="20px" fill="#1e1e1e" text-anchor="middle" style="white-space: pre;" direction="ltr" dominant-baseline="text-before-edge">1</text></g><g stroke-linecap="round" transform="translate(93.18289786915875 95.06406237932583) rotate(0 20.781717182423108 22.004171134330363)"><path d="M-1.4 1.65 C10.94 1.11, 21.7 1, 43.31 -1.12 M0.72 -0.33 C10.27 -0.03, 19.27 0.57, 41.49 0.06 M40.54 -0.89 C42.08 14.38, 40.4 28.01, 39.83 44.74 M42.1 -0.16 C40.94 11.05, 41.77 23.84, 41.19 44.95 M42.41 44.37 C25.32 42.34, 11.27 45.38, 0.72 44.05 M41.42 43.95 C29.84 44.98, 19.01 44.54, -0.16 44.37 M0.89 42.23 C0.82 30.91, 0.61 20.96, 0.36 -0.59 M-0.46 44.79 C0.35 30.53, -0.79 18.92, -0.82 0.19" stroke="#000000" stroke-width="4" fill="none"></path></g><g transform="translate(109.02320880158186 104.5682335136562) rotate(0 4.94140625 12.5)"><text x="4.94140625" y="0" font-family="Muyao, Segoe UI Emoji" font-size="20px" fill="#1e1e1e" text-anchor="middle" style="white-space: pre;" direction="ltr" dominant-baseline="text-before-edge">2</text></g><g stroke-linecap="round" transform="translate(10 139.32500767450438) rotate(0 20.781717182423137 22.004171134330363)"><path d="M0.46 1.5 C17.08 1.04, 34.45 -1.47, 40.41 1.89 M0.21 -0.1 C10.9 0.63, 23.45 0.2, 41.59 -0.52 M42.31 1.06 C40.4 16.07, 39.61 30.13, 41.04 42.43 M41.29 -1 C42.35 12.52, 41.43 26.49, 42.29 43.59 M40.81 42.69 C33.26 45.81, 24.33 44.13, -0.49 43.05 M41.29 44.79 C27.51 44.33, 12.64 44.35, -0.28 44.61 M1.09 42.86 C0.68 35.72, 0.16 25.12, -0.09 0.78 M0.53 43.53 C-0.42 32.99, -0.61 20.35, 0.46 0.5" stroke="#000000" stroke-width="4" fill="none"></path></g><g transform="translate(26.504373432423108 148.82917880883474) rotate(0 4.27734375 12.5)"><text x="4.27734375" y="0" font-family="Muyao, Segoe UI Emoji" font-size="20px" fill="#1e1e1e" text-anchor="middle" style="white-space: pre;" direction="ltr" dominant-baseline="text-before-edge">c</text></g><g stroke-linecap="round" transform="translate(51.56343436484758 139.32500767450438) rotate(0 20.781717182423137 22.004171134330363)"><path d="M0.73 1.39 C17.64 -1.43, 30.63 1.58, 41.22 1.45 M-0.86 0.5 C11.02 0.11, 22.22 -0.48, 41.9 -0.51 M40.63 1.37 C40 11.96, 41.2 20.89, 41.37 45.09 M42.12 -0.25 C41.07 13.42, 42.17 24.54, 40.72 44.43 M42.23 45.73 C29.06 43.78, 14.62 42.77, 0.92 43.73 M41.89 44.35 C29.19 44.7, 16.85 44.94, -0.92 44.45 M0.88 44.87 C0.12 34.12, -0.33 26.19, -0.58 -0.92 M-0.62 44.92 C-1.05 27.55, 0.23 11.21, -0.47 0.48" stroke="#000000" stroke-width="4" fill="none"></path></g><g transform="translate(68.94671404727069 148.82917880883474) rotate(0 3.3984375 12.5)"><text x="3.3984375" y="0" font-family="Muyao, Segoe UI Emoji" font-size="20px" fill="#1e1e1e" text-anchor="middle" style="white-space: pre;" direction="ltr" dominant-baseline="text-before-edge">1</text></g><g stroke-linecap="round" transform="translate(93.18289786915875 139.32500767450438) rotate(0 20.781717182423108 22.004171134330363)"><path d="M1.74 -1.12 C14.43 1.6, 30.83 1.16, 40.9 0.42 M-0.08 0.06 C12.08 -0.73, 24.45 -0.72, 41.12 0.37 M39.83 0.73 C40.83 13.95, 41.16 32.14, 41.24 43.45 M41.19 0.94 C42.53 8.38, 40.97 18.03, 41.74 43.63 M42.28 44.05 C31.34 43.41, 23.03 44.09, -0.12 43.45 M41.41 44.37 C25.56 44.75, 9.21 44.6, -0.89 44.55 M0.36 43.42 C-0.29 34.11, -0.77 21.73, 1.57 1.05 M-0.82 44.2 C0.74 33.41, -0.2 22.3, 0.87 -0.09" stroke="#000000" stroke-width="4" fill="none"></path></g><g transform="translate(109.55055255158186 148.82917880883474) rotate(0 4.4140625 12.5)"><text x="4.4140625" y="0" font-family="Muyao, Segoe UI Emoji" font-size="20px" fill="#1e1e1e" text-anchor="middle" style="white-space: pre;" direction="ltr" dominant-baseline="text-before-edge">3</text></g><g stroke-linecap="round" transform="translate(249.49578070404118 93.4507105216797) rotate(0 20.781717182423108 22.004171134330363)"><path d="M-1.37 1.32 C14.18 0.23, 28.1 1.12, 43.04 -1.28 M-0.63 -0.81 C14.57 -0.44, 31.49 -0.27, 42.45 -0.15 M40.28 -1.87 C42.33 11.1, 42.64 22.5, 40.13 44.97 M42.52 0.68 C40.72 17.33, 41.2 33.21, 41.13 44.47 M42.8 45.75 C30.36 45.5, 17.13 42.53, -1.61 43.57 M40.6 43.21 C26.17 45, 11.9 44.06, 0.44 44.15 M0.38 45.24 C0.01 34.29, -0.28 25.07, -0.8 -0.12 M-0.64 43.79 C0.57 30.49, -0.19 18.1, 0.26 -0.27" stroke="#000000" stroke-width="4" fill="none"></path></g><g stroke-linecap="round" transform="translate(291.05921506888876 93.4507105216797) rotate(0 20.781717182423108 22.004171134330363)"><path d="M-0.78 1.38 C16.7 -1.38, 31.9 0.01, 41.41 -1.26 M0.5 -0.3 C9.99 0.04, 18 -0.67, 40.98 -0.64 M43.03 -1.99 C40.38 10.05, 43.47 16.33, 42.99 45.92 M41.6 -0.46 C40.93 16.67, 41.11 33.23, 42.54 44.63 M39.91 42.12 C23.87 43.79, 10.4 45.72, 0.19 42.09 M41.05 44.02 C32.86 44.55, 22.37 44.3, -0.62 44.2 M-0.33 43.38 C-0.79 27.98, 0.01 13.59, 0.54 -1.27 M0.12 44.49 C-0.13 31.49, -1.24 19.09, -0.31 0.48" stroke="#000000" stroke-width="4" fill="none"></path></g><g transform="translate(307.42686975131187 102.95488165601006) rotate(0 4.4140625 12.5)"><text x="4.4140625" y="0" font-family="Muyao, Segoe UI Emoji" font-size="20px" fill="#1e1e1e" text-anchor="middle" style="white-space: pre;" direction="ltr" dominant-baseline="text-before-edge">3</text></g><g stroke-linecap="round" transform="translate(332.67867857319993 93.4507105216797) rotate(0 20.781717182423108 22.004171134330363)"><path d="M1.46 0.11 C15.18 -0.99, 29.04 -1.58, 40.62 1 M-0.22 -0.87 C10.63 -0.58, 21.49 0.64, 40.99 0.73 M43.21 -1.84 C42.67 10.74, 42.62 16.79, 42.55 44.09 M41.3 0.8 C42.35 11.78, 42.24 22.42, 42.11 43.18 M42.58 45.5 C33.19 42, 22.85 42.28, 1.91 42.98 M40.64 43.9 C28.44 44.26, 17.16 44.05, -0.28 43.84 M0 45.41 C0.71 30.92, -0.26 22.13, -0.64 0.24 M-0.85 43.59 C-0.43 29.16, 0.09 14.09, 0.82 0.21" stroke="#000000" stroke-width="4" fill="none"></path></g><g transform="translate(348.47992700562304 102.95488165601006) rotate(0 4.98046875 12.5)"><text x="4.98046875" y="0" font-family="Muyao, Segoe UI Emoji" font-size="20px" fill="#1e1e1e" text-anchor="middle" style="white-space: pre;" direction="ltr" dominant-baseline="text-before-edge">6</text></g><g transform="translate(321.73999812342527 61.16409949291108) rotate(0 24.609375 12.5)"><text x="0" y="0" font-family="Muyao, Segoe UI Emoji" font-size="20px" fill="#1e1e1e" text-anchor="start" style="white-space: pre;" direction="ltr" dominant-baseline="text-before-edge">SUM()</text></g><g stroke-linecap="round"><g transform="translate(137.48037381230176 71.58354253431389) rotate(0 54.15894565190416 20.136066594622292)"><path d="M-1.59 -1.43 C33.18 13.15, 66.39 23.11, 109.91 41.7 M-0.38 -0.65 C23.98 7.87, 47.89 17.1, 108.68 39.34" stroke="#1e1e1e" stroke-width="1" fill="none"></path></g><g transform="translate(137.48037381230176 71.58354253431389) rotate(0 54.15894565190416 20.136066594622292)"><path d="M77.09 37.8 C87.98 39.96, 97.45 37.87, 110 41.01 M78.3 38.58 C85.19 39.03, 91.76 39.45, 108.77 38.65" stroke="#1e1e1e" stroke-width="1" fill="none"></path></g><g transform="translate(137.48037381230176 71.58354253431389) rotate(0 54.15894565190416 20.136066594622292)"><path d="M84.17 18.54 C93 26.48, 100.34 30.2, 110 41.01 M85.38 19.32 C90.78 24.09, 95.78 28.76, 108.77 38.65" stroke="#1e1e1e" stroke-width="1" fill="none"></path></g></g><mask></mask><g stroke-linecap="round"><g transform="translate(138.57715729034408 117.10005687307358) rotate(0 54.157221878241444 -2.2481033435238373)"><path d="M-1.19 1.98 C43.71 0.64, 88.44 -1.77, 107.74 -4.23 M0.67 0.8 C27.87 -1.15, 55.08 -2.29, 109.51 -6.48" stroke="#1e1e1e" stroke-width="1" fill="none"></path></g><g transform="translate(138.57715729034408 117.10005687307358) rotate(0 54.157221878241444 -2.2481033435238373)"><path d="M80.93 7.76 C93.26 3, 105.45 -2.09, 107.57 -5.22 M82.79 6.58 C89.35 2.95, 95.97 0.11, 109.33 -7.47" stroke="#1e1e1e" stroke-width="1" fill="none"></path></g><g transform="translate(138.57715729034408 117.10005687307358) rotate(0 54.157221878241444 -2.2481033435238373)"><path d="M79.46 -12.71 C92.49 -9.37, 105.26 -6.36, 107.57 -5.22 M81.32 -13.89 C88.42 -12.4, 95.4 -10.11, 109.33 -7.47" stroke="#1e1e1e" stroke-width="1" fill="none"></path></g></g><mask></mask><g stroke-linecap="round"><g transform="translate(134.1900233781746 163.71335468987564) rotate(0 57.00160655925964 -26.9148824623893)"><path d="M1.15 -1.82 C41.52 -19.29, 79.71 -34.35, 113.23 -54.17 M-0.88 0.34 C45.26 -20.11, 90.54 -41.32, 114.88 -52.17" stroke="#1e1e1e" stroke-width="1" fill="none"></path></g><g transform="translate(134.1900233781746 163.71335468987564) rotate(0 57.00160655925964 -26.9148824623893)"><path d="M94.61 -33 C102.61 -39.68, 108.69 -43.82, 113.5 -53.7 M92.58 -30.83 C101.62 -39.25, 109.96 -47.91, 115.15 -51.7" stroke="#1e1e1e" stroke-width="1" fill="none"></path></g><g transform="translate(134.1900233781746 163.71335468987564) rotate(0 57.00160655925964 -26.9148824623893)"><path d="M86.12 -51.68 C96.9 -51.91, 105.91 -49.62, 113.5 -53.7 M84.09 -49.52 C96.42 -50.48, 108.12 -51.73, 115.15 -51.7" stroke="#1e1e1e" stroke-width="1" fill="none"></path></g></g><mask></mask><g transform="translate(156.43180084262565 233.53016147727618) rotate(0 40 12.5)"><text x="0" y="0" font-family="Muyao, Segoe UI Emoji" font-size="20px" fill="#1e1e1e" text-anchor="start" style="white-space: pre;" direction="ltr" dominant-baseline="text-before-edge">聚合函数</text></g><g stroke-linecap="round" transform="translate(502.75184041168745 53.83182877571494) rotate(0 20.781717182423108 22.00417113433035)"><path d="M1.48 0.38 C15.81 -1.16, 30.6 -0.79, 43.03 0.45 M0.35 0.17 C11.07 -0.86, 21.65 -0.46, 41.36 0.02 M41.85 -1.33 C41.56 17.04, 42.11 33.05, 42.54 42.1 M41.28 0.23 C42.09 10.64, 42.11 21.69, 42 44.54 M41.74 44.72 C25.15 45.5, 9.97 45.53, 1.34 44.56 M41.92 43.54 C25.83 44.14, 9.84 43.14, 0.91 43.17 M-0.94 44.54 C-2.11 28.35, 1.12 16.37, -1.72 1.68 M-0.5 44.97 C0.65 26.52, -0.37 11.56, -0.52 -0.06" stroke="#000000" stroke-width="4" fill="none"></path></g><g transform="translate(518.4163700941106 63.3359999100453) rotate(0 5.1171875 12.5)"><text x="5.1171875" y="0" font-family="Muyao, Segoe UI Emoji" font-size="20px" fill="#1e1e1e" text-anchor="middle" style="white-space: pre;" direction="ltr" dominant-baseline="text-before-edge">a</text></g><g stroke-linecap="round" transform="translate(544.315274776535 53.83182877571494) rotate(0 20.781717182423108 22.00417113433035)"><path d="M-1.62 -0.52 C14.73 0.63, 25.78 1.44, 42.69 0.7 M-0.17 -0.22 C12.99 0.28, 27.12 0.44, 40.79 0.15 M42.03 0.15 C42.52 8.37, 40.67 19.73, 41.47 43.44 M42.29 -0.85 C42.32 14.75, 42.55 28.46, 41.55 44.1 M40.5 45.53 C28.95 44.87, 15.5 42.42, -0.15 44.71 M42.48 43.17 C31.95 43.24, 20.63 44.57, -0.26 43.54 M1.34 43.77 C-1.3 31.33, 2.02 14.61, -0.22 -1 M-0.52 45 C-0.75 26.52, -0.78 8.72, -0.16 -0.45" stroke="#000000" stroke-width="4" fill="none"></path></g><g transform="translate(561.6985544589581 63.3359999100453) rotate(0 3.3984375 12.5)"><text x="3.3984375" y="0" font-family="Muyao, Segoe UI Emoji" font-size="20px" fill="#1e1e1e" text-anchor="middle" style="white-space: pre;" direction="ltr" dominant-baseline="text-before-edge">1</text></g><g stroke-linecap="round" transform="translate(585.9347382808462 53.83182877571494) rotate(0 20.781717182423108 22.00417113433035)"><path d="M-0.75 1.26 C12.52 0.61, 23.13 0.22, 40.32 -0.34 M0.74 0.18 C10.76 0.14, 22.4 -0.05, 41.86 0.23 M40.69 -0.82 C41.69 12.96, 42.24 28.46, 40.29 45.46 M42.24 0.04 C41.75 9.54, 42.12 18.33, 42.31 43.48 M43.42 42.11 C25.78 44.83, 9.36 45.29, 0.32 45.84 M41.68 44.51 C32.34 43.19, 23.88 42.72, -0.98 44.68 M1.6 43.34 C0.16 30.33, 2.3 19.66, -1.53 -1.04 M-0.55 43.57 C0.07 25.99, 0.49 8.99, -0.95 0.47" stroke="#000000" stroke-width="4" fill="none"></path></g><g transform="translate(603.3180179632693 63.3359999100453) rotate(0 3.3984375 12.5)"><text x="3.3984375" y="0" font-family="Muyao, Segoe UI Emoji" font-size="20px" fill="#1e1e1e" text-anchor="middle" style="white-space: pre;" direction="ltr" dominant-baseline="text-before-edge">1</text></g><g stroke-linecap="round" transform="translate(502.75184041168745 98.0927740708969) rotate(0 20.781717182423108 22.004171134330363)"><path d="M0.35 0.31 C13.85 -0.48, 29.73 -0.55, 41.6 1.48 M-0.66 -0.04 C13.52 0.17, 26.53 0.43, 40.61 -0.44 M42.02 1.41 C40.28 12.84, 39.84 23.67, 42.63 45.35 M41.92 -0.57 C42.3 12.82, 42.32 27.39, 41.84 44.94 M40.63 45.18 C33.36 45.99, 22.82 45.97, -1.67 44.24 M41.83 43.06 C26.04 44.48, 12.36 42.96, 0.84 44.81 M1.92 45.02 C-1.48 31.23, 2.04 19.5, -0.13 -1.11 M0.26 44.14 C-0.88 33.2, 1.03 22.46, 0.74 -0.13" stroke="#000000" stroke-width="4" fill="none"></path></g><g transform="translate(518.8655888441106 107.59694520522726) rotate(0 4.66796875 12.5)"><text x="4.66796875" y="0" font-family="Muyao, Segoe UI Emoji" font-size="20px" fill="#1e1e1e" text-anchor="middle" style="white-space: pre;" direction="ltr" dominant-baseline="text-before-edge">b</text></g><g stroke-linecap="round" transform="translate(544.315274776535 98.0927740708969) rotate(0 20.781717182423108 22.004171134330363)"><path d="M-0.45 -0.41 C13.15 1.55, 26.6 -1.48, 41.85 -1.33 M0.07 0.49 C11.35 -0.54, 24.2 -0.14, 41.28 0.23 M39.86 0.88 C42.35 17.66, 41.35 32.61, 41.74 44.72 M42.33 0.67 C42.17 11.61, 40.94 21.29, 41.92 43.54 M39.88 45.82 C24.99 44.62, 12.76 43.88, -0.94 44.54 M41.44 43.15 C33.87 45.09, 24.15 44.18, -0.5 44.97 M1.99 42.96 C0.21 27.47, -0.54 12.83, -0.89 0.51 M0.96 45.01 C1.15 30.07, 1.2 15.66, 0.73 -0.24" stroke="#000000" stroke-width="4" fill="none"></path></g><g transform="translate(561.6985544589581 107.59694520522726) rotate(0 3.3984375 12.5)"><text x="3.3984375" y="0" font-family="Muyao, Segoe UI Emoji" font-size="20px" fill="#1e1e1e" text-anchor="middle" style="white-space: pre;" direction="ltr" dominant-baseline="text-before-edge">1</text></g><g stroke-linecap="round" transform="translate(585.9347382808462 98.0927740708969) rotate(0 20.781717182423108 22.004171134330363)"><path d="M0.36 -1.55 C11.92 -1.64, 23.17 0.28, 42.03 0.15 M-0.41 -0.04 C14.22 0.41, 29.7 -0.45, 42.29 -0.85 M41.63 -0.02 C41.97 15.86, 40.65 31.78, 40.5 45.53 M40.62 -0.07 C42.04 15.69, 42.27 32.48, 42.48 43.17 M42.56 43.5 C24.39 44.58, 7.21 42.1, 1.34 43.77 M41.23 43.9 C32.16 45.3, 24.26 43.58, -0.52 45 M-0.88 43.69 C-0.87 33.62, 0.3 20.3, 0.93 1.91 M0.78 43.26 C0.41 26.16, -1.19 9.6, -0.96 0.95" stroke="#000000" stroke-width="4" fill="none"></path></g><g transform="translate(601.7750492132693 107.59694520522726) rotate(0 4.94140625 12.5)"><text x="4.94140625" y="0" font-family="Muyao, Segoe UI Emoji" font-size="20px" fill="#1e1e1e" text-anchor="middle" style="white-space: pre;" direction="ltr" dominant-baseline="text-before-edge">2</text></g><g stroke-linecap="round" transform="translate(502.75184041168745 142.35371936607544) rotate(0 20.781717182423108 22.004171134330363)"><path d="M-0.08 0.58 C9.71 0.42, 19.46 -1.63, 40.69 -0.82 M0.71 -0.63 C13.01 -0.95, 25.01 0.44, 42.24 0.04 M40.42 1.49 C40.54 14.69, 42.94 26.89, 43.42 42.11 M42.15 0.16 C42.64 12.03, 42.62 24.91, 41.68 44.51 M39.67 42.05 C31.49 43.88, 17.03 45.8, 1.6 43.34 M42.07 43.24 C29.03 45.4, 17.02 44.34, -0.55 43.57 M0.27 42.1 C1.13 33.42, 2.2 20.48, -0.27 1.55 M-0.86 44.8 C-1.28 35.06, -0.68 24.57, -0.13 -0.92" stroke="#000000" stroke-width="4" fill="none"></path></g><g transform="translate(519.2562138441106 151.8578905004058) rotate(0 4.27734375 12.5)"><text x="4.27734375" y="0" font-family="Muyao, Segoe UI Emoji" font-size="20px" fill="#1e1e1e" text-anchor="middle" style="white-space: pre;" direction="ltr" dominant-baseline="text-before-edge">c</text></g><g stroke-linecap="round" transform="translate(544.315274776535 142.35371936607544) rotate(0 20.781717182423108 22.004171134330363)"><path d="M0.98 -1.91 C12.8 -0.85, 27.28 -0.6, 42.02 1.41 M0.44 0.53 C10.51 0.39, 19.66 0.44, 41.92 -0.57 M42.91 0.56 C43.18 14.59, 41.18 33.67, 40.63 45.18 M42.47 -0.84 C42.08 14.41, 41.71 27.36, 41.83 43.06 M39.85 45.69 C34.76 43.29, 24.54 42.96, 1.92 45.02 M41.04 43.94 C31.72 43.98, 22.82 43.97, 0.26 44.14 M2 45.48 C-0.47 36.55, -1.71 27.45, -0.49 -1.73 M-0.36 44.37 C0.3 26.38, 0.51 10.08, -0.39 0.58" stroke="#000000" stroke-width="4" fill="none"></path></g><g transform="translate(561.6985544589581 151.8578905004058) rotate(0 3.3984375 12.5)"><text x="3.3984375" y="0" font-family="Muyao, Segoe UI Emoji" font-size="20px" fill="#1e1e1e" text-anchor="middle" style="white-space: pre;" direction="ltr" dominant-baseline="text-before-edge">1</text></g><g stroke-linecap="round" transform="translate(585.9347382808462 142.35371936607544) rotate(0 20.781717182423108 22.004171134330363)"><path d="M-0.09 -0.57 C8.96 1.58, 15.74 1.62, 39.86 0.88 M-0.01 0.09 C15.05 -0.59, 30.12 -0.55, 42.33 0.67 M41.41 0.7 C41.03 15.6, 42.3 30.69, 39.88 45.82 M41.31 -0.47 C41.88 8.58, 40.63 19.72, 41.44 43.15 M41.34 43.01 C27.51 44.88, 8.1 42.83, 1.99 42.96 M41.4 43.56 C29.62 43.96, 16.21 44.29, 0.96 45.01 M-1.5 45.47 C-0.43 25.84, 1.65 9.22, 1.9 -0.72 M0.08 43.48 C-0.33 29.81, 0.5 14.94, 0.83 0.71" stroke="#000000" stroke-width="4" fill="none"></path></g><g transform="translate(602.3023929632693 151.8578905004058) rotate(0 4.4140625 12.5)"><text x="4.4140625" y="0" font-family="Muyao, Segoe UI Emoji" font-size="20px" fill="#1e1e1e" text-anchor="middle" style="white-space: pre;" direction="ltr" dominant-baseline="text-before-edge">3</text></g><g stroke-linecap="round" transform="translate(737.9589506228501 56.334032075833704) rotate(0 20.781717182423108 22.00417113433035)"><path d="M-1.38 1.26 C8.31 -0.72, 17.55 -0.8, 40.93 -0.12 M-0.38 -0.45 C14.31 0.02, 28.14 0.06, 42.52 -0.43 M42.87 0.2 C43.2 11.68, 40.21 20.42, 43.08 44.39 M42.33 0.07 C41.85 15.98, 41.16 29.27, 41.5 43.84 M41.47 42.48 C24.84 44.32, 9.03 44.24, -0.54 42.58 M41.2 43.81 C26.07 44.54, 8.45 43.98, -0.41 44.92 M-1.26 44.39 C-0.13 32.82, -0.07 18.64, -0.65 1.26 M-0.56 44.64 C0.03 32.15, 0.65 20.18, -0.71 -0.67" stroke="#000000" stroke-width="4" fill="none"></path></g><g transform="translate(753.6234803052732 65.83820321016407) rotate(0 5.1171875 12.5)"><text x="5.1171875" y="0" font-family="Muyao, Segoe UI Emoji" font-size="20px" fill="#1e1e1e" text-anchor="middle" style="white-space: pre;" direction="ltr" dominant-baseline="text-before-edge">a</text></g><g stroke-linecap="round" transform="translate(779.5223849876982 56.334032075833704) rotate(0 20.781717182423108 22.00417113433035)"><path d="M-1.38 -0.41 C14.44 -0.05, 30.91 0.56, 41.57 -0.76 M0.07 0.06 C11.56 -0.44, 20.49 -0.68, 41.79 0.65 M40.51 0.24 C43.5 14.03, 42.83 26.88, 42.94 45.55 M41.25 -0.82 C41.67 13.33, 42.65 27.69, 40.91 43.96 M41.58 44.51 C31.72 42.7, 24.81 44.86, 0.14 43.28 M41.04 43.95 C29.51 45.13, 18.02 45.04, -0.42 43.38 M0.29 42.78 C-0.7 31.23, -0.68 17.33, -0.92 -1.12 M0.96 43.81 C-0.86 27.37, -0.04 12.29, -0.63 0.27" stroke="#000000" stroke-width="4" fill="none"></path></g><g transform="translate(795.8900396701213 65.83820321016407) rotate(0 4.4140625 12.5)"><text x="4.4140625" y="0" font-family="Muyao, Segoe UI Emoji" font-size="20px" fill="#1e1e1e" text-anchor="middle" style="white-space: pre;" direction="ltr" dominant-baseline="text-before-edge">3</text></g><g stroke-linecap="round" transform="translate(821.1418484920093 56.334032075833704) rotate(0 20.781717182423108 22.00417113433035)"><path d="M0.75 0.49 C11.61 -0.73, 22.32 0.56, 41.61 0.14 M-0.71 -0.67 C12.95 0.83, 25.55 1.15, 42.36 -0.53 M42.4 -0.41 C43.28 15.28, 42.03 28.23, 43.42 43.39 M42.48 0.7 C40.88 9.53, 40.77 18.94, 41.86 44.01 M43.41 44.74 C28.19 42.98, 14.15 45.31, 1 42.96 M41.31 44.83 C28.92 43.75, 17.3 44.5, 0.44 44.15 M-0.63 45.42 C-0.77 32.39, 1.4 23.69, -0.09 1.92 M0.11 44.22 C-0.31 31.96, 0.91 18.44, -0.78 -0.43" stroke="#000000" stroke-width="4" fill="none"></path></g><g transform="translate(836.9430969244324 65.83820321016407) rotate(0 4.98046875 12.5)"><text x="4.98046875" y="0" font-family="Muyao, Segoe UI Emoji" font-size="20px" fill="#1e1e1e" text-anchor="middle" style="white-space: pre;" direction="ltr" dominant-baseline="text-before-edge">6</text></g><g stroke-linecap="round" transform="translate(737.9589506228501 100.59497737101566) rotate(0 20.781717182423108 22.004171134330363)"><path d="M-0.9 0.54 C13.54 0.3, 27.1 2.08, 40.7 -1.42 M0.1 0.97 C10.49 -0.8, 19.5 0.49, 41.76 0.42 M41.7 0.76 C43.73 11.69, 40.22 24.49, 41.24 45.84 M40.8 -0.22 C41.57 16.3, 41.52 32.31, 40.85 44.93 M41.17 45.61 C28.59 42.81, 13.49 43.04, 1.82 43.49 M41.75 44.12 C26.11 43.89, 9.17 43.42, 0.63 43.69 M1.25 44.68 C0.11 29.63, -0.2 9.98, -1.35 0.21 M0.6 43.07 C-0.51 29.45, 1.24 15.5, 0.26 0.21" stroke="#000000" stroke-width="4" fill="none"></path></g><g transform="translate(754.0726990552732 110.09914850534602) rotate(0 4.66796875 12.5)"><text x="4.66796875" y="0" font-family="Muyao, Segoe UI Emoji" font-size="20px" fill="#1e1e1e" text-anchor="middle" style="white-space: pre;" direction="ltr" dominant-baseline="text-before-edge">b</text></g><g stroke-linecap="round" transform="translate(779.5223849876982 100.59497737101566) rotate(0 20.781717182423108 22.004171134330363)"><path d="M0.12 1.92 C12.72 -1.44, 25.84 0.43, 42.87 0.2 M0.12 0.76 C16.68 0.64, 32.76 0.91, 42.33 0.07 M39.92 -0.13 C41.65 16.71, 43.38 28.44, 41.47 42.48 M41.81 -0.27 C40.98 13.14, 42.06 24.51, 41.2 43.81 M41.45 43.19 C27.59 43.28, 11.63 42.96, -1.26 44.39 M40.95 43.68 C29.25 43.75, 16.37 43.61, -0.56 44.64 M-0.4 42.59 C-1.33 29.53, 0.44 13.38, 0.53 1.19 M0.97 43.75 C0.61 35.14, 0.91 25.68, 0.76 -0.64" stroke="#000000" stroke-width="4" fill="none"></path></g><g transform="translate(795.8900396701213 110.09914850534602) rotate(0 4.4140625 12.5)"><text x="4.4140625" y="0" font-family="Muyao, Segoe UI Emoji" font-size="20px" fill="#1e1e1e" text-anchor="middle" style="white-space: pre;" direction="ltr" dominant-baseline="text-before-edge">3</text></g><g stroke-linecap="round" transform="translate(821.1418484920093 100.59497737101566) rotate(0 20.781717182423108 22.004171134330363)"><path d="M-1.34 0.45 C17.76 0.49, 34.85 1.88, 40.51 0.24 M-0.2 0.69 C16.39 -0.11, 31.62 0.76, 41.25 -0.82 M42.97 -1.31 C41.39 11.4, 41.05 26.43, 41.58 44.51 M41.93 0.07 C40.88 11.81, 42.05 24.52, 41.04 43.95 M43.21 43.18 C29.54 44.28, 20.26 44.78, 0.29 42.78 M42.27 43.55 C29.89 44.5, 19.68 43.83, 0.96 43.81 M0.42 42.75 C0.83 35.13, -1.58 22.3, -0.87 1.94 M0.57 43.84 C0.65 31.29, -0.57 18.93, -0.22 0.39" stroke="#000000" stroke-width="4" fill="none"></path></g><g transform="translate(836.9430969244324 110.09914850534602) rotate(0 4.98046875 12.5)"><text x="4.98046875" y="0" font-family="Muyao, Segoe UI Emoji" font-size="20px" fill="#1e1e1e" text-anchor="middle" style="white-space: pre;" direction="ltr" dominant-baseline="text-before-edge">6</text></g><g stroke-linecap="round" transform="translate(737.9589506228501 144.8559226661942) rotate(0 20.781717182423108 22.004171134330363)"><path d="M1.93 1.59 C12.36 0.2, 28.35 0.34, 42.4 -0.41 M0.38 0.93 C15.03 -0.85, 30.61 -0.19, 42.48 0.7 M41.12 0.58 C41.55 10.81, 41 19.19, 43.41 44.74 M42.36 0.5 C40.88 13.45, 40.99 27.93, 41.31 44.83 M41.79 44.89 C31.11 42.86, 19.43 45.35, -0.63 45.42 M41.9 43.96 C31.96 44.07, 19.72 43.59, 0.11 44.22 M-1.87 42.44 C-0.98 35.5, -0.63 23.65, 0.42 1.13 M-0.45 43.09 C-0.55 31.94, 0.55 18.55, -0.8 0.82" stroke="#000000" stroke-width="4" fill="none"></path></g><g transform="translate(754.4633240552732 154.36009380052457) rotate(0 4.27734375 12.5)"><text x="4.27734375" y="0" font-family="Muyao, Segoe UI Emoji" font-size="20px" fill="#1e1e1e" text-anchor="middle" style="white-space: pre;" direction="ltr" dominant-baseline="text-before-edge">c</text></g><g stroke-linecap="round" transform="translate(779.5223849876982 144.8559226661942) rotate(0 20.781717182423108 22.004171134330363)"><path d="M1.52 0.39 C16.61 -0.46, 32.92 1.49, 41.7 0.76 M-0.06 -0.16 C17.25 1.04, 32.02 0.29, 40.8 -0.22 M41.02 -1.43 C43.41 15.21, 41.71 28.24, 41.17 45.61 M41.15 0.91 C41.08 16.23, 40.92 30.18, 41.75 44.12 M40.91 45.27 C26.63 45.16, 12.05 42.63, 1.25 44.68 M40.85 43.33 C29.39 44.13, 16.38 44.19, 0.6 43.07 M-0.51 44.54 C0.61 35.38, -0.15 26.02, -1.27 -0.9 M0.89 43.46 C-0.7 35.67, 0.46 24.75, -0.29 0.4" stroke="#000000" stroke-width="4" fill="none"></path></g><g transform="translate(795.8900396701213 154.36009380052457) rotate(0 4.4140625 12.5)"><text x="4.4140625" y="0" font-family="Muyao, Segoe UI Emoji" font-size="20px" fill="#1e1e1e" text-anchor="middle" style="white-space: pre;" direction="ltr" dominant-baseline="text-before-edge">3</text></g><g stroke-linecap="round" transform="translate(821.1418484920093 144.8559226661942) rotate(0 20.781717182423108 22.004171134330363)"><path d="M1.38 1.54 C13.4 0.84, 28.4 -0.54, 39.92 -0.13 M-0.66 -0.05 C11.03 -0.51, 23.87 -0.29, 41.81 -0.27 M41.7 -0.73 C41.57 11.65, 42.97 19.05, 41.45 43.19 M41.15 -0.63 C41.64 17.32, 41.89 34.55, 40.95 43.68 M40.65 42.88 C27.73 44.98, 11.29 46.22, -0.4 42.59 M40.94 44.27 C32.5 43.16, 21.45 43.66, 0.97 43.75 M-0.34 45.54 C-1.36 28.74, -1.93 14.85, 0.78 1.78 M0.37 43.08 C0.06 33.63, 0.94 22.71, 0.81 -0.95" stroke="#000000" stroke-width="4" fill="none"></path></g><g transform="translate(836.9430969244324 154.36009380052457) rotate(0 4.98046875 12.5)"><text x="4.98046875" y="0" font-family="Muyao, Segoe UI Emoji" font-size="20px" fill="#1e1e1e" text-anchor="middle" style="white-space: pre;" direction="ltr" dominant-baseline="text-before-edge">6</text></g><g stroke-linecap="round"><g transform="translate(636.8548344654275 72.55508250296907) rotate(0 48.3436251397045 1.525810559193559)"><path d="M1.87 -0.5 C21.05 1.85, 40.66 3.08, 96.8 3.56 M-0.11 0.36 C22.81 1.92, 43.68 3.39, 94.13 3.25" stroke="#1e1e1e" stroke-width="1" fill="none"></path></g><g transform="translate(636.8548344654275 72.55508250296907) rotate(0 48.3436251397045 1.525810559193559)"><path d="M67.73 12.81 C72 11.6, 76.61 9.64, 95.84 2.64 M65.75 13.68 C73.15 11.47, 78.51 9.64, 93.17 2.34" stroke="#1e1e1e" stroke-width="1" fill="none"></path></g><g transform="translate(636.8548344654275 72.55508250296907) rotate(0 48.3436251397045 1.525810559193559)"><path d="M67.87 -7.71 C71.99 -4.32, 76.58 -1.68, 95.84 2.64 M65.9 -6.84 C73.27 -4.29, 78.6 -1.36, 93.17 2.34" stroke="#1e1e1e" stroke-width="1" fill="none"></path></g></g><mask></mask><g stroke-linecap="round"><g transform="translate(637.6889022321338 124.26728403875683) rotate(0 48.52375204514567 -0.5220328531455323)"><path d="M0.85 -0.92 C24.56 0.63, 54.03 -0.57, 96.72 -1.95 M0.33 -0.49 C36.93 1.05, 72.25 0.95, 95.28 0.87" stroke="#1e1e1e" stroke-width="1" fill="none"></path></g><g transform="translate(637.6889022321338 124.26728403875683) rotate(0 48.52375204514567 -0.5220328531455323)"><path d="M67.95 10.24 C73.01 9.1, 83.82 5.03, 96.92 -1.08 M67.43 10.68 C78.42 8.2, 88.14 4.16, 95.48 1.73" stroke="#1e1e1e" stroke-width="1" fill="none"></path></g><g transform="translate(637.6889022321338 124.26728403875683) rotate(0 48.52375204514567 -0.5220328531455323)"><path d="M67.92 -10.28 C72.99 -5.7, 83.81 -4.05, 96.92 -1.08 M67.4 -9.85 C78.42 -4.47, 88.15 -0.66, 95.48 1.73" stroke="#1e1e1e" stroke-width="1" fill="none"></path></g></g><mask></mask><g stroke-linecap="round"><g transform="translate(637.6889022321338 170.97507897430705) rotate(0 46.503033061619476 0.2919165202270051)"><path d="M1.37 -0.46 C30.59 -1.62, 61.69 2.01, 92.95 1.14 M-0.56 -0.42 C22.46 -0.44, 46.03 0.32, 93.56 1.13" stroke="#1e1e1e" stroke-width="1" fill="none"></path></g><g transform="translate(637.6889022321338 170.97507897430705) rotate(0 46.503033061619476 0.2919165202270051)"><path d="M66.55 10.4 C74.87 5.95, 85.01 6.17, 93.1 1.44 M64.63 10.44 C71.67 7.86, 79.23 6.03, 93.71 1.43" stroke="#1e1e1e" stroke-width="1" fill="none"></path></g><g transform="translate(637.6889022321338 170.97507897430705) rotate(0 46.503033061619476 0.2919165202270051)"><path d="M66.94 -10.11 C75 -7.95, 85.01 -1.12, 93.1 1.44 M65.01 -10.08 C71.89 -7.61, 79.36 -4.39, 93.71 1.43" stroke="#1e1e1e" stroke-width="1" fill="none"></path></g></g><mask></mask><g transform="translate(751.9561862708908 10) rotate(0 58.30078125 12.5)"><text x="0" y="0" font-family="Muyao, Segoe UI Emoji" font-size="20px" fill="#1e1e1e" text-anchor="start" style="white-space: pre;" direction="ltr" dominant-baseline="text-before-edge">SUM() OVER()</text></g><g transform="translate(637.6889022321336 226.02355157691983) rotate(0 40 12.5)"><text x="0" y="0" font-family="Muyao, Segoe UI Emoji" font-size="20px" fill="#1e1e1e" text-anchor="start" style="white-space: pre;" direction="ltr" dominant-baseline="text-before-edge">窗口函数</text></g></svg>