<svg version="1.1" xmlns="http://www.w3.org/2000/svg" viewBox="0 0 1000 586" width="1000" height="586">
  <!-- svg-source:excalidraw -->
  
  <defs>
    <style class="style-fonts">
      @font-face {
        font-family: "Virgil";
        src: url("https://unpkg.com/revedraw@1.0.0-alpha.10/dist/excalidraw-assets/Virgil.woff2");
      }
      @font-face {
        font-family: "Cascadia";
        src: url("https://unpkg.com/revedraw@1.0.0-alpha.10/dist/excalidraw-assets/Cascadia.woff2");
      }
    </style>
    
  </defs>
  <rect x="0" y="0" width="1000" height="586" fill="#ffffff"></rect><g stroke-linecap="round" transform="translate(90 308) rotate(0 58.5 37)"><path d="M71.18 0.72 C80.26 1.45, 90.14 4.78, 97.38 8.9 C104.62 13.01, 111.46 19.28, 114.63 25.42 C117.8 31.56, 118.65 39.77, 116.39 45.73 C114.14 51.69, 107.74 56.7, 101.1 61.19 C94.47 65.69, 85.71 70.72, 76.58 72.71 C67.45 74.7, 55.76 74.54, 46.31 73.13 C36.86 71.72, 27.25 68.42, 19.9 64.24 C12.54 60.06, 5.23 54.02, 2.18 48.03 C-0.88 42.05, -0.43 34.19, 1.57 28.32 C3.57 22.44, 7.78 17.19, 14.17 12.77 C20.56 8.34, 29.77 3.71, 39.93 1.77 C50.08 -0.18, 68.69 0.8, 75.09 1.09 C81.5 1.38, 78.76 2.92, 78.37 3.49 M41.56 1.58 C50.22 -0.97, 62.14 -1.58, 71.79 -0.34 C81.45 0.9, 92.4 4.68, 99.49 9.01 C106.59 13.34, 111.72 19.43, 114.36 25.64 C117 31.85, 117.71 40.13, 115.33 46.26 C112.94 52.38, 106.64 58.24, 100.05 62.4 C93.46 66.56, 85.18 69.51, 75.79 71.21 C66.4 72.91, 53.03 73.74, 43.7 72.59 C34.38 71.44, 26.58 68.58, 19.86 64.32 C13.13 60.06, 6.62 52.75, 3.34 47.03 C0.07 41.3, -2.01 36.02, 0.21 29.98 C2.43 23.95, 9.56 15.55, 16.65 10.82 C23.74 6.09, 38.54 3.27, 42.76 1.6 C46.97 -0.07, 41.9 0.13, 41.95 0.8" stroke="none" stroke-width="0" fill="#f8f9fa"></path><path d="M38.93 2.98 C47.55 0.33, 59.67 -0.44, 69.2 0.47 C78.72 1.38, 88.65 4.63, 96.07 8.45 C103.48 12.27, 110.48 17.46, 113.69 23.4 C116.89 29.33, 117.12 37.83, 115.32 44.06 C113.52 50.29, 109.03 56.1, 102.88 60.78 C96.74 65.46, 87.67 69.88, 78.44 72.14 C69.22 74.4, 57.16 75.49, 47.54 74.36 C37.91 73.23, 28.03 69.57, 20.7 65.36 C13.37 61.14, 6.98 54.94, 3.56 49.05 C0.14 43.16, -1.57 36.1, 0.18 30.03 C1.93 23.96, 6.98 17.28, 14.06 12.61 C21.13 7.94, 37.24 3.78, 42.64 2 C48.04 0.22, 46.42 1.45, 46.47 1.92 M42.54 2.28 C51.53 -0.05, 64.92 -1.41, 74.44 -0.02 C83.96 1.38, 93.1 6.1, 99.67 10.66 C106.24 15.23, 111.25 21.47, 113.85 27.36 C116.44 33.24, 117.51 40.13, 115.22 45.99 C112.94 51.86, 107.03 58.25, 100.14 62.55 C93.25 66.85, 83.25 69.98, 73.87 71.8 C64.5 73.63, 53.4 74.72, 43.88 73.49 C34.36 72.26, 23.67 68.93, 16.77 64.4 C9.87 59.87, 4.91 52.25, 2.46 46.31 C0.01 40.38, -0.21 34.53, 2.09 28.77 C4.39 23.01, 9.3 16.59, 16.26 11.77 C23.22 6.95, 39.16 1.7, 43.85 -0.14 C48.55 -1.99, 44.12 -0.27, 44.43 0.71" stroke="#1e1e1e" stroke-width="1" fill="none"></path></g><g transform="translate(145 398) rotate(0 30 12.5)"><text x="0" y="0" font-family="HanziPen SC, HanziPen Remote, Virgil, KaiTi, Segoe UI Emoji" font-size="20px" fill="#1e1e1e" text-anchor="start" style="white-space: pre;" direction="ltr" dominant-baseline="text-before-edge">鸭子类</text></g><g stroke-linecap="round" transform="translate(589 266) rotate(0 48.5 37.5)"><path d="M45.72 0.05 C53.97 -0.78, 63.82 1.83, 71.45 5 C79.07 8.16, 87.16 13.07, 91.47 19.06 C95.78 25.05, 98.06 34.03, 97.32 40.94 C96.57 47.86, 92.4 55.34, 86.99 60.57 C81.59 65.8, 72.87 70.2, 64.88 72.33 C56.89 74.46, 47.47 74.74, 39.05 73.34 C30.64 71.94, 20.55 68.48, 14.39 63.93 C8.22 59.38, 4.05 52.45, 2.06 46.02 C0.07 39.6, -0.55 31.73, 2.44 25.36 C5.43 18.99, 12.5 11.97, 20 7.82 C27.5 3.67, 42.29 1.63, 47.45 0.45 C52.62 -0.74, 51.15 0.28, 51 0.71 M40.77 -0.44 C49.3 -1.84, 61.67 0.46, 69.5 3.36 C77.33 6.26, 83.07 11.32, 87.74 16.97 C92.42 22.62, 97.09 30.57, 97.55 37.24 C98.01 43.91, 95.11 51.2, 90.5 57 C85.89 62.8, 77.85 69.12, 69.89 72.05 C61.92 74.99, 51.36 75.68, 42.71 74.61 C34.07 73.55, 24.64 69.82, 18.01 65.66 C11.38 61.5, 5.84 56.16, 2.93 49.66 C0.02 43.16, -1.67 33.45, 0.53 26.64 C2.74 19.84, 9.13 13.37, 16.15 8.83 C23.17 4.29, 38.2 0.7, 42.65 -0.58 C47.09 -1.87, 42.81 0.55, 42.82 1.11" stroke="none" stroke-width="0" fill="#f8f9fa"></path><path d="M52.42 -0.74 C60.89 -0.81, 71.05 3.6, 77.94 7.85 C84.83 12.09, 90.73 18.58, 93.75 24.72 C96.78 30.85, 97.89 38.25, 96.1 44.66 C94.31 51.06, 89.41 58.31, 83.04 63.15 C76.67 67.99, 66.36 72.24, 57.88 73.71 C49.4 75.19, 40.06 74.28, 32.18 72.01 C24.3 69.73, 15.89 65.34, 10.59 60.07 C5.29 54.79, 1.06 47.08, 0.39 40.36 C-0.27 33.64, 2.45 25.86, 6.58 19.75 C10.7 13.64, 16.83 7, 25.15 3.7 C33.47 0.41, 50.17 0.34, 56.5 -0.01 C62.82 -0.37, 63.16 0.87, 63.12 1.57 M65.86 4.01 C73.82 5.92, 81.9 10.92, 87.21 16.01 C92.52 21.1, 97.15 27.68, 97.74 34.54 C98.33 41.4, 94.98 50.95, 90.75 57.15 C86.53 63.36, 80.29 68.68, 72.38 71.75 C64.47 74.82, 52.09 76.17, 43.29 75.56 C34.49 74.94, 26.24 72.26, 19.59 68.06 C12.93 63.85, 6.63 57.05, 3.38 50.33 C0.13 43.6, -1.7 34.43, 0.09 27.7 C1.88 20.97, 7.72 14.46, 14.13 9.95 C20.55 5.44, 29.96 1.77, 38.58 0.61 C47.2 -0.54, 61.12 2.36, 65.85 3.02 C70.57 3.69, 67.41 3.85, 66.93 4.59" stroke="#1e1e1e" stroke-width="1" fill="none"></path></g><g stroke-linecap="round" transform="translate(570.5 271.5) rotate(0 48.5 37.5)"><path d="M40.27 1.45 C48.16 0.09, 59.66 0.91, 67.76 3.45 C75.86 5.99, 83.83 10.95, 88.86 16.67 C93.89 22.4, 97.78 30.91, 97.95 37.79 C98.13 44.68, 94.71 52.24, 89.91 57.97 C85.11 63.7, 77.11 69.26, 69.15 72.19 C61.18 75.12, 50.73 76.58, 42.1 75.56 C33.47 74.53, 24.02 70.46, 17.39 66.05 C10.75 61.64, 4.78 55.43, 2.3 49.08 C-0.18 42.74, 0.27 34.42, 2.52 27.97 C4.77 21.52, 8.99 15.18, 15.78 10.4 C22.57 5.63, 37.95 0.97, 43.26 -0.69 C48.57 -2.34, 47.39 -0.13, 47.64 0.47 M38.68 1.27 C46.53 -0.06, 57.62 0.92, 65.81 3.57 C74.01 6.21, 82.66 11.9, 87.86 17.13 C93.06 22.37, 96.54 28.37, 97.01 34.99 C97.47 41.62, 95.2 50.95, 90.65 56.91 C86.1 62.86, 77.67 67.83, 69.69 70.73 C61.72 73.62, 51.29 74.7, 42.82 74.27 C34.34 73.84, 25.48 72.36, 18.84 68.13 C12.2 63.89, 6.01 55.3, 2.98 48.85 C-0.05 42.41, -1.32 36.02, 0.68 29.48 C2.69 22.94, 8.3 14.42, 15.01 9.6 C21.71 4.78, 36.98 2.17, 40.93 0.58 C44.87 -1.02, 38.49 -0.7, 38.66 0.01" stroke="none" stroke-width="0" fill="#f8f9fa"></path><path d="M66.86 3.63 C74.78 5.35, 83 9.44, 87.89 14.73 C92.78 20.01, 95.91 28.47, 96.21 35.33 C96.51 42.19, 93.97 50.07, 89.69 55.88 C85.41 61.7, 78.01 67.04, 70.53 70.21 C63.05 73.38, 53.61 75.43, 44.81 74.9 C36 74.37, 24.67 71.2, 17.71 67.03 C10.75 62.86, 5.69 56.31, 3.07 49.87 C0.45 43.44, -0.08 34.91, 2 28.4 C4.08 21.89, 9.26 15.42, 15.54 10.8 C21.82 6.18, 30.08 1.68, 39.7 0.66 C49.31 -0.36, 66.8 3.24, 73.21 4.69 C79.63 6.13, 78.86 8.81, 78.2 9.33 M42.81 1.65 C51.09 0.39, 62.89 2.15, 70.61 4.93 C78.33 7.72, 84.53 12.49, 89.13 18.34 C93.73 24.2, 98.62 33.32, 98.19 40.06 C97.77 46.79, 91.93 53.6, 86.57 58.76 C81.21 63.92, 73.89 68.63, 66.02 71.03 C58.15 73.44, 48.08 74.05, 39.36 73.21 C30.64 72.37, 19.82 70.28, 13.69 66 C7.56 61.72, 4.35 54.41, 2.58 47.53 C0.81 40.65, 0.64 31.44, 3.06 24.72 C5.49 18.01, 10.42 11.41, 17.13 7.24 C23.85 3.08, 38.77 0.66, 43.34 -0.28 C47.91 -1.22, 44.36 0.73, 44.54 1.62" stroke="#1e1e1e" stroke-width="1" fill="none"></path></g><g stroke-linecap="round" transform="translate(553.5 278.5) rotate(0 48.5 37.5)"><path d="M24.79 5.15 C31.82 1.86, 43.47 0.37, 52.43 0.64 C61.38 0.92, 71.58 2.77, 78.52 6.79 C85.47 10.81, 91.28 18.37, 94.11 24.77 C96.93 31.17, 97.47 38.65, 95.46 45.19 C93.45 51.73, 88.29 59.22, 82.04 64 C75.79 68.78, 66.48 72.5, 57.95 73.87 C49.42 75.25, 39.04 74.63, 30.86 72.25 C22.68 69.86, 14.01 65.05, 8.88 59.57 C3.75 54.09, 0.62 45.93, 0.07 39.35 C-0.49 32.77, -0.07 26.2, 5.54 20.07 C11.14 13.95, 27.4 5.89, 33.7 2.59 C40.01 -0.72, 42.89 -0.12, 43.35 0.24 M46.51 -0.37 C54.84 -1.43, 63.51 1.53, 70.96 4.93 C78.42 8.32, 86.7 14.22, 91.24 20.02 C95.78 25.83, 98.73 32.86, 98.21 39.76 C97.7 46.65, 93.67 56, 88.15 61.37 C82.62 66.75, 73.57 69.97, 65.06 72.03 C56.56 74.08, 45.76 75.05, 37.12 73.68 C28.48 72.32, 19.3 68.36, 13.21 63.84 C7.12 59.33, 2.08 53.39, 0.57 46.58 C-0.93 39.76, 0.98 29.7, 4.17 22.94 C7.36 16.19, 12.96 9.64, 19.73 6.03 C26.49 2.41, 40.56 2.29, 44.76 1.23 C48.96 0.18, 44.73 -0.96, 44.93 -0.28" stroke="none" stroke-width="0" fill="#f8f9fa"></path><path d="M53.61 -0.68 C61.93 -0.65, 71.62 3.32, 78.51 7.84 C85.4 12.36, 92.06 19.93, 94.95 26.45 C97.84 32.97, 98 40.46, 95.87 46.94 C93.73 53.42, 88.62 60.79, 82.13 65.34 C75.64 69.89, 65.68 73.15, 56.94 74.23 C48.2 75.32, 37.88 74.35, 29.69 71.85 C21.51 69.34, 12.89 64.66, 7.84 59.21 C2.78 53.76, -0.49 45.82, -0.64 39.14 C-0.78 32.47, 2.46 24.91, 6.99 19.17 C11.52 13.43, 17.24 7.47, 26.52 4.7 C35.81 1.93, 55.5 2.58, 62.69 2.54 C69.88 2.5, 69.85 4.02, 69.67 4.47 M66.04 1.3 C73.95 3.15, 83.44 9.66, 88.59 15.38 C93.75 21.1, 96.82 28.77, 96.96 35.62 C97.1 42.46, 93.63 50.41, 89.44 56.44 C85.24 62.47, 79.47 68.76, 71.79 71.81 C64.12 74.85, 52.1 75.59, 43.4 74.73 C34.69 73.86, 26.18 70.89, 19.55 66.63 C12.92 62.37, 6.41 55.55, 3.61 49.18 C0.81 42.8, 0.65 34.86, 2.76 28.38 C4.86 21.89, 10.27 14.88, 16.25 10.27 C22.23 5.65, 30.35 1.75, 38.65 0.69 C46.94 -0.37, 61.62 3.68, 66.02 3.91 C70.41 4.13, 65 1.62, 65.01 2.04" stroke="#1e1e1e" stroke-width="1" fill="none"></path></g><g stroke-linecap="round" transform="translate(532.5 290.5) rotate(0 48.5 37.5)"><path d="M26.69 3.18 C33.92 -0.11, 45.53 0.18, 54.11 1.2 C62.68 2.23, 71.54 5.38, 78.15 9.33 C84.76 13.29, 90.74 18.72, 93.78 24.92 C96.83 31.12, 98.6 40.03, 96.41 46.56 C94.21 53.09, 87.26 59.52, 80.61 64.12 C73.95 68.73, 65.01 72.85, 56.48 74.17 C47.95 75.49, 37.53 74.73, 29.44 72.06 C21.36 69.39, 12.86 63.84, 7.97 58.15 C3.08 52.46, 0.18 44.64, 0.09 37.92 C0.01 31.19, 2.26 23.74, 7.46 17.81 C12.67 11.88, 26.88 5.03, 31.32 2.33 C35.76 -0.37, 33.91 0.86, 34.08 1.59 M51.01 0.41 C59.29 -0.02, 68.94 3.7, 76.12 7.41 C83.31 11.12, 90.92 16.42, 94.09 22.66 C97.27 28.91, 96.65 38.07, 95.18 44.89 C93.7 51.72, 90.94 58.58, 85.25 63.62 C79.55 68.66, 69.69 73.62, 61.02 75.12 C52.34 76.62, 41.52 74.94, 33.21 72.64 C24.9 70.34, 16.62 66.69, 11.15 61.33 C5.68 55.98, 1.34 47.02, 0.38 40.51 C-0.58 33.99, 1.64 28.04, 5.39 22.25 C9.14 16.46, 15.41 9.28, 22.9 5.77 C30.38 2.25, 45.79 1.91, 50.31 1.16 C54.84 0.41, 50.15 0.61, 50.04 1.26" stroke="none" stroke-width="0" fill="#f8f9fa"></path><path d="M48.59 -0.95 C57.12 -1.44, 68.91 2.46, 76.34 6.54 C83.78 10.62, 90.04 17.35, 93.21 23.52 C96.38 29.69, 96.93 37.16, 95.36 43.55 C93.79 49.94, 89.37 56.82, 83.78 61.86 C78.19 66.89, 70.09 71.76, 61.85 73.77 C53.61 75.77, 42.93 75.93, 34.33 73.87 C25.74 71.82, 15.92 66.82, 10.27 61.45 C4.62 56.08, 1.44 48.46, 0.43 41.67 C-0.57 34.88, 0.5 26.81, 4.25 20.7 C8 14.6, 15 8.53, 22.95 5.05 C30.91 1.57, 46.69 0.56, 51.96 -0.19 C57.24 -0.95, 54.64 -0.14, 54.6 0.53 M35.01 2.71 C42.84 0.2, 53.84 -0.9, 62.49 0.84 C71.13 2.57, 81.23 7.96, 86.9 13.12 C92.56 18.28, 95.49 24.73, 96.48 31.78 C97.48 38.82, 96.77 49.24, 92.87 55.4 C88.96 61.55, 80.63 65.44, 73.05 68.72 C65.46 72, 55.94 74.9, 47.35 75.08 C38.75 75.26, 28.82 73.47, 21.47 69.78 C14.13 66.1, 6.51 59.47, 3.27 52.97 C0.03 46.48, 0.55 37.79, 2.03 30.82 C3.51 23.86, 6.52 16.27, 12.15 11.19 C17.78 6.11, 31.75 1.96, 35.78 0.34 C39.82 -1.29, 35.89 0.52, 36.37 1.45" stroke="#1e1e1e" stroke-width="1" fill="none"></path></g><g transform="translate(602 377) rotate(0 40 12.5)"><text x="0" y="0" font-family="HanziPen SC, HanziPen Remote, Virgil, KaiTi, Segoe UI Emoji" font-size="20px" fill="#1e1e1e" text-anchor="start" style="white-space: pre;" direction="ltr" dominant-baseline="text-before-edge">飞行行为</text></g><g stroke-linecap="round" transform="translate(768.75 342) rotate(0 48.5 37.5)"><path d="M46.21 -0.09 C54.47 -1.1, 63.7 0.72, 71.27 3.99 C78.84 7.26, 87.4 13.48, 91.62 19.53 C95.85 25.59, 97.46 33.5, 96.63 40.32 C95.8 47.14, 91.77 55.06, 86.63 60.43 C81.49 65.79, 73.82 70.08, 65.79 72.51 C57.76 74.94, 47.22 76.49, 38.42 75.01 C29.63 73.54, 19.29 68.69, 13.01 63.65 C6.73 58.6, 2.35 51.28, 0.75 44.74 C-0.84 38.2, 0.33 30.54, 3.44 24.41 C6.56 18.27, 11.82 12.04, 19.45 7.91 C27.09 3.79, 44.06 0.79, 49.26 -0.33 C54.46 -1.45, 50.8 0.55, 50.63 1.18 M47.03 -0.78 C55.44 -1.71, 65.77 0.68, 73.33 4.19 C80.88 7.7, 88.38 14.37, 92.36 20.29 C96.34 26.22, 98.31 32.99, 97.2 39.74 C96.09 46.49, 90.91 55.38, 85.71 60.78 C80.52 66.19, 74.01 69.79, 66 72.18 C58 74.56, 46.6 76.49, 37.69 75.1 C28.77 73.72, 18.8 68.73, 12.5 63.85 C6.19 58.98, 1.39 52.65, -0.13 45.84 C-1.65 39.03, 0.07 29.51, 3.38 22.99 C6.7 16.48, 12.5 10.36, 19.78 6.78 C27.06 3.19, 42.87 2.55, 47.07 1.49 C51.27 0.44, 45.35 -0.1, 44.96 0.45" stroke="none" stroke-width="0" fill="#f8f9fa"></path><path d="M40.14 1.49 C48.36 -0.11, 59.46 0.54, 67.36 3 C75.26 5.46, 82.76 10.85, 87.54 16.26 C92.33 21.66, 95.66 28.88, 96.06 35.43 C96.46 41.98, 94.11 49.67, 89.95 55.55 C85.78 61.43, 78.61 67.4, 71.09 70.71 C63.57 74.03, 53.63 76.17, 44.84 75.43 C36.04 74.68, 25.29 70.58, 18.32 66.25 C11.35 61.93, 5.99 55.76, 3.01 49.45 C0.03 43.14, -1.71 34.8, 0.43 28.4 C2.57 22.01, 8.64 15.89, 15.87 11.09 C23.09 6.3, 38.19 1.4, 43.78 -0.35 C49.37 -2.09, 49.31 -0.15, 49.43 0.62 M56.39 1.73 C64.74 1.99, 74.32 5.08, 80.97 9.31 C87.62 13.53, 93.98 20.71, 96.31 27.09 C98.64 33.48, 97.81 41.19, 94.96 47.62 C92.1 54.05, 86.05 61.14, 79.18 65.68 C72.31 70.21, 62.32 73.92, 53.75 74.83 C45.18 75.75, 35.4 74.05, 27.77 71.16 C20.14 68.27, 12.71 63.35, 7.96 57.51 C3.21 51.67, -0.68 42.93, -0.72 36.1 C-0.76 29.28, 2.96 21.95, 7.71 16.56 C12.46 11.17, 19.53 6.65, 27.79 3.75 C36.06 0.86, 52.48 -0.57, 57.31 -0.81 C62.15 -1.05, 56.93 1.4, 56.81 2.32" stroke="#1e1e1e" stroke-width="1" fill="none"></path></g><g stroke-linecap="round" transform="translate(750.25 347.5) rotate(0 48.5 37.5)"><path d="M41.92 -0.52 C50.02 -1.82, 62.12 0.41, 70.09 3.46 C78.06 6.52, 85.33 11.94, 89.75 17.8 C94.16 23.66, 96.64 31.85, 96.58 38.61 C96.53 45.36, 94.15 52.59, 89.43 58.32 C84.7 64.04, 76.55 70.28, 68.23 72.95 C59.92 75.63, 48.31 75.72, 39.53 74.37 C30.75 73.02, 21.85 69.32, 15.56 64.85 C9.28 60.37, 4.11 53.88, 1.84 47.51 C-0.43 41.15, -0.81 33.23, 1.95 26.68 C4.71 20.13, 11.45 12.58, 18.39 8.21 C25.32 3.84, 38.98 1.77, 43.55 0.49 C48.13 -0.8, 45.63 -0.05, 45.83 0.5 M42.96 -0.37 C51.05 -1.57, 62.17 0.95, 70.01 3.76 C77.84 6.57, 85.64 10.75, 89.95 16.49 C94.26 22.23, 95.81 31.37, 95.87 38.19 C95.94 45.01, 94.91 51.64, 90.35 57.42 C85.78 63.2, 76.88 69.96, 68.49 72.87 C60.09 75.77, 48.84 75.89, 39.97 74.85 C31.11 73.8, 21.65 71.23, 15.3 66.57 C8.95 61.91, 4.12 53.61, 1.87 46.88 C-0.38 40.16, -0.94 32.33, 1.8 26.24 C4.55 20.15, 11.78 14.73, 18.33 10.35 C24.89 5.97, 37.39 1.36, 41.14 -0.02 C44.89 -1.4, 40.8 1.61, 40.82 2.07" stroke="none" stroke-width="0" fill="#f8f9fa"></path><path d="M37.95 1.38 C45.65 -0.69, 55.97 0.49, 63.93 2.6 C71.9 4.72, 80.37 8.96, 85.75 14.07 C91.12 19.19, 95.17 26.52, 96.2 33.27 C97.23 40.02, 95.69 48.37, 91.93 54.59 C88.17 60.81, 81.31 67.3, 73.65 70.57 C65.98 73.85, 54.78 74.69, 45.95 74.21 C37.13 73.73, 27.92 71.54, 20.69 67.7 C13.45 63.85, 5.7 57.24, 2.54 51.14 C-0.61 45.04, 0.07 37.77, 1.75 31.11 C3.43 24.44, 6.2 16.28, 12.62 11.15 C19.05 6.02, 35.07 1.98, 40.32 0.33 C45.56 -1.32, 43.85 0.6, 44.1 1.25 M66.75 2.54 C74.83 4.17, 84.04 10.07, 89.08 15.45 C94.13 20.83, 96.89 28.09, 97.02 34.81 C97.15 41.53, 94.43 49.73, 89.87 55.76 C85.32 61.79, 77.35 67.83, 69.68 70.96 C62.02 74.09, 52.31 75.2, 43.88 74.56 C35.46 73.92, 26.12 71.39, 19.13 67.1 C12.15 62.82, 4.98 55.3, 1.97 48.85 C-1.04 42.4, -0.93 34.73, 1.06 28.41 C3.05 22.09, 7.33 15.77, 13.92 10.94 C20.51 6.11, 31.69 0.63, 40.61 -0.56 C49.54 -1.75, 62.99 3.05, 67.46 3.8 C71.94 4.55, 67.8 3.73, 67.44 3.95" stroke="#1e1e1e" stroke-width="1" fill="none"></path></g><g stroke-linecap="round" transform="translate(733.25 354.5) rotate(0 48.5 37.5)"><path d="M44.84 -0.21 C53.18 -1.17, 63.48 0.9, 71.08 4.16 C78.67 7.41, 85.97 13.43, 90.41 19.33 C94.85 25.22, 98.06 32.64, 97.72 39.52 C97.37 46.4, 93.79 55.12, 88.35 60.6 C82.92 66.08, 73.41 70.19, 65.09 72.4 C56.77 74.61, 46.83 75.15, 38.45 73.87 C30.06 72.58, 21.05 69.23, 14.79 64.67 C8.52 60.11, 2.71 53.23, 0.84 46.52 C-1.03 39.82, 0.7 30.85, 3.58 24.44 C6.47 18.03, 10.1 12.18, 18.14 8.08 C26.17 3.97, 44.95 0.88, 51.79 -0.19 C58.63 -1.26, 59.25 0.86, 59.19 1.67 M36.08 1.66 C43.8 -0.67, 54.85 -1.43, 62.88 0.54 C70.91 2.51, 78.42 8.26, 84.26 13.46 C90.09 18.66, 96.45 24.93, 97.87 31.75 C99.29 38.58, 96.85 48.13, 92.75 54.42 C88.66 60.71, 80.9 65.88, 73.29 69.47 C65.67 73.07, 55.63 76.21, 47.08 75.98 C38.54 75.75, 29.22 72, 22.03 68.08 C14.84 64.17, 7.31 58.29, 3.94 52.5 C0.56 46.71, 0.57 40.02, 1.77 33.34 C2.97 26.65, 5.8 17.54, 11.13 12.39 C16.47 7.24, 29.97 4.37, 33.78 2.45 C37.59 0.53, 33.76 0.46, 34.01 0.87" stroke="none" stroke-width="0" fill="#f8f9fa"></path><path d="M67.18 3.57 C74.78 5.52, 82.92 10.85, 87.8 16.25 C92.67 21.65, 96.01 29.17, 96.41 35.95 C96.81 42.73, 94.53 50.95, 90.22 56.93 C85.92 62.91, 78.53 68.99, 70.57 71.83 C62.62 74.68, 51.26 74.95, 42.48 73.99 C33.71 73.03, 24.78 70.29, 17.93 66.06 C11.07 61.83, 3.93 54.87, 1.37 48.61 C-1.2 42.35, 0.24 35.04, 2.53 28.48 C4.82 21.93, 8.86 13.95, 15.12 9.27 C21.37 4.58, 30.3 0.91, 40.05 0.37 C49.8 -0.18, 67.02 4.47, 73.61 6.01 C80.21 7.54, 79.84 9.05, 79.62 9.57 M69.86 3.18 C77.66 5.26, 85.02 10.79, 89.43 16.45 C93.84 22.11, 96.55 30.22, 96.33 37.14 C96.11 44.07, 92.78 52.29, 88.13 58 C83.49 63.7, 76.14 68.59, 68.46 71.37 C60.78 74.15, 50.8 75.79, 42.04 74.69 C33.29 73.6, 22.67 69.31, 15.94 64.81 C9.21 60.31, 4.15 53.91, 1.65 47.68 C-0.85 41.44, -1.81 34.03, 0.94 27.4 C3.7 20.76, 11.23 12.17, 18.19 7.86 C25.15 3.54, 34.06 2.15, 42.72 1.51 C51.37 0.87, 65.72 3.75, 70.1 4.02 C74.48 4.28, 69.59 2.85, 69 3.09" stroke="#1e1e1e" stroke-width="1" fill="none"></path></g><g stroke-linecap="round" transform="translate(712.25 366.5) rotate(0 48.5 37.5)"><path d="M29.85 2.58 C37.15 -0.27, 48.07 -0.45, 56.83 0.76 C65.6 1.98, 75.88 5.11, 82.45 9.86 C89.02 14.62, 94.38 22.7, 96.24 29.27 C98.11 35.85, 96.58 43.15, 93.63 49.34 C90.69 55.53, 85.23 62.1, 78.58 66.4 C71.94 70.71, 62.48 74.29, 53.77 75.17 C45.06 76.04, 34.02 74.81, 26.3 71.65 C18.57 68.49, 11.95 62.09, 7.43 56.22 C2.91 50.35, -1.02 43.16, -0.85 36.42 C-0.67 29.67, 3.06 21.43, 8.46 15.74 C13.86 10.05, 27.42 4.34, 31.57 2.28 C35.72 0.22, 33.15 2.7, 33.36 3.39 M37.68 -0.04 C45.27 -2.02, 55.07 0.13, 63.47 2.44 C71.87 4.74, 82.48 8.33, 88.09 13.79 C93.69 19.26, 96.71 28.33, 97.08 35.22 C97.46 42.11, 94.62 49.16, 90.35 55.13 C86.08 61.1, 78.86 67.88, 71.47 71.05 C64.08 74.22, 54.59 74.7, 45.99 74.13 C37.39 73.56, 26.77 71.18, 19.87 67.6 C12.97 64.03, 7.92 58.99, 4.61 52.7 C1.29 46.41, -1.28 36.57, -0.02 29.87 C1.24 23.16, 6.2 17.51, 12.18 12.49 C18.16 7.46, 31.86 1.53, 35.87 -0.28 C39.89 -2.1, 35.78 0.71, 36.27 1.6" stroke="none" stroke-width="0" fill="#f8f9fa"></path><path d="M55.46 0.24 C63.74 0.56, 73.71 4.42, 80.4 8.97 C87.09 13.52, 93.08 20.81, 95.62 27.54 C98.16 34.27, 98.38 43.03, 95.66 49.37 C92.94 55.7, 86.12 61.41, 79.3 65.58 C72.49 69.74, 63.57 73.47, 54.78 74.37 C45.99 75.28, 34.35 73.76, 26.56 71.01 C18.77 68.26, 12.61 63.65, 8.06 57.86 C3.5 52.07, -0.73 43.19, -0.77 36.29 C-0.82 29.39, 2.86 21.93, 7.79 16.46 C12.71 10.99, 18.66 5.66, 28.77 3.47 C38.88 1.27, 60.11 2.34, 68.45 3.27 C76.79 4.2, 79.06 8.43, 78.83 9.03 M46.53 -0.81 C54.5 -1.64, 64.96 1.11, 72.3 4.69 C79.65 8.27, 86.55 14.6, 90.61 20.65 C94.67 26.7, 97.26 34.28, 96.66 40.99 C96.06 47.7, 92.55 55.75, 87.01 60.92 C81.47 66.1, 71.81 69.92, 63.39 72.02 C54.98 74.13, 45.07 74.96, 36.53 73.58 C27.99 72.21, 17.89 68.84, 12.17 63.77 C6.45 58.7, 3.47 49.69, 2.2 43.15 C0.94 36.61, 1.3 30.47, 4.59 24.52 C7.88 18.56, 14.85 11.68, 21.93 7.43 C29.02 3.18, 43.05 0.36, 47.11 -0.98 C51.17 -2.33, 46.44 -1.59, 46.31 -0.63" stroke="#1e1e1e" stroke-width="1" fill="none"></path></g><g transform="translate(781.75 453) rotate(0 50 12.5)"><text x="0" y="0" font-family="HanziPen SC, HanziPen Remote, Virgil, KaiTi, Segoe UI Emoji" font-size="20px" fill="#1e1e1e" text-anchor="start" style="white-space: pre;" direction="ltr" dominant-baseline="text-before-edge">呱呱叫行为</text></g><g stroke-linecap="round" transform="translate(501 232) rotate(0 210.5 154)"><path d="M32 0 M32 0 C115.68 0.8, 203.08 0.05, 389 0 M32 0 C142.44 -1.84, 253.79 -2.37, 389 0 M389 0 C412.05 3.11, 419.03 12.43, 421 32 M389 0 C412.6 1.75, 418.08 10.3, 421 32 M421 32 C425.25 129.09, 423.22 225.61, 421 276 M421 32 C418.55 86.72, 420.34 138.24, 421 276 M421 276 C418.18 296.62, 413.6 306.04, 389 308 M421 276 C418.01 293.27, 408.17 309.79, 389 308 M389 308 C282.8 304.47, 181.04 304.19, 32 308 M389 308 C246.71 306.67, 106.71 305.64, 32 308 M32 308 C13.13 306.24, -3.39 296.22, 0 276 M32 308 C11.36 305.51, -0.33 299.23, 0 276 M0 276 C0.97 183.11, -0.07 88.89, 0 32 M0 276 C-5.47 219.86, -3.06 165.09, 0 32 M0 32 C-1.16 11.33, 7.95 -3.15, 32 0 M0 32 C-2.15 13.71, 12.4 2.41, 32 0" stroke="#1e1e1e" stroke-width="2" fill="none"></path></g><g transform="translate(621 486) rotate(0 40 12.5)"><text x="0" y="0" font-family="HanziPen SC, HanziPen Remote, Virgil, KaiTi, Segoe UI Emoji" font-size="20px" fill="#1e1e1e" text-anchor="start" style="white-space: pre;" direction="ltr" dominant-baseline="text-before-edge">鸭子行为</text></g><g stroke-linecap="round"><g transform="translate(207.8384273897875 342.20147655598043) rotate(0 135.8712668051934 -23.433015767348024)"><path d="M0.43 1.48 C22 -6.11, 85.58 -36.43, 130.73 -44.33 C175.87 -52.23, 247.84 -46.09, 271.31 -45.92" stroke="#1e1e1e" stroke-width="1.5" fill="none" stroke-dasharray="1.5 7"></path></g><g transform="translate(207.8384273897875 342.20147655598043) rotate(0 135.8712668051934 -23.433015767348024)"><path d="M244.87 -35.93 C253.82 -41.23, 260.02 -44.09, 272.57 -46.47" stroke="#1e1e1e" stroke-width="1.5" fill="none" stroke-dasharray="1.5 5"></path></g><g transform="translate(207.8384273897875 342.20147655598043) rotate(0 135.8712668051934 -23.433015767348024)"><path d="M245.65 -56.43 C254.51 -54.62, 260.44 -50.37, 272.57 -46.47" stroke="#1e1e1e" stroke-width="1.5" fill="none" stroke-dasharray="1.5 5"></path></g></g><mask></mask><g transform="translate(259 324) rotate(0 90 12.5)"><text x="0" y="0" font-family="HanziPen SC, HanziPen Remote, Virgil, KaiTi, Segoe UI Emoji" font-size="20px" fill="#1e1e1e" text-anchor="start" style="white-space: pre;" direction="ltr" dominant-baseline="text-before-edge">取出易于变化的部分</text></g><g stroke-linecap="round" transform="translate(10 187) rotate(0 490 194.5)"><path d="M32 0 M32 0 C285.61 0, 539.21 0, 948 0 M32 0 C310.24 0, 588.49 0, 948 0 M948 0 C969.33 0, 980 10.67, 980 32 M948 0 C969.33 0, 980 10.67, 980 32 M980 32 C980 156.22, 980 280.44, 980 357 M980 32 C980 152.67, 980 273.34, 980 357 M980 357 C980 378.33, 969.33 389, 948 389 M980 357 C980 378.33, 969.33 389, 948 389 M948 389 C726.33 389, 504.66 389, 32 389 M948 389 C754.44 389, 560.89 389, 32 389 M32 389 C10.67 389, 0 378.33, 0 357 M32 389 C10.67 389, 0 378.33, 0 357 M0 357 C0 232.94, 0 108.89, 0 32 M0 357 C0 238.55, 0 120.11, 0 32 M0 32 C0 10.67, 10.67 0, 32 0 M0 32 C0 10.67, 10.67 0, 32 0" stroke="#1e1e1e" stroke-width="1" fill="none"></path></g><g stroke-linecap="round"><g transform="translate(149.45404374649468 93) rotate(0 29.377610750843644 100)"><path d="M0 0 C9.76 13.83, 55.29 49.67, 58.55 83 C61.8 116.33, 26.05 180.5, 19.55 200 M0 0 C9.76 13.83, 55.29 49.67, 58.55 83 C61.8 116.33, 26.05 180.5, 19.55 200" stroke="#1e1e1e" stroke-width="1" fill="none"></path></g><g transform="translate(149.45404374649468 93) rotate(0 29.377610750843644 100)"><path d="M21.3 170.05 C20.92 176.56, 20.54 183.07, 19.55 200 M21.3 170.05 C20.86 177.58, 20.42 185.11, 19.55 200" stroke="#1e1e1e" stroke-width="1" fill="none"></path></g><g transform="translate(149.45404374649468 93) rotate(0 29.377610750843644 100)"><path d="M40.14 178.19 C35.66 182.93, 31.19 187.67, 19.55 200 M40.14 178.19 C34.96 183.67, 29.79 189.15, 19.55 200" stroke="#1e1e1e" stroke-width="1" fill="none"></path></g></g><mask></mask><g transform="translate(14 10) rotate(0 170 37.5)"><text x="0" y="0" font-family="HanziPen SC, HanziPen Remote, Virgil, KaiTi, Segoe UI Emoji" font-size="20px" fill="#1e1e1e" text-anchor="start" style="white-space: pre;" direction="ltr" dominant-baseline="text-before-edge">Duck类仍是所有鸭子的超类，</text><text x="0" y="25" font-family="HanziPen SC, HanziPen Remote, Virgil, KaiTi, Segoe UI Emoji" font-size="20px" fill="#1e1e1e" text-anchor="start" style="white-space: pre;" direction="ltr" dominant-baseline="text-before-edge">但是飞行和呱呱叫的行为已经被取出，</text><text x="0" y="50" font-family="HanziPen SC, HanziPen Remote, Virgil, KaiTi, Segoe UI Emoji" font-size="20px" fill="#1e1e1e" text-anchor="start" style="white-space: pre;" direction="ltr" dominant-baseline="text-before-edge">放在别的类结构中。</text></g><g transform="translate(341 136) rotate(0 150 12.5)"><text x="0" y="0" font-family="HanziPen SC, HanziPen Remote, Virgil, KaiTi, Segoe UI Emoji" font-size="20px" fill="#1e1e1e" text-anchor="start" style="white-space: pre;" direction="ltr" dominant-baseline="text-before-edge">现在飞行和呱呱叫都有自己的类了</text></g><g transform="translate(721 122) rotate(0 120 12.5)"><text x="0" y="0" font-family="HanziPen SC, HanziPen Remote, Virgil, KaiTi, Segoe UI Emoji" font-size="20px" fill="#1e1e1e" text-anchor="start" style="white-space: pre;" direction="ltr" dominant-baseline="text-before-edge">多种行为的实现被放在这里</text></g><g stroke-linecap="round"><g transform="translate(783 157) rotate(0 -50.428877928471195 61.43206655479037)"><path d="M0.18 -0.38 C-6.34 9.75, -22.11 39.23, -38.83 60.04 C-55.56 80.85, -89.97 113.73, -100.18 124.49 M-1.18 -1.63 C-7.35 8.77, -19.91 40.93, -36.56 61.6 C-53.2 82.27, -90.48 112.27, -101.04 122.41" stroke="#1e1e1e" stroke-width="1" fill="none"></path></g><g transform="translate(783 157) rotate(0 -50.428877928471195 61.43206655479037)"><path d="M-87.4 94.64 C-91.51 104.34, -95.41 113.06, -99.98 122.15 M-87.61 96.23 C-92.06 104.02, -95.6 112.95, -100.4 122.93" stroke="#1e1e1e" stroke-width="1" fill="none"></path></g><g transform="translate(783 157) rotate(0 -50.428877928471195 61.43206655479037)"><path d="M-73.78 109.99 C-82.24 114.71, -90.57 118.42, -99.98 122.15 M-73.99 111.58 C-82.57 114.66, -90.27 118.89, -100.4 122.93" stroke="#1e1e1e" stroke-width="1" fill="none"></path></g></g><mask></mask><g stroke-linecap="round"><g transform="translate(860 159) rotate(0 -14.149440755164278 86.51764194628223)"><path d="M0.09 -0.25 C-0.9 13.89, -0.03 57.07, -4.73 86.02 C-9.42 114.96, -23.9 158.84, -28.1 173.44 M-1.33 -1.42 C-2.55 13.34, -1.02 57.72, -5.53 87.04 C-10.04 116.35, -24.29 159.88, -28.39 174.46" stroke="#1e1e1e" stroke-width="1" fill="none"></path></g><g transform="translate(860 159) rotate(0 -14.149440755164278 86.51764194628223)"><path d="M-30.58 144.97 C-30.8 157.94, -29.39 166.88, -29.06 174.37 M-29.88 145.49 C-29.76 150.32, -28.46 156.12, -28.95 173.49" stroke="#1e1e1e" stroke-width="1" fill="none"></path></g><g transform="translate(860 159) rotate(0 -14.149440755164278 86.51764194628223)"><path d="M-10.92 150.83 C-19.02 161.48, -25.44 168.09, -29.06 174.37 M-10.22 151.34 C-14.16 154.79, -16.88 159.39, -28.95 173.49" stroke="#1e1e1e" stroke-width="1" fill="none"></path></g></g><mask></mask></svg>