<svg version="1.1" xmlns="http://www.w3.org/2000/svg" viewBox="0 0 1572.779428292385 449.68821863258415" width="1572.779428292385" height="449.68821863258415">
  <!-- svg-source:excalidraw -->
  
  <defs>
    <style>
      @font-face {
        font-family: "Virgil";
        src: url("https://excalidraw.com/Virgil.woff2");
      }
      @font-face {
        font-family: "Cascadia";
        src: url("https://excalidraw.com/Cascadia.woff2");
      }
    </style>
  </defs>
  <rect x="0" y="0" width="1572.779428292385" height="449.68821863258415" fill="#ffffff"></rect><g transform="translate(27.5 11.256566306018897) rotate(0 20 13)"><text x="20" y="21" font-family="Cascadia, Segoe UI Emoji" font-size="20px" fill="#000000" text-anchor="middle" style="white-space: pre;" direction="ltr">索引</text></g><g transform="translate(10 58.56011144509026) rotate(0 30 13)"><text x="30" y="21" font-family="Cascadia, Segoe UI Emoji" font-size="20px" fill="#000000" text-anchor="middle" style="white-space: pre;" direction="ltr">哈希桶</text></g><g stroke-linecap="round" transform="translate(88.89919654219142 52.32918616471238) rotate(0 37.5 19.500000000000007)"><path d="M9.75 0 M9.75 0 C30.9 0, 52.04 0, 65.25 0 M9.75 0 C24.54 0, 39.33 0, 65.25 0 M65.25 0 C71.75 0, 75 3.25, 75 9.75 M65.25 0 C71.75 0, 75 3.25, 75 9.75 M75 9.75 C75 14.23, 75 18.7, 75 29.25 M75 9.75 C75 17.12, 75 24.5, 75 29.25 M75 29.25 C75 35.75, 71.75 39, 65.25 39 M75 29.25 C75 35.75, 71.75 39, 65.25 39 M65.25 39 C52.53 39, 39.82 39, 9.75 39 M65.25 39 C50.01 39, 34.78 39, 9.75 39 M9.75 39 C3.25 39, 0 35.75, 0 29.25 M9.75 39 C3.25 39, 0 35.75, 0 29.25 M0 29.25 C0 22.27, 0 15.29, 0 9.75 M0 29.25 C0 24.25, 0 19.26, 0 9.75 M0 9.75 C0 3.25, 3.25 0, 9.75 0 M0 9.75 C0 3.25, 3.25 0, 9.75 0" stroke="#000000" stroke-width="2" fill="none"></path></g><g transform="translate(102.39919654219142 59.32918616471238) rotate(0 23.5 12)"><text x="23.5" y="19" font-family="Cascadia, Segoe UI Emoji" font-size="20px" fill="#000000" text-anchor="middle" style="white-space: pre;" direction="ltr">NULL</text></g><g transform="translate(120.39919654219142 11.025641025641022) rotate(0 6 12)"><text x="6" y="19" font-family="Cascadia, Segoe UI Emoji" font-size="20px" fill="#000000" text-anchor="middle" style="white-space: pre;" direction="ltr">0</text></g><g stroke-linecap="round" transform="translate(164.88888888888886 52.32918616471238) rotate(0 37.5 19.500000000000007)"><path d="M9.75 0 M9.75 0 C27.37 0, 44.99 0, 65.25 0 M9.75 0 C23.66 0, 37.57 0, 65.25 0 M65.25 0 C71.75 0, 75 3.25, 75 9.75 M65.25 0 C71.75 0, 75 3.25, 75 9.75 M75 9.75 C75 16.15, 75 22.54, 75 29.25 M75 9.75 C75 17.25, 75 24.74, 75 29.25 M75 29.25 C75 35.75, 71.75 39, 65.25 39 M75 29.25 C75 35.75, 71.75 39, 65.25 39 M65.25 39 C45.49 39, 25.73 39, 9.75 39 M65.25 39 C51.18 39, 37.11 39, 9.75 39 M9.75 39 C3.25 39, 0 35.75, 0 29.25 M9.75 39 C3.25 39, 0 35.75, 0 29.25 M0 29.25 C0 24.2, 0 19.16, 0 9.75 M0 29.25 C0 22.15, 0 15.06, 0 9.75 M0 9.75 C0 3.25, 3.25 0, 9.75 0 M0 9.75 C0 3.25, 3.25 0, 9.75 0" stroke="#000000" stroke-width="2" fill="none"></path></g><g transform="translate(178.38888888888886 59.32918616471238) rotate(0 23.5 12)"><text x="23.5" y="19" font-family="Cascadia, Segoe UI Emoji" font-size="20px" fill="#000000" text-anchor="middle" style="white-space: pre;" direction="ltr">NULL</text></g><g transform="translate(196.38888888888886 11.025641025641022) rotate(0 6 12)"><text x="6" y="19" font-family="Cascadia, Segoe UI Emoji" font-size="20px" fill="#000000" text-anchor="middle" style="white-space: pre;" direction="ltr">1</text></g><g stroke-linecap="round" transform="translate(241.1601823729842 52.32918616471238) rotate(0 37.5 19.500000000000007)"><path d="M9.75 0 M9.75 0 C24.79 0, 39.82 0, 65.25 0 M9.75 0 C31.87 0, 54 0, 65.25 0 M65.25 0 C71.75 0, 75 3.25, 75 9.75 M65.25 0 C71.75 0, 75 3.25, 75 9.75 M75 9.75 C75 14.96, 75 20.18, 75 29.25 M75 9.75 C75 14.15, 75 18.55, 75 29.25 M75 29.25 C75 35.75, 71.75 39, 65.25 39 M75 29.25 C75 35.75, 71.75 39, 65.25 39 M65.25 39 C53.08 39, 40.9 39, 9.75 39 M65.25 39 C50.68 39, 36.12 39, 9.75 39 M9.75 39 C3.25 39, 0 35.75, 0 29.25 M9.75 39 C3.25 39, 0 35.75, 0 29.25 M0 29.25 C0 24.13, 0 19, 0 9.75 M0 29.25 C0 23.92, 0 18.6, 0 9.75 M0 9.75 C0 3.25, 3.25 0, 9.75 0 M0 9.75 C0 3.25, 3.25 0, 9.75 0" stroke="#000000" stroke-width="2" fill="none"></path></g><g transform="translate(254.6601823729842 59.32918616471238) rotate(0 23.5 12)"><text x="23.5" y="19" font-family="Cascadia, Segoe UI Emoji" font-size="20px" fill="#000000" text-anchor="middle" style="white-space: pre;" direction="ltr">NULL</text></g><g transform="translate(272.6601823729842 11.025641025641022) rotate(0 6 12)"><text x="6" y="19" font-family="Cascadia, Segoe UI Emoji" font-size="20px" fill="#000000" text-anchor="middle" style="white-space: pre;" direction="ltr">2</text></g><g stroke-linecap="round" transform="translate(317.14987471968163 52.32918616471238) rotate(0 37.50000000000003 19.500000000000007)"><path d="M9.75 0 M9.75 0 C22.72 0, 35.69 0, 65.25 0 M9.75 0 C22.2 0, 34.64 0, 65.25 0 M65.25 0 C71.75 0, 75 3.25, 75 9.75 M65.25 0 C71.75 0, 75 3.25, 75 9.75 M75 9.75 C75 15.65, 75 21.54, 75 29.25 M75 9.75 C75 15.42, 75 21.08, 75 29.25 M75 29.25 C75 35.75, 71.75 39, 65.25 39 M75 29.25 C75 35.75, 71.75 39, 65.25 39 M65.25 39 C49.36 39, 33.46 39, 9.75 39 M65.25 39 C51.13 39, 37.01 39, 9.75 39 M9.75 39 C3.25 39, 0 35.75, 0 29.25 M9.75 39 C3.25 39, 0 35.75, 0 29.25 M0 29.25 C0 21.53, 0 13.81, 0 9.75 M0 29.25 C0 22.6, 0 15.95, 0 9.75 M0 9.75 C0 3.25, 3.25 0, 9.75 0 M0 9.75 C0 3.25, 3.25 0, 9.75 0" stroke="#000000" stroke-width="2" fill="none"></path></g><g transform="translate(330.6498747196817 59.32918616471238) rotate(0 23.5 12)"><text x="23.5" y="19" font-family="Cascadia, Segoe UI Emoji" font-size="20px" fill="#000000" text-anchor="middle" style="white-space: pre;" direction="ltr">NULL</text></g><g transform="translate(348.6498747196817 11.025641025641022) rotate(0 6 12)"><text x="6" y="19" font-family="Cascadia, Segoe UI Emoji" font-size="20px" fill="#000000" text-anchor="middle" style="white-space: pre;" direction="ltr">3</text></g><g stroke-linecap="round" transform="translate(392.7143067828818 52.32918616471238) rotate(0 37.5 19.500000000000007)"><path d="M9.75 0 L65.25 0 L69.52 0.61 L72.56 2.44 L74.39 5.48 L75 9.75 L74.39 33.52 L72.56 36.56 L69.52 38.39 L65.25 39 L9.75 39 L5.48 38.39 L2.44 36.56 L0.61 33.52 L0 9.75 L0.61 5.48 L2.44 2.44 L5.48 0.61 L9.75 0" stroke="none" stroke-width="0" fill="#ced4da"></path><path d="M9.75 0 M9.75 0 C31.33 0, 52.9 0, 65.25 0 M9.75 0 C23.26 0, 36.77 0, 65.25 0 M65.25 0 C71.75 0, 75 3.25, 75 9.75 M65.25 0 C71.75 0, 75 3.25, 75 9.75 M75 9.75 C75 15.4, 75 21.06, 75 29.25 M75 9.75 C75 15.68, 75 21.62, 75 29.25 M75 29.25 C75 35.75, 71.75 39, 65.25 39 M75 29.25 C75 35.75, 71.75 39, 65.25 39 M65.25 39 C43.5 39, 21.75 39, 9.75 39 M65.25 39 C49.26 39, 33.26 39, 9.75 39 M9.75 39 C3.25 39, 0 35.75, 0 29.25 M9.75 39 C3.25 39, 0 35.75, 0 29.25 M0 29.25 C0 21.57, 0 13.9, 0 9.75 M0 29.25 C0 24.63, 0 20.01, 0 9.75 M0 9.75 C0 3.25, 3.25 0, 9.75 0 M0 9.75 C0 3.25, 3.25 0, 9.75 0" stroke="#000000" stroke-width="2" fill="none"></path></g><g transform="translate(406.2143067828818 59.32918616471238) rotate(0 23.5 12)"><text x="23.5" y="19" font-family="Cascadia, Segoe UI Emoji" font-size="20px" fill="#000000" text-anchor="middle" style="white-space: pre;" direction="ltr">Node</text></g><g transform="translate(424.2143067828818 11.025641025641022) rotate(0 6 12)"><text x="6" y="19" font-family="Cascadia, Segoe UI Emoji" font-size="20px" fill="#000000" text-anchor="middle" style="white-space: pre;" direction="ltr">4</text></g><g stroke-linecap="round" transform="translate(468.70399912957924 52.32918616471238) rotate(0 37.5 19.500000000000007)"><path d="M9.75 0 M9.75 0 C23.42 0, 37.09 0, 65.25 0 M9.75 0 C23.45 0, 37.15 0, 65.25 0 M65.25 0 C71.75 0, 75 3.25, 75 9.75 M65.25 0 C71.75 0, 75 3.25, 75 9.75 M75 9.75 C75 14.41, 75 19.08, 75 29.25 M75 9.75 C75 15.76, 75 21.78, 75 29.25 M75 29.25 C75 35.75, 71.75 39, 65.25 39 M75 29.25 C75 35.75, 71.75 39, 65.25 39 M65.25 39 C50.15 39, 35.04 39, 9.75 39 M65.25 39 C49.85 39, 34.46 39, 9.75 39 M9.75 39 C3.25 39, 0 35.75, 0 29.25 M9.75 39 C3.25 39, 0 35.75, 0 29.25 M0 29.25 C0 25.2, 0 21.14, 0 9.75 M0 29.25 C0 23.61, 0 17.97, 0 9.75 M0 9.75 C0 3.25, 3.25 0, 9.75 0 M0 9.75 C0 3.25, 3.25 0, 9.75 0" stroke="#000000" stroke-width="2" fill="none"></path></g><g transform="translate(482.20399912957924 59.32918616471238) rotate(0 23.5 12)"><text x="23.5" y="19" font-family="Cascadia, Segoe UI Emoji" font-size="20px" fill="#000000" text-anchor="middle" style="white-space: pre;" direction="ltr">NULL</text></g><g transform="translate(500.20399912957924 11.025641025641022) rotate(0 6 12)"><text x="6" y="19" font-family="Cascadia, Segoe UI Emoji" font-size="20px" fill="#000000" text-anchor="middle" style="white-space: pre;" direction="ltr">5</text></g><g stroke-linecap="round" transform="translate(544.9752926136746 52.32918616471238) rotate(0 37.5 19.500000000000007)"><path d="M9.75 0 M9.75 0 C27.9 0, 46.06 0, 65.25 0 M9.75 0 C24.63 0, 39.5 0, 65.25 0 M65.25 0 C71.75 0, 75 3.25, 75 9.75 M65.25 0 C71.75 0, 75 3.25, 75 9.75 M75 9.75 C75 14.59, 75 19.42, 75 29.25 M75 9.75 C75 16.11, 75 22.48, 75 29.25 M75 29.25 C75 35.75, 71.75 39, 65.25 39 M75 29.25 C75 35.75, 71.75 39, 65.25 39 M65.25 39 C50.03 39, 34.81 39, 9.75 39 M65.25 39 C51.13 39, 37 39, 9.75 39 M9.75 39 C3.25 39, 0 35.75, 0 29.25 M9.75 39 C3.25 39, 0 35.75, 0 29.25 M0 29.25 C0 21.66, 0 14.07, 0 9.75 M0 29.25 C0 24.18, 0 19.1, 0 9.75 M0 9.75 C0 3.25, 3.25 0, 9.75 0 M0 9.75 C0 3.25, 3.25 0, 9.75 0" stroke="#000000" stroke-width="2" fill="none"></path></g><g transform="translate(558.4752926136746 59.32918616471238) rotate(0 23.5 12)"><text x="23.5" y="19" font-family="Cascadia, Segoe UI Emoji" font-size="20px" fill="#000000" text-anchor="middle" style="white-space: pre;" direction="ltr">NULL</text></g><g transform="translate(576.4752926136746 11.025641025641022) rotate(0 6 12)"><text x="6" y="19" font-family="Cascadia, Segoe UI Emoji" font-size="20px" fill="#000000" text-anchor="middle" style="white-space: pre;" direction="ltr">6</text></g><g stroke-linecap="round" transform="translate(620.964984960372 52.32918616471238) rotate(0 37.5 19.500000000000007)"><path d="M9.75 0 M9.75 0 C21.33 0, 32.92 0, 65.25 0 M9.75 0 C21.36 0, 32.98 0, 65.25 0 M65.25 0 C71.75 0, 75 3.25, 75 9.75 M65.25 0 C71.75 0, 75 3.25, 75 9.75 M75 9.75 C75 15.49, 75 21.22, 75 29.25 M75 9.75 C75 17.33, 75 24.91, 75 29.25 M75 29.25 C75 35.75, 71.75 39, 65.25 39 M75 29.25 C75 35.75, 71.75 39, 65.25 39 M65.25 39 C47.75 39, 30.25 39, 9.75 39 M65.25 39 C49.16 39, 33.06 39, 9.75 39 M9.75 39 C3.25 39, 0 35.75, 0 29.25 M9.75 39 C3.25 39, 0 35.75, 0 29.25 M0 29.25 C0 23.64, 0 18.03, 0 9.75 M0 29.25 C0 21.61, 0 13.97, 0 9.75 M0 9.75 C0 3.25, 3.25 0, 9.75 0 M0 9.75 C0 3.25, 3.25 0, 9.75 0" stroke="#000000" stroke-width="2" fill="none"></path></g><g transform="translate(634.464984960372 59.32918616471238) rotate(0 23.5 12)"><text x="23.5" y="19" font-family="Cascadia, Segoe UI Emoji" font-size="20px" fill="#000000" text-anchor="middle" style="white-space: pre;" direction="ltr">NULL</text></g><g transform="translate(652.464984960372 11.025641025641022) rotate(0 6 12)"><text x="6" y="19" font-family="Cascadia, Segoe UI Emoji" font-size="20px" fill="#000000" text-anchor="middle" style="white-space: pre;" direction="ltr">7</text></g><g stroke-linecap="round" transform="translate(696.6429866835545 52.32918616471238) rotate(0 37.5 19.500000000000007)"><path d="M9.75 0 M9.75 0 C28.01 0, 46.27 0, 65.25 0 M9.75 0 C24.7 0, 39.64 0, 65.25 0 M65.25 0 C71.75 0, 75 3.25, 75 9.75 M65.25 0 C71.75 0, 75 3.25, 75 9.75 M75 9.75 C75 14.3, 75 18.84, 75 29.25 M75 9.75 C75 14.99, 75 20.22, 75 29.25 M75 29.25 C75 35.75, 71.75 39, 65.25 39 M75 29.25 C75 35.75, 71.75 39, 65.25 39 M65.25 39 C53.68 39, 42.11 39, 9.75 39 M65.25 39 C48.88 39, 32.5 39, 9.75 39 M9.75 39 C3.25 39, 0 35.75, 0 29.25 M9.75 39 C3.25 39, 0 35.75, 0 29.25 M0 29.25 C0 24.27, 0 19.29, 0 9.75 M0 29.25 C0 24.88, 0 20.51, 0 9.75 M0 9.75 C0 3.25, 3.25 0, 9.75 0 M0 9.75 C0 3.25, 3.25 0, 9.75 0" stroke="#000000" stroke-width="2" fill="none"></path></g><g transform="translate(710.1429866835545 59.32918616471238) rotate(0 23.5 12)"><text x="23.5" y="19" font-family="Cascadia, Segoe UI Emoji" font-size="20px" fill="#000000" text-anchor="middle" style="white-space: pre;" direction="ltr">NULL</text></g><g transform="translate(728.1429866835545 11.025641025641022) rotate(0 6 12)"><text x="6" y="19" font-family="Cascadia, Segoe UI Emoji" font-size="20px" fill="#000000" text-anchor="middle" style="white-space: pre;" direction="ltr">8</text></g><g stroke-linecap="round" transform="translate(772.6326790302519 52.32918616471238) rotate(0 37.49999999999994 19.500000000000007)"><path d="M9.75 0 M9.75 0 C21.29 0, 32.84 0, 65.25 0 M9.75 0 C31.39 0, 53.03 0, 65.25 0 M65.25 0 C71.75 0, 75 3.25, 75 9.75 M65.25 0 C71.75 0, 75 3.25, 75 9.75 M75 9.75 C75 16.09, 75 22.43, 75 29.25 M75 9.75 C75 14.36, 75 18.97, 75 29.25 M75 29.25 C75 35.75, 71.75 39, 65.25 39 M75 29.25 C75 35.75, 71.75 39, 65.25 39 M65.25 39 C45.28 39, 25.31 39, 9.75 39 M65.25 39 C45.44 39, 25.63 39, 9.75 39 M9.75 39 C3.25 39, 0 35.75, 0 29.25 M9.75 39 C3.25 39, 0 35.75, 0 29.25 M0 29.25 C0 22.75, 0 16.26, 0 9.75 M0 29.25 C0 21.62, 0 14, 0 9.75 M0 9.75 C0 3.25, 3.25 0, 9.75 0 M0 9.75 C0 3.25, 3.25 0, 9.75 0" stroke="#000000" stroke-width="2" fill="none"></path></g><g transform="translate(786.1326790302519 59.32918616471238) rotate(0 23.5 12)"><text x="23.5" y="19" font-family="Cascadia, Segoe UI Emoji" font-size="20px" fill="#000000" text-anchor="middle" style="white-space: pre;" direction="ltr">NULL</text></g><g transform="translate(804.1326790302519 11.025641025641022) rotate(0 6 12)"><text x="6" y="19" font-family="Cascadia, Segoe UI Emoji" font-size="20px" fill="#000000" text-anchor="middle" style="white-space: pre;" direction="ltr">9</text></g><g stroke-linecap="round" transform="translate(848.903972514348 52.32918616471238) rotate(0 37.5 19.500000000000007)"><path d="M9.75 0 M9.75 0 C26.32 0, 42.89 0, 65.25 0 M9.75 0 C31.61 0, 53.48 0, 65.25 0 M65.25 0 C71.75 0, 75 3.25, 75 9.75 M65.25 0 C71.75 0, 75 3.25, 75 9.75 M75 9.75 C75 17.36, 75 24.96, 75 29.25 M75 9.75 C75 15.85, 75 21.95, 75 29.25 M75 29.25 C75 35.75, 71.75 39, 65.25 39 M75 29.25 C75 35.75, 71.75 39, 65.25 39 M65.25 39 C53.86 39, 42.47 39, 9.75 39 M65.25 39 C53.71 39, 42.17 39, 9.75 39 M9.75 39 C3.25 39, 0 35.75, 0 29.25 M9.75 39 C3.25 39, 0 35.75, 0 29.25 M0 29.25 C0 23.76, 0 18.27, 0 9.75 M0 29.25 C0 23.98, 0 18.7, 0 9.75 M0 9.75 C0 3.25, 3.25 0, 9.75 0 M0 9.75 C0 3.25, 3.25 0, 9.75 0" stroke="#000000" stroke-width="2" fill="none"></path></g><g transform="translate(862.403972514348 59.32918616471238) rotate(0 23.5 12)"><text x="23.5" y="19" font-family="Cascadia, Segoe UI Emoji" font-size="20px" fill="#000000" text-anchor="middle" style="white-space: pre;" direction="ltr">NULL</text></g><g transform="translate(874.903972514348 11.025641025641022) rotate(0 11.5 12)"><text x="11.5" y="19" font-family="Cascadia, Segoe UI Emoji" font-size="20px" fill="#000000" text-anchor="middle" style="white-space: pre;" direction="ltr">10</text></g><g stroke-linecap="round" transform="translate(924.8936648610452 52.32918616471238) rotate(0 37.5 19.500000000000007)"><path d="M9.75 0 M9.75 0 C27.22 0, 44.7 0, 65.25 0 M9.75 0 C20.97 0, 32.2 0, 65.25 0 M65.25 0 C71.75 0, 75 3.25, 75 9.75 M65.25 0 C71.75 0, 75 3.25, 75 9.75 M75 9.75 C75 15.59, 75 21.43, 75 29.25 M75 9.75 C75 16.12, 75 22.48, 75 29.25 M75 29.25 C75 35.75, 71.75 39, 65.25 39 M75 29.25 C75 35.75, 71.75 39, 65.25 39 M65.25 39 C45.86 39, 26.47 39, 9.75 39 M65.25 39 C51.4 39, 37.56 39, 9.75 39 M9.75 39 C3.25 39, 0 35.75, 0 29.25 M9.75 39 C3.25 39, 0 35.75, 0 29.25 M0 29.25 C0 25.08, 0 20.91, 0 9.75 M0 29.25 C0 21.86, 0 14.47, 0 9.75 M0 9.75 C0 3.25, 3.25 0, 9.75 0 M0 9.75 C0 3.25, 3.25 0, 9.75 0" stroke="#000000" stroke-width="2" fill="none"></path></g><g transform="translate(938.3936648610452 59.32918616471238) rotate(0 23.5 12)"><text x="23.5" y="19" font-family="Cascadia, Segoe UI Emoji" font-size="20px" fill="#000000" text-anchor="middle" style="white-space: pre;" direction="ltr">NULL</text></g><g transform="translate(950.8936648610452 11.025641025641022) rotate(0 11.5 12)"><text x="11.5" y="19" font-family="Cascadia, Segoe UI Emoji" font-size="20px" fill="#000000" text-anchor="middle" style="white-space: pre;" direction="ltr">11</text></g><g stroke-linecap="round" transform="translate(1000.4580969242452 52.32918616471238) rotate(0 37.5 19.500000000000007)"><path d="M9.75 0 M9.75 0 C27.29 0, 44.83 0, 65.25 0 M9.75 0 C23.13 0, 36.51 0, 65.25 0 M65.25 0 C71.75 0, 75 3.25, 75 9.75 M65.25 0 C71.75 0, 75 3.25, 75 9.75 M75 9.75 C75 14.64, 75 19.53, 75 29.25 M75 9.75 C75 14.28, 75 18.81, 75 29.25 M75 29.25 C75 35.75, 71.75 39, 65.25 39 M75 29.25 C75 35.75, 71.75 39, 65.25 39 M65.25 39 C52.57 39, 39.88 39, 9.75 39 M65.25 39 C50.85 39, 36.44 39, 9.75 39 M9.75 39 C3.25 39, 0 35.75, 0 29.25 M9.75 39 C3.25 39, 0 35.75, 0 29.25 M0 29.25 C0 22.57, 0 15.88, 0 9.75 M0 29.25 C0 23.18, 0 17.11, 0 9.75 M0 9.75 C0 3.25, 3.25 0, 9.75 0 M0 9.75 C0 3.25, 3.25 0, 9.75 0" stroke="#000000" stroke-width="2" fill="none"></path></g><g transform="translate(1013.9580969242452 59.32918616471238) rotate(0 23.5 12)"><text x="23.5" y="19" font-family="Cascadia, Segoe UI Emoji" font-size="20px" fill="#000000" text-anchor="middle" style="white-space: pre;" direction="ltr">NULL</text></g><g transform="translate(1026.984412713719 11.025641025641022) rotate(0 11.5 12)"><text x="11.5" y="19" font-family="Cascadia, Segoe UI Emoji" font-size="20px" fill="#000000" text-anchor="middle" style="white-space: pre;" direction="ltr">12</text></g><g stroke-linecap="round" transform="translate(1076.4477892709428 52.32918616471238) rotate(0 37.5 19.500000000000007)"><path d="M9.75 0 M9.75 0 C21.22 0, 32.69 0, 65.25 0 M9.75 0 C22.69 0, 35.62 0, 65.25 0 M65.25 0 C71.75 0, 75 3.25, 75 9.75 M65.25 0 C71.75 0, 75 3.25, 75 9.75 M75 9.75 C75 17.32, 75 24.89, 75 29.25 M75 9.75 C75 13.82, 75 17.88, 75 29.25 M75 29.25 C75 35.75, 71.75 39, 65.25 39 M75 29.25 C75 35.75, 71.75 39, 65.25 39 M65.25 39 C53.8 39, 42.35 39, 9.75 39 M65.25 39 C51.08 39, 36.91 39, 9.75 39 M9.75 39 C3.25 39, 0 35.75, 0 29.25 M9.75 39 C3.25 39, 0 35.75, 0 29.25 M0 29.25 C0 24.96, 0 20.67, 0 9.75 M0 29.25 C0 22.06, 0 14.87, 0 9.75 M0 9.75 C0 3.25, 3.25 0, 9.75 0 M0 9.75 C0 3.25, 3.25 0, 9.75 0" stroke="#000000" stroke-width="2" fill="none"></path></g><g transform="translate(1089.9477892709428 59.32918616471238) rotate(0 23.5 12)"><text x="23.5" y="19" font-family="Cascadia, Segoe UI Emoji" font-size="20px" fill="#000000" text-anchor="middle" style="white-space: pre;" direction="ltr">NULL</text></g><g transform="translate(1102.4477892709428 11.025641025641022) rotate(0 11.5 12)"><text x="11.5" y="19" font-family="Cascadia, Segoe UI Emoji" font-size="20px" fill="#000000" text-anchor="middle" style="white-space: pre;" direction="ltr">13</text></g><g stroke-linecap="round" transform="translate(1152.719082755038 52.32918616471238) rotate(0 37.5 19.500000000000007)"><path d="M9.75 0 M9.75 0 C21.62 0, 33.48 0, 65.25 0 M9.75 0 C27.8 0, 45.84 0, 65.25 0 M65.25 0 C71.75 0, 75 3.25, 75 9.75 M65.25 0 C71.75 0, 75 3.25, 75 9.75 M75 9.75 C75 16.22, 75 22.69, 75 29.25 M75 9.75 C75 16.77, 75 23.78, 75 29.25 M75 29.25 C75 35.75, 71.75 39, 65.25 39 M75 29.25 C75 35.75, 71.75 39, 65.25 39 M65.25 39 C51.49 39, 37.73 39, 9.75 39 M65.25 39 C46.76 39, 28.27 39, 9.75 39 M9.75 39 C3.25 39, 0 35.75, 0 29.25 M9.75 39 C3.25 39, 0 35.75, 0 29.25 M0 29.25 C0 24.76, 0 20.26, 0 9.75 M0 29.25 C0 23.17, 0 17.09, 0 9.75 M0 9.75 C0 3.25, 3.25 0, 9.75 0 M0 9.75 C0 3.25, 3.25 0, 9.75 0" stroke="#000000" stroke-width="2" fill="none"></path></g><g transform="translate(1166.219082755038 59.32918616471238) rotate(0 23.5 12)"><text x="23.5" y="19" font-family="Cascadia, Segoe UI Emoji" font-size="20px" fill="#000000" text-anchor="middle" style="white-space: pre;" direction="ltr">NULL</text></g><g transform="translate(1178.719082755038 11.739926739926716) rotate(0 11.5 12)"><text x="11.5" y="19" font-family="Cascadia, Segoe UI Emoji" font-size="20px" fill="#000000" text-anchor="middle" style="white-space: pre;" direction="ltr">14</text></g><g stroke-linecap="round" transform="translate(392.7143067828818 125.21022605562126) rotate(0 37.5 19.500000000000014)"><path d="M9.75 0 L65.25 0 L69.52 0.61 L72.56 2.44 L74.39 5.48 L75 9.75 L74.39 33.52 L72.56 36.56 L69.52 38.39 L65.25 39 L9.75 39 L5.48 38.39 L2.44 36.56 L0.61 33.52 L0 9.75 L0.61 5.48 L2.44 2.44 L5.48 0.61 L9.75 0" stroke="none" stroke-width="0" fill="#ced4da"></path><path d="M9.75 0 M9.75 0 C24.06 0, 38.37 0, 65.25 0 M9.75 0 C31.28 0, 52.82 0, 65.25 0 M65.25 0 C71.75 0, 75 3.25, 75 9.75 M65.25 0 C71.75 0, 75 3.25, 75 9.75 M75 9.75 C75 14.03, 75 18.32, 75 29.25 M75 9.75 C75 16.25, 75 22.75, 75 29.25 M75 29.25 C75 35.75, 71.75 39, 65.25 39 M75 29.25 C75 35.75, 71.75 39, 65.25 39 M65.25 39 C46.5 39, 27.75 39, 9.75 39 M65.25 39 C53.28 39, 41.32 39, 9.75 39 M9.75 39 C3.25 39, 0 35.75, 0 29.25 M9.75 39 C3.25 39, 0 35.75, 0 29.25 M0 29.25 C0 25, 0 20.75, 0 9.75 M0 29.25 C0 22.63, 0 16, 0 9.75 M0 9.75 C0 3.25, 3.25 0, 9.75 0 M0 9.75 C0 3.25, 3.25 0, 9.75 0" stroke="#000000" stroke-width="2" fill="none"></path></g><g transform="translate(406.2143067828818 132.21022605562126) rotate(0 23.5 12)"><text x="23.5" y="19" font-family="Cascadia, Segoe UI Emoji" font-size="20px" fill="#000000" text-anchor="middle" style="white-space: pre;" direction="ltr">Node</text></g><g stroke-linecap="round" transform="translate(392.7143067828818 197.32972419986203) rotate(0 37.5 19.500000000000014)"><path d="M9.75 0 L65.25 0 L69.52 0.61 L72.56 2.44 L74.39 5.48 L75 9.75 L74.39 33.52 L72.56 36.56 L69.52 38.39 L65.25 39 L9.75 39 L5.48 38.39 L2.44 36.56 L0.61 33.52 L0 9.75 L0.61 5.48 L2.44 2.44 L5.48 0.61 L9.75 0" stroke="none" stroke-width="0" fill="#ced4da"></path><path d="M9.75 0 M9.75 0 C25.92 0, 42.08 0, 65.25 0 M9.75 0 C26.17 0, 42.59 0, 65.25 0 M65.25 0 C71.75 0, 75 3.25, 75 9.75 M65.25 0 C71.75 0, 75 3.25, 75 9.75 M75 9.75 C75 15.5, 75 21.25, 75 29.25 M75 9.75 C75 15.24, 75 20.72, 75 29.25 M75 29.25 C75 35.75, 71.75 39, 65.25 39 M75 29.25 C75 35.75, 71.75 39, 65.25 39 M65.25 39 C48.22 39, 31.2 39, 9.75 39 M65.25 39 C53.13 39, 41.02 39, 9.75 39 M9.75 39 C3.25 39, 0 35.75, 0 29.25 M9.75 39 C3.25 39, 0 35.75, 0 29.25 M0 29.25 C0 23.13, 0 17, 0 9.75 M0 29.25 C0 25.2, 0 21.15, 0 9.75 M0 9.75 C0 3.25, 3.25 0, 9.75 0 M0 9.75 C0 3.25, 3.25 0, 9.75 0" stroke="#000000" stroke-width="2" fill="none"></path></g><g transform="translate(406.2143067828818 204.32972419986203) rotate(0 23.5 12)"><text x="23.5" y="19" font-family="Cascadia, Segoe UI Emoji" font-size="20px" fill="#000000" text-anchor="middle" style="white-space: pre;" direction="ltr">Node</text></g><g stroke-linecap="round" transform="translate(392.7143067828818 269.44922234410274) rotate(0 37.5 19.5)"><path d="M9.75 0 L65.25 0 L69.52 0.61 L72.56 2.44 L74.39 5.48 L75 9.75 L74.39 33.52 L72.56 36.56 L69.52 38.39 L65.25 39 L9.75 39 L5.48 38.39 L2.44 36.56 L0.61 33.52 L0 9.75 L0.61 5.48 L2.44 2.44 L5.48 0.61 L9.75 0" stroke="none" stroke-width="0" fill="#ced4da"></path><path d="M9.75 0 M9.75 0 C23.58 0, 37.41 0, 65.25 0 M9.75 0 C30.88 0, 52.01 0, 65.25 0 M65.25 0 C71.75 0, 75 3.25, 75 9.75 M65.25 0 C71.75 0, 75 3.25, 75 9.75 M75 9.75 C75 13.65, 75 17.56, 75 29.25 M75 9.75 C75 13.77, 75 17.79, 75 29.25 M75 29.25 C75 35.75, 71.75 39, 65.25 39 M75 29.25 C75 35.75, 71.75 39, 65.25 39 M65.25 39 C50.91 39, 36.57 39, 9.75 39 M65.25 39 C48.88 39, 32.5 39, 9.75 39 M9.75 39 C3.25 39, 0 35.75, 0 29.25 M9.75 39 C3.25 39, 0 35.75, 0 29.25 M0 29.25 C0 24.3, 0 19.34, 0 9.75 M0 29.25 C0 24.22, 0 19.19, 0 9.75 M0 9.75 C0 3.25, 3.25 0, 9.75 0 M0 9.75 C0 3.25, 3.25 0, 9.75 0" stroke="#000000" stroke-width="2" fill="none"></path></g><g transform="translate(406.2143067828818 276.44922234410274) rotate(0 23.5 12)"><text x="23.5" y="19" font-family="Cascadia, Segoe UI Emoji" font-size="20px" fill="#000000" text-anchor="middle" style="white-space: pre;" direction="ltr">Node</text></g><g stroke-linecap="round" transform="translate(392.7143067828818 341.5687204883435) rotate(0 37.5 19.5)"><path d="M9.75 0 L65.25 0 L69.52 0.61 L72.56 2.44 L74.39 5.48 L75 9.75 L74.39 33.52 L72.56 36.56 L69.52 38.39 L65.25 39 L9.75 39 L5.48 38.39 L2.44 36.56 L0.61 33.52 L0 9.75 L0.61 5.48 L2.44 2.44 L5.48 0.61 L9.75 0" stroke="none" stroke-width="0" fill="#ced4da"></path><path d="M9.75 0 M9.75 0 C21.06 0, 32.37 0, 65.25 0 M9.75 0 C28.01 0, 46.26 0, 65.25 0 M65.25 0 C71.75 0, 75 3.25, 75 9.75 M65.25 0 C71.75 0, 75 3.25, 75 9.75 M75 9.75 C75 16.46, 75 23.17, 75 29.25 M75 9.75 C75 15.5, 75 21.25, 75 29.25 M75 29.25 C75 35.75, 71.75 39, 65.25 39 M75 29.25 C75 35.75, 71.75 39, 65.25 39 M65.25 39 C51.09 39, 36.94 39, 9.75 39 M65.25 39 C50.7 39, 36.14 39, 9.75 39 M9.75 39 C3.25 39, 0 35.75, 0 29.25 M9.75 39 C3.25 39, 0 35.75, 0 29.25 M0 29.25 C0 23.35, 0 17.46, 0 9.75 M0 29.25 C0 24.05, 0 18.84, 0 9.75 M0 9.75 C0 3.25, 3.25 0, 9.75 0 M0 9.75 C0 3.25, 3.25 0, 9.75 0" stroke="#000000" stroke-width="2" fill="none"></path></g><g transform="translate(406.2143067828818 348.5687204883435) rotate(0 23.5 12)"><text x="23.5" y="19" font-family="Cascadia, Segoe UI Emoji" font-size="20px" fill="#000000" text-anchor="middle" style="white-space: pre;" direction="ltr">Node</text></g><g transform="translate(406.7143067828818 415.68821863258415) rotate(0 23.5 12)"><text x="23.5" y="19" font-family="Cascadia, Segoe UI Emoji" font-size="20px" fill="#000000" text-anchor="middle" style="white-space: pre;" direction="ltr">NULL</text></g><g stroke-linecap="round"><g transform="translate(425.6997774448611 94.3369237286577) rotate(0 -0.26315789473682116 13.15789473684211)"><path d="M0 0 C-0.09 4.39, -0.44 21.93, -0.53 26.32 M0 0 C-0.09 4.39, -0.44 21.93, -0.53 26.32" stroke="#000000" stroke-width="2" fill="none"></path></g><g transform="translate(425.6997774448611 94.3369237286577) rotate(0 -0.26315789473682116 13.15789473684211)"><path d="M-4.78 13.86 C-3.45 17.77, -2.11 21.68, -0.53 26.32 M-4.78 13.86 C-3.33 18.1, -1.88 22.35, -0.53 26.32" stroke="#000000" stroke-width="2" fill="none"></path></g><g transform="translate(425.6997774448611 94.3369237286577) rotate(0 -0.26315789473682116 13.15789473684211)"><path d="M4.22 14.04 C2.73 17.89, 1.24 21.74, -0.53 26.32 M4.22 14.04 C2.6 18.22, 0.99 22.4, -0.53 26.32" stroke="#000000" stroke-width="2" fill="none"></path></g></g><g stroke-linecap="round"><g transform="translate(427.2787248132823 169.07376583392087) rotate(0 -0.263157894736878 11.84210526315789)"><path d="M0 0 C-0.09 3.95, -0.44 19.74, -0.53 23.68 M0 0 C-0.09 3.95, -0.44 19.74, -0.53 23.68" stroke="#000000" stroke-width="2" fill="none"></path></g><g transform="translate(427.2787248132823 169.07376583392087) rotate(0 -0.263157894736878 11.84210526315789)"><path d="M-4.33 12.47 C-2.87 16.76, -1.42 21.05, -0.53 23.68 M-4.33 12.47 C-2.84 16.85, -1.36 21.23, -0.53 23.68" stroke="#000000" stroke-width="2" fill="none"></path></g><g transform="translate(427.2787248132823 169.07376583392087) rotate(0 -0.263157894736878 11.84210526315789)"><path d="M3.77 12.65 C2.13 16.87, 0.48 21.09, -0.53 23.68 M3.77 12.65 C2.09 16.96, 0.42 21.26, -0.53 23.68" stroke="#000000" stroke-width="2" fill="none"></path></g></g><g stroke-linecap="round"><g transform="translate(427.8050406027559 240.65271320234197) rotate(0 -0.26315789473682116 12.368421052631561)"><path d="M0 0 C-0.09 4.12, -0.44 20.61, -0.53 24.74 M0 0 C-0.09 4.12, -0.44 20.61, -0.53 24.74" stroke="#000000" stroke-width="2" fill="none"></path></g><g transform="translate(427.8050406027559 240.65271320234197) rotate(0 -0.26315789473682116 12.368421052631561)"><path d="M-4.51 13.02 C-3.65 15.54, -2.8 18.06, -0.53 24.74 M-4.51 13.02 C-3.17 16.96, -1.83 20.9, -0.53 24.74" stroke="#000000" stroke-width="2" fill="none"></path></g><g transform="translate(427.8050406027559 240.65271320234197) rotate(0 -0.26315789473682116 12.368421052631561)"><path d="M3.95 13.2 C2.99 15.68, 2.03 18.16, -0.53 24.74 M3.95 13.2 C2.45 17.08, 0.94 20.96, -0.53 24.74" stroke="#000000" stroke-width="2" fill="none"></path></g></g><g stroke-linecap="round"><g transform="translate(427.8050406027559 312.75797636023674) rotate(0 -0.26315789473682116 12.89473684210526)"><path d="M0 0 C-0.09 4.3, -0.44 21.49, -0.53 25.79 M0 0 C-0.09 4.3, -0.44 21.49, -0.53 25.79" stroke="#000000" stroke-width="2" fill="none"></path></g><g transform="translate(427.8050406027559 312.75797636023674) rotate(0 -0.26315789473682116 12.89473684210526)"><path d="M-4.69 13.58 C-3.62 16.71, -2.56 19.83, -0.53 25.79 M-4.69 13.58 C-3.46 17.18, -2.24 20.78, -0.53 25.79" stroke="#000000" stroke-width="2" fill="none"></path></g><g transform="translate(427.8050406027559 312.75797636023674) rotate(0 -0.26315789473682116 12.89473684210526)"><path d="M4.13 13.76 C2.94 16.84, 1.75 19.92, -0.53 25.79 M4.13 13.76 C2.76 17.31, 1.39 20.85, -0.53 25.79" stroke="#000000" stroke-width="2" fill="none"></path></g></g><g stroke-linecap="round"><g transform="translate(428.8576721817033 388.0211342549736) rotate(0 0.26315789473682116 13.421052631578931)"><path d="M0 0 C0.09 4.47, 0.44 22.37, 0.53 26.84 M0 0 C0.09 4.47, 0.44 22.37, 0.53 26.84" stroke="#000000" stroke-width="2" fill="none"></path></g><g transform="translate(428.8576721817033 388.0211342549736) rotate(0 0.26315789473682116 13.421052631578931)"><path d="M-4.31 14.32 C-3.31 16.91, -2.31 19.51, 0.53 26.84 M-4.31 14.32 C-3.17 17.28, -2.02 20.24, 0.53 26.84" stroke="#000000" stroke-width="2" fill="none"></path></g><g transform="translate(428.8576721817033 388.0211342549736) rotate(0 0.26315789473682116 13.421052631578931)"><path d="M4.87 14.14 C3.97 16.77, 3.07 19.4, 0.53 26.84 M4.87 14.14 C3.84 17.14, 2.82 20.15, 0.53 26.84" stroke="#000000" stroke-width="2" fill="none"></path></g></g><g stroke-linecap="round"><g transform="translate(461.442885214285 205.85049094046755) rotate(0 19.375 -10.53703785964737)"><path d="M0 0 C6.46 -3.51, 32.29 -17.56, 38.75 -21.07 M0 0 C6.46 -3.51, 32.29 -17.56, 38.75 -21.07" stroke="#000000" stroke-width="2" fill="none"></path></g><g transform="translate(461.442885214285 205.85049094046755) rotate(0 19.375 -10.53703785964737)"><path d="M24.15 -4.55 C28.12 -9.05, 32.1 -13.55, 38.75 -21.07 M24.15 -4.55 C28.13 -9.06, 32.12 -13.57, 38.75 -21.07" stroke="#000000" stroke-width="2" fill="none"></path></g><g transform="translate(461.442885214285 205.85049094046755) rotate(0 19.375 -10.53703785964737)"><path d="M16.94 -17.8 C22.88 -18.69, 28.82 -19.58, 38.75 -21.07 M16.94 -17.8 C22.89 -18.69, 28.84 -19.59, 38.75 -21.07" stroke="#000000" stroke-width="2" fill="none"></path></g></g><g stroke-linecap="round"><g transform="translate(460.817885214285 217.741970436336) rotate(0 19.375 -0.3125)"><path d="M0 0 C6.46 -0.1, 32.29 -0.52, 38.75 -0.63 M0 0 C6.46 -0.1, 32.29 -0.52, 38.75 -0.63" stroke="#000000" stroke-width="2" fill="none"></path></g><g transform="translate(460.817885214285 217.741970436336) rotate(0 19.375 -0.3125)"><path d="M20.65 6.3 C27.39 3.72, 34.13 1.14, 38.75 -0.63 M20.65 6.3 C24.34 4.89, 28.03 3.48, 38.75 -0.63" stroke="#000000" stroke-width="2" fill="none"></path></g><g transform="translate(460.817885214285 217.741970436336) rotate(0 19.375 -0.3125)"><path d="M20.44 -6.96 C27.26 -4.6, 34.07 -2.24, 38.75 -0.63 M20.44 -6.96 C24.17 -5.67, 27.9 -4.38, 38.75 -0.63" stroke="#000000" stroke-width="2" fill="none"></path></g></g><g stroke-linecap="round"><g transform="translate(461.442885214285 228.366970436336) rotate(0 17.1875 9.6875)"><path d="M0 0 C5.73 3.23, 28.65 16.15, 34.38 19.38 M0 0 C5.73 3.23, 28.65 16.15, 34.38 19.38" stroke="#000000" stroke-width="2" fill="none"></path></g><g transform="translate(461.442885214285 228.366970436336) rotate(0 17.1875 9.6875)"><path d="M14.91 16.15 C21.18 17.19, 27.45 18.23, 34.38 19.38 M14.91 16.15 C22.67 17.44, 30.43 18.72, 34.38 19.38" stroke="#000000" stroke-width="2" fill="none"></path></g><g transform="translate(461.442885214285 228.366970436336) rotate(0 17.1875 9.6875)"><path d="M21.54 4.39 C25.67 9.22, 29.81 14.04, 34.38 19.38 M21.54 4.39 C26.66 10.37, 31.78 16.34, 34.38 19.38" stroke="#000000" stroke-width="2" fill="none"></path></g></g><g transform="translate(503.567885214285 171.991970436336) rotate(0 23.5 12)"><text x="23.5" y="19" font-family="Cascadia, Segoe UI Emoji" font-size="20px" fill="#000000" text-anchor="middle" style="white-space: pre;" direction="ltr">hash</text></g><g transform="translate(504.567885214285 205.116970436336) rotate(0 17.5 12)"><text x="17.5" y="19" font-family="Cascadia, Segoe UI Emoji" font-size="20px" fill="#000000" text-anchor="middle" style="white-space: pre;" direction="ltr">key</text></g><g transform="translate(501.317885214285 235.741970436336) rotate(0 29.5 12)"><text x="29.5" y="19" font-family="Cascadia, Segoe UI Emoji" font-size="20px" fill="#000000" text-anchor="middle" style="white-space: pre;" direction="ltr">value</text></g><g transform="translate(432.942885214285 240.83125615062173) rotate(0 23.5 12)"><text x="23.5" y="19" font-family="Cascadia, Segoe UI Emoji" font-size="20px" fill="#000000" text-anchor="middle" style="white-space: pre;" direction="ltr">next</text></g><g transform="translate(1263.399251292212 10) rotate(0 11.5 12)"><text x="11.5" y="19" font-family="Cascadia, Segoe UI Emoji" font-size="20px" fill="#000000" text-anchor="middle" style="white-space: pre;" direction="ltr">15</text></g><g stroke-linecap="round" transform="translate(1229.4230608160215 52.32918616471238) rotate(0 45.83333333333337 19.500000000000007)"><path d="M9.75 0 L81.92 0 L86.18 0.61 L89.23 2.44 L91.06 5.48 L91.67 9.75 L91.06 33.52 L89.23 36.56 L86.18 38.39 L81.92 39 L9.75 39 L5.48 38.39 L2.44 36.56 L0.61 33.52 L0 9.75 L0.61 5.48 L2.44 2.44 L5.48 0.61 L9.75 0" stroke="none" stroke-width="0" fill="#ced4da"></path><path d="M9.75 0 M9.75 0 C24.64 0, 39.52 0, 81.92 0 M9.75 0 C28.17 0, 46.6 0, 81.92 0 M81.92 0 C88.42 0, 91.67 3.25, 91.67 9.75 M81.92 0 C88.42 0, 91.67 3.25, 91.67 9.75 M91.67 9.75 C91.67 14.04, 91.67 18.33, 91.67 29.25 M91.67 9.75 C91.67 16.94, 91.67 24.13, 91.67 29.25 M91.67 29.25 C91.67 35.75, 88.42 39, 81.92 39 M91.67 29.25 C91.67 35.75, 88.42 39, 81.92 39 M81.92 39 C60.52 39, 39.13 39, 9.75 39 M81.92 39 C63.32 39, 44.73 39, 9.75 39 M9.75 39 C3.25 39, 0 35.75, 0 29.25 M9.75 39 C3.25 39, 0 35.75, 0 29.25 M0 29.25 C0 21.61, 0 13.97, 0 9.75 M0 29.25 C0 24.1, 0 18.96, 0 9.75 M0 9.75 C0 3.25, 3.25 0, 9.75 0 M0 9.75 C0 3.25, 3.25 0, 9.75 0" stroke="#000000" stroke-width="2" fill="none"></path></g><g transform="translate(1237.756394149355 62.32918616471238) rotate(0 37.5 9.5)"><text x="37.5" y="15" font-family="Cascadia, Segoe UI Emoji" font-size="16px" fill="#000000" text-anchor="middle" style="white-space: pre;" direction="ltr">TreeNode</text></g><g stroke-linecap="round" transform="translate(1119.1286346415911 140.5522043478895) rotate(0 45.83333333333337 19.5)"><path d="M9.75 0 L81.92 0 L86.18 0.61 L89.23 2.44 L91.06 5.48 L91.67 9.75 L91.06 33.52 L89.23 36.56 L86.18 38.39 L81.92 39 L9.75 39 L5.48 38.39 L2.44 36.56 L0.61 33.52 L0 9.75 L0.61 5.48 L2.44 2.44 L5.48 0.61 L9.75 0" stroke="none" stroke-width="0" fill="#ced4da"></path><path d="M9.75 0 M9.75 0 C37.23 0, 64.7 0, 81.92 0 M9.75 0 C36.96 0, 64.17 0, 81.92 0 M81.92 0 C88.42 0, 91.67 3.25, 91.67 9.75 M81.92 0 C88.42 0, 91.67 3.25, 91.67 9.75 M91.67 9.75 C91.67 17.33, 91.67 24.91, 91.67 29.25 M91.67 9.75 C91.67 17.1, 91.67 24.44, 91.67 29.25 M91.67 29.25 C91.67 35.75, 88.42 39, 81.92 39 M91.67 29.25 C91.67 35.75, 88.42 39, 81.92 39 M81.92 39 C61.5 39, 41.09 39, 9.75 39 M81.92 39 C64.78 39, 47.65 39, 9.75 39 M9.75 39 C3.25 39, 0 35.75, 0 29.25 M9.75 39 C3.25 39, 0 35.75, 0 29.25 M0 29.25 C0 23.74, 0 18.24, 0 9.75 M0 29.25 C0 23.83, 0 18.4, 0 9.75 M0 9.75 C0 3.25, 3.25 0, 9.75 0 M0 9.75 C0 3.25, 3.25 0, 9.75 0" stroke="#000000" stroke-width="2" fill="none"></path></g><g transform="translate(1127.4619679749246 150.5522043478895) rotate(0 37.5 9.5)"><text x="37.5" y="15" font-family="Cascadia, Segoe UI Emoji" font-size="16px" fill="#000000" text-anchor="middle" style="white-space: pre;" direction="ltr">TreeNode</text></g><g stroke-linecap="round" transform="translate(1332.3429203558774 140.5522043478895) rotate(0 45.83333333333337 19.5)"><path d="M9.75 0 L81.92 0 L86.18 0.61 L89.23 2.44 L91.06 5.48 L91.67 9.75 L91.06 33.52 L89.23 36.56 L86.18 38.39 L81.92 39 L9.75 39 L5.48 38.39 L2.44 36.56 L0.61 33.52 L0 9.75 L0.61 5.48 L2.44 2.44 L5.48 0.61 L9.75 0" stroke="none" stroke-width="0" fill="#fa5252"></path><path d="M9.75 0 M9.75 0 C26.7 0, 43.65 0, 81.92 0 M9.75 0 C30.3 0, 50.86 0, 81.92 0 M81.92 0 C88.42 0, 91.67 3.25, 91.67 9.75 M81.92 0 C88.42 0, 91.67 3.25, 91.67 9.75 M91.67 9.75 C91.67 15.4, 91.67 21.04, 91.67 29.25 M91.67 9.75 C91.67 16.1, 91.67 22.46, 91.67 29.25 M91.67 29.25 C91.67 35.75, 88.42 39, 81.92 39 M91.67 29.25 C91.67 35.75, 88.42 39, 81.92 39 M81.92 39 C66.91 39, 51.89 39, 9.75 39 M81.92 39 C54.53 39, 27.15 39, 9.75 39 M9.75 39 C3.25 39, 0 35.75, 0 29.25 M9.75 39 C3.25 39, 0 35.75, 0 29.25 M0 29.25 C0 23.18, 0 17.11, 0 9.75 M0 29.25 C0 22.05, 0 14.85, 0 9.75 M0 9.75 C0 3.25, 3.25 0, 9.75 0 M0 9.75 C0 3.25, 3.25 0, 9.75 0" stroke="#000000" stroke-width="2" fill="none"></path></g><g transform="translate(1340.6762536892109 150.5522043478895) rotate(0 37.5 9.5)"><text x="37.5" y="15" font-family="Cascadia, Segoe UI Emoji" font-size="16px" fill="#000000" text-anchor="middle" style="white-space: pre;" direction="ltr">TreeNode</text></g><g stroke-linecap="round" transform="translate(1055.5572060701634 214.1236329193182) rotate(0 45.83333333333337 19.500000000000014)"><path d="M9.75 0 L81.92 0 L86.18 0.61 L89.23 2.44 L91.06 5.48 L91.67 9.75 L91.06 33.52 L89.23 36.56 L86.18 38.39 L81.92 39 L9.75 39 L5.48 38.39 L2.44 36.56 L0.61 33.52 L0 9.75 L0.61 5.48 L2.44 2.44 L5.48 0.61 L9.75 0" stroke="none" stroke-width="0" fill="#fa5252"></path><path d="M9.75 0 M9.75 0 C36.93 0, 64.1 0, 81.92 0 M9.75 0 C33.1 0, 56.45 0, 81.92 0 M81.92 0 C88.42 0, 91.67 3.25, 91.67 9.75 M81.92 0 C88.42 0, 91.67 3.25, 91.67 9.75 M91.67 9.75 C91.67 14.69, 91.67 19.63, 91.67 29.25 M91.67 9.75 C91.67 15.88, 91.67 22, 91.67 29.25 M91.67 29.25 C91.67 35.75, 88.42 39, 81.92 39 M91.67 29.25 C91.67 35.75, 88.42 39, 81.92 39 M81.92 39 C55.96 39, 29.99 39, 9.75 39 M81.92 39 C67.38 39, 52.84 39, 9.75 39 M9.75 39 C3.25 39, 0 35.75, 0 29.25 M9.75 39 C3.25 39, 0 35.75, 0 29.25 M0 29.25 C0 22.08, 0 14.91, 0 9.75 M0 29.25 C0 23.55, 0 17.86, 0 9.75 M0 9.75 C0 3.25, 3.25 0, 9.75 0 M0 9.75 C0 3.25, 3.25 0, 9.75 0" stroke="#000000" stroke-width="2" fill="none"></path></g><g transform="translate(1063.8905394034964 224.1236329193182) rotate(0 37.5 9.5)"><text x="37.5" y="15" font-family="Cascadia, Segoe UI Emoji" font-size="16px" fill="#000000" text-anchor="middle" style="white-space: pre;" direction="ltr">TreeNode</text></g><g stroke-linecap="round" transform="translate(1169.8429203558776 214.12363291931823) rotate(0 45.83333333333337 19.5)"><path d="M9.75 0 L81.92 0 L86.18 0.61 L89.23 2.44 L91.06 5.48 L91.67 9.75 L91.06 33.52 L89.23 36.56 L86.18 38.39 L81.92 39 L9.75 39 L5.48 38.39 L2.44 36.56 L0.61 33.52 L0 9.75 L0.61 5.48 L2.44 2.44 L5.48 0.61 L9.75 0" stroke="none" stroke-width="0" fill="#fa5252"></path><path d="M9.75 0 M9.75 0 C29.36 0, 48.97 0, 81.92 0 M9.75 0 C31.03 0, 52.31 0, 81.92 0 M81.92 0 C88.42 0, 91.67 3.25, 91.67 9.75 M81.92 0 C88.42 0, 91.67 3.25, 91.67 9.75 M91.67 9.75 C91.67 16.83, 91.67 23.9, 91.67 29.25 M91.67 9.75 C91.67 15.31, 91.67 20.87, 91.67 29.25 M91.67 29.25 C91.67 35.75, 88.42 39, 81.92 39 M91.67 29.25 C91.67 35.75, 88.42 39, 81.92 39 M81.92 39 C67.18 39, 52.44 39, 9.75 39 M81.92 39 C58.21 39, 34.5 39, 9.75 39 M9.75 39 C3.25 39, 0 35.75, 0 29.25 M9.75 39 C3.25 39, 0 35.75, 0 29.25 M0 29.25 C0 24.44, 0 19.62, 0 9.75 M0 29.25 C0 22.8, 0 16.34, 0 9.75 M0 9.75 C0 3.25, 3.25 0, 9.75 0 M0 9.75 C0 3.25, 3.25 0, 9.75 0" stroke="#000000" stroke-width="2" fill="none"></path></g><g transform="translate(1178.1762536892106 224.12363291931823) rotate(0 37.5 9.5)"><text x="37.5" y="15" font-family="Cascadia, Segoe UI Emoji" font-size="16px" fill="#000000" text-anchor="middle" style="white-space: pre;" direction="ltr">TreeNode</text></g><g stroke-linecap="round" transform="translate(1284.1286346415918 214.12363291931823) rotate(0 45.83333333333337 19.5)"><path d="M9.75 0 L81.92 0 L86.18 0.61 L89.23 2.44 L91.06 5.48 L91.67 9.75 L91.06 33.52 L89.23 36.56 L86.18 38.39 L81.92 39 L9.75 39 L5.48 38.39 L2.44 36.56 L0.61 33.52 L0 9.75 L0.61 5.48 L2.44 2.44 L5.48 0.61 L9.75 0" stroke="none" stroke-width="0" fill="#ced4da"></path><path d="M9.75 0 M9.75 0 C34.89 0, 60.02 0, 81.92 0 M9.75 0 C35.6 0, 61.46 0, 81.92 0 M81.92 0 C88.42 0, 91.67 3.25, 91.67 9.75 M81.92 0 C88.42 0, 91.67 3.25, 91.67 9.75 M91.67 9.75 C91.67 15.02, 91.67 20.28, 91.67 29.25 M91.67 9.75 C91.67 13.67, 91.67 17.58, 91.67 29.25 M91.67 29.25 C91.67 35.75, 88.42 39, 81.92 39 M91.67 29.25 C91.67 35.75, 88.42 39, 81.92 39 M81.92 39 C63.17 39, 44.43 39, 9.75 39 M81.92 39 C65.42 39, 48.92 39, 9.75 39 M9.75 39 C3.25 39, 0 35.75, 0 29.25 M9.75 39 C3.25 39, 0 35.75, 0 29.25 M0 29.25 C0 24.83, 0 20.4, 0 9.75 M0 29.25 C0 23.92, 0 18.59, 0 9.75 M0 9.75 C0 3.25, 3.25 0, 9.75 0 M0 9.75 C0 3.25, 3.25 0, 9.75 0" stroke="#000000" stroke-width="2" fill="none"></path></g><g transform="translate(1292.4619679749248 224.12363291931823) rotate(0 37.5 9.5)"><text x="37.5" y="15" font-family="Cascadia, Segoe UI Emoji" font-size="16px" fill="#000000" text-anchor="middle" style="white-space: pre;" direction="ltr">TreeNode</text></g><g stroke-linecap="round" transform="translate(1398.414348927306 214.12363291931823) rotate(0 45.83333333333337 19.5)"><path d="M9.75 0 L81.92 0 L86.18 0.61 L89.23 2.44 L91.06 5.48 L91.67 9.75 L91.06 33.52 L89.23 36.56 L86.18 38.39 L81.92 39 L9.75 39 L5.48 38.39 L2.44 36.56 L0.61 33.52 L0 9.75 L0.61 5.48 L2.44 2.44 L5.48 0.61 L9.75 0" stroke="none" stroke-width="0" fill="#ced4da"></path><path d="M9.75 0 M9.75 0 C30.94 0, 52.14 0, 81.92 0 M9.75 0 C28 0, 46.25 0, 81.92 0 M81.92 0 C88.42 0, 91.67 3.25, 91.67 9.75 M81.92 0 C88.42 0, 91.67 3.25, 91.67 9.75 M91.67 9.75 C91.67 13.88, 91.67 18.01, 91.67 29.25 M91.67 9.75 C91.67 14.9, 91.67 20.04, 91.67 29.25 M91.67 29.25 C91.67 35.75, 88.42 39, 81.92 39 M91.67 29.25 C91.67 35.75, 88.42 39, 81.92 39 M81.92 39 C56.24 39, 30.57 39, 9.75 39 M81.92 39 C61.64 39, 41.37 39, 9.75 39 M9.75 39 C3.25 39, 0 35.75, 0 29.25 M9.75 39 C3.25 39, 0 35.75, 0 29.25 M0 29.25 C0 21.54, 0 13.83, 0 9.75 M0 29.25 C0 24.05, 0 18.85, 0 9.75 M0 9.75 C0 3.25, 3.25 0, 9.75 0 M0 9.75 C0 3.25, 3.25 0, 9.75 0" stroke="#000000" stroke-width="2" fill="none"></path></g><g transform="translate(1406.747682260639 224.12363291931823) rotate(0 37.5 9.5)"><text x="37.5" y="15" font-family="Cascadia, Segoe UI Emoji" font-size="16px" fill="#000000" text-anchor="middle" style="white-space: pre;" direction="ltr">TreeNode</text></g><g stroke-linecap="round" transform="translate(1338.2556187685761 293.32998212566736) rotate(0 45.83333333333337 19.5)"><path d="M9.75 0 L81.92 0 L86.18 0.61 L89.23 2.44 L91.06 5.48 L91.67 9.75 L91.06 33.52 L89.23 36.56 L86.18 38.39 L81.92 39 L9.75 39 L5.48 38.39 L2.44 36.56 L0.61 33.52 L0 9.75 L0.61 5.48 L2.44 2.44 L5.48 0.61 L9.75 0" stroke="none" stroke-width="0" fill="#fa5252"></path><path d="M9.75 0 M9.75 0 C31.43 0, 53.12 0, 81.92 0 M9.75 0 C34.09 0, 58.42 0, 81.92 0 M81.92 0 C88.42 0, 91.67 3.25, 91.67 9.75 M81.92 0 C88.42 0, 91.67 3.25, 91.67 9.75 M91.67 9.75 C91.67 15.72, 91.67 21.68, 91.67 29.25 M91.67 9.75 C91.67 17, 91.67 24.25, 91.67 29.25 M91.67 29.25 C91.67 35.75, 88.42 39, 81.92 39 M91.67 29.25 C91.67 35.75, 88.42 39, 81.92 39 M81.92 39 C64.16 39, 46.4 39, 9.75 39 M81.92 39 C53.43 39, 24.95 39, 9.75 39 M9.75 39 C3.25 39, 0 35.75, 0 29.25 M9.75 39 C3.25 39, 0 35.75, 0 29.25 M0 29.25 C0 23.78, 0 18.31, 0 9.75 M0 29.25 C0 24.55, 0 19.85, 0 9.75 M0 9.75 C0 3.25, 3.25 0, 9.75 0 M0 9.75 C0 3.25, 3.25 0, 9.75 0" stroke="#000000" stroke-width="2" fill="none"></path></g><g transform="translate(1346.5889521019092 303.32998212566736) rotate(0 37.5 9.5)"><text x="37.5" y="15" font-family="Cascadia, Segoe UI Emoji" font-size="16px" fill="#000000" text-anchor="middle" style="white-space: pre;" direction="ltr">TreeNode</text></g><g stroke-linecap="round" transform="translate(1471.1127616257183 293.32998212566736) rotate(0 45.83333333333337 19.5)"><path d="M9.75 0 L81.92 0 L86.18 0.61 L89.23 2.44 L91.06 5.48 L91.67 9.75 L91.06 33.52 L89.23 36.56 L86.18 38.39 L81.92 39 L9.75 39 L5.48 38.39 L2.44 36.56 L0.61 33.52 L0 9.75 L0.61 5.48 L2.44 2.44 L5.48 0.61 L9.75 0" stroke="none" stroke-width="0" fill="#fa5252"></path><path d="M9.75 0 M9.75 0 C37.62 0, 65.5 0, 81.92 0 M9.75 0 C37.17 0, 64.58 0, 81.92 0 M81.92 0 C88.42 0, 91.67 3.25, 91.67 9.75 M81.92 0 C88.42 0, 91.67 3.25, 91.67 9.75 M91.67 9.75 C91.67 16.33, 91.67 22.9, 91.67 29.25 M91.67 9.75 C91.67 14.2, 91.67 18.66, 91.67 29.25 M91.67 29.25 C91.67 35.75, 88.42 39, 81.92 39 M91.67 29.25 C91.67 35.75, 88.42 39, 81.92 39 M81.92 39 C58.01 39, 34.1 39, 9.75 39 M81.92 39 C61.96 39, 42.01 39, 9.75 39 M9.75 39 C3.25 39, 0 35.75, 0 29.25 M9.75 39 C3.25 39, 0 35.75, 0 29.25 M0 29.25 C0 24.79, 0 20.32, 0 9.75 M0 29.25 C0 23.98, 0 18.71, 0 9.75 M0 9.75 C0 3.25, 3.25 0, 9.75 0 M0 9.75 C0 3.25, 3.25 0, 9.75 0" stroke="#000000" stroke-width="2" fill="none"></path></g><g transform="translate(1479.4460949590514 303.32998212566736) rotate(0 37.5 9.5)"><text x="37.5" y="15" font-family="Cascadia, Segoe UI Emoji" font-size="16px" fill="#000000" text-anchor="middle" style="white-space: pre;" direction="ltr">TreeNode</text></g><g stroke-linecap="round"><g transform="translate(1258.7357774987347 100.87363291931828) rotate(0 -43.33333333333337 16.111111111111114)"><path d="M0 0 C-14.44 5.37, -72.22 26.85, -86.67 32.22 M0 0 C-14.44 5.37, -72.22 26.85, -86.67 32.22" stroke="#000000" stroke-width="2" fill="none"></path></g><g transform="translate(1258.7357774987347 100.87363291931828) rotate(0 -43.33333333333337 16.111111111111114)"><path d="M-63.82 12.78 C-70.18 18.19, -76.53 23.6, -86.67 32.22 M-63.82 12.78 C-69.43 17.56, -75.04 22.33, -86.67 32.22" stroke="#000000" stroke-width="2" fill="none"></path></g><g transform="translate(1258.7357774987347 100.87363291931828) rotate(0 -43.33333333333337 16.111111111111114)"><path d="M-56.67 32.02 C-65.01 32.07, -73.36 32.13, -86.67 32.22 M-56.67 32.02 C-64.04 32.07, -71.41 32.12, -86.67 32.22" stroke="#000000" stroke-width="2" fill="none"></path></g></g><g stroke-linecap="round"><g transform="translate(1285.4024441654012 101.98474403042943) rotate(0 44.44444444444446 15)"><path d="M0 0 C14.81 5, 74.07 25, 88.89 30 M0 0 C14.81 5, 74.07 25, 88.89 30" stroke="#000000" stroke-width="2" fill="none"></path></g><g transform="translate(1285.4024441654012 101.98474403042943) rotate(0 44.44444444444446 15)"><path d="M58.9 30.71 C67.61 30.5, 76.32 30.3, 88.89 30 M58.9 30.71 C68.45 30.48, 78 30.26, 88.89 30" stroke="#000000" stroke-width="2" fill="none"></path></g><g transform="translate(1285.4024441654012 101.98474403042943) rotate(0 44.44444444444446 15)"><path d="M65.46 11.26 C72.26 16.7, 79.07 22.15, 88.89 30 M65.46 11.26 C72.92 17.23, 80.38 23.2, 88.89 30" stroke="#000000" stroke-width="2" fill="none"></path></g></g><g stroke-linecap="round"><g transform="translate(1139.8468886098458 189.7625218082072) rotate(0 -15 8.333333333333314)"><path d="M0 0 C-5 2.78, -25 13.89, -30 16.67 M0 0 C-5 2.78, -25 13.89, -30 16.67" stroke="#000000" stroke-width="2" fill="none"></path></g><g transform="translate(1139.8468886098458 189.7625218082072) rotate(0 -15 8.333333333333314)"><path d="M-18.75 3.71 C-22.82 8.39, -26.88 13.07, -30 16.67 M-18.75 3.71 C-23.08 8.69, -27.41 13.68, -30 16.67" stroke="#000000" stroke-width="2" fill="none"></path></g><g transform="translate(1139.8468886098458 189.7625218082072) rotate(0 -15 8.333333333333314)"><path d="M-13.05 13.97 C-19.18 14.94, -25.3 15.92, -30 16.67 M-13.05 13.97 C-19.57 15.01, -26.09 16.04, -30 16.67" stroke="#000000" stroke-width="2" fill="none"></path></g></g><g stroke-linecap="round"><g transform="translate(1172.138555276513 187.77839482408015) rotate(0 17.8125 10)"><path d="M0 0 C5.94 3.33, 29.69 16.67, 35.63 20 M0 0 C5.94 3.33, 29.69 16.67, 35.63 20" stroke="#000000" stroke-width="2" fill="none"></path></g><g transform="translate(1172.138555276513 187.77839482408015) rotate(0 17.8125 10)"><path d="M15.47 16.7 C23.17 17.96, 30.87 19.22, 35.63 20 M15.47 16.7 C21.91 17.75, 28.35 18.81, 35.63 20" stroke="#000000" stroke-width="2" fill="none"></path></g><g transform="translate(1172.138555276513 187.77839482408015) rotate(0 17.8125 10)"><path d="M22.31 4.51 C27.4 10.43, 32.49 16.35, 35.63 20 M22.31 4.51 C26.56 9.46, 30.82 14.41, 35.63 20" stroke="#000000" stroke-width="2" fill="none"></path></g></g><g stroke-linecap="round"><g transform="translate(1362.763555276513 187.77839482408015) rotate(0 -16.25 9.375)"><path d="M0 0 C-5.42 3.13, -27.08 15.63, -32.5 18.75 M0 0 C-5.42 3.13, -27.08 15.63, -32.5 18.75" stroke="#000000" stroke-width="2" fill="none"></path></g><g transform="translate(1362.763555276513 187.77839482408015) rotate(0 -16.25 9.375)"><path d="M-20.44 4.38 C-22.94 7.37, -25.45 10.35, -32.5 18.75 M-20.44 4.38 C-24.12 8.77, -27.81 13.16, -32.5 18.75" stroke="#000000" stroke-width="2" fill="none"></path></g><g transform="translate(1362.763555276513 187.77839482408015) rotate(0 -16.25 9.375)"><path d="M-14.02 15.5 C-17.86 16.17, -21.7 16.85, -32.5 18.75 M-14.02 15.5 C-19.67 16.49, -25.31 17.48, -32.5 18.75" stroke="#000000" stroke-width="2" fill="none"></path></g></g><g stroke-linecap="round"><g transform="translate(1386.513555276513 190.27839482408015) rotate(0 20 8.75)"><path d="M0 0 C6.67 2.92, 33.33 14.58, 40 17.5 M0 0 C6.67 2.92, 33.33 14.58, 40 17.5" stroke="#000000" stroke-width="2" fill="none"></path></g><g transform="translate(1386.513555276513 190.27839482408015) rotate(0 20 8.75)"><path d="M18.21 16.12 C23.38 16.45, 28.55 16.77, 40 17.5 M18.21 16.12 C26.47 16.64, 34.72 17.16, 40 17.5" stroke="#000000" stroke-width="2" fill="none"></path></g><g transform="translate(1386.513555276513 190.27839482408015) rotate(0 20 8.75)"><path d="M24.2 2.44 C27.95 6.01, 31.7 9.59, 40 17.5 M24.2 2.44 C30.18 8.14, 36.17 13.85, 40 17.5" stroke="#000000" stroke-width="2" fill="none"></path></g></g><g stroke-linecap="round"><g transform="translate(1422.763555276513 263.4033948240801) rotate(0 -18.75 10.9375)"><path d="M0 0 C-6.25 3.65, -31.25 18.23, -37.5 21.88 M0 0 C-6.25 3.65, -31.25 18.23, -37.5 21.88" stroke="#000000" stroke-width="2" fill="none"></path></g><g transform="translate(1422.763555276513 263.4033948240801) rotate(0 -18.75 10.9375)"><path d="M-23.62 5.18 C-27.9 10.33, -32.18 15.48, -37.5 21.88 M-23.62 5.18 C-27.87 10.3, -32.13 15.41, -37.5 21.88" stroke="#000000" stroke-width="2" fill="none"></path></g><g transform="translate(1422.763555276513 263.4033948240801) rotate(0 -18.75 10.9375)"><path d="M-16.14 18.01 C-22.73 19.2, -29.31 20.39, -37.5 21.88 M-16.14 18.01 C-22.69 19.19, -29.23 20.38, -37.5 21.88" stroke="#000000" stroke-width="2" fill="none"></path></g></g><g stroke-linecap="round"><g transform="translate(1464.013555276513 263.4033948240801) rotate(0 22.1875 10.3125)"><path d="M0 0 C7.4 3.44, 36.98 17.19, 44.38 20.63 M0 0 C7.4 3.44, 36.98 17.19, 44.38 20.63" stroke="#000000" stroke-width="2" fill="none"></path></g><g transform="translate(1464.013555276513 263.4033948240801) rotate(0 22.1875 10.3125)"><path d="M20 18.52 C25.57 19, 31.14 19.48, 44.38 20.63 M20 18.52 C25.1 18.96, 30.21 19.4, 44.38 20.63" stroke="#000000" stroke-width="2" fill="none"></path></g><g transform="translate(1464.013555276513 263.4033948240801) rotate(0 22.1875 10.3125)"><path d="M27.05 3.35 C31.01 7.29, 34.97 11.24, 44.38 20.63 M27.05 3.35 C30.68 6.96, 34.31 10.58, 44.38 20.63" stroke="#000000" stroke-width="2" fill="none"></path></g></g><g transform="translate(1222.6014600617868 117.25167738946826) rotate(0 19 9.5)"><text x="19" y="15" font-family="Cascadia, Segoe UI Emoji" font-size="16px" fill="#000000" text-anchor="middle" style="white-space: pre;" direction="ltr">left</text></g><g transform="translate(1277.2897571448204 116.42132645385428) rotate(0 23.5 9.5)"><text x="23.5" y="15" font-family="Cascadia, Segoe UI Emoji" font-size="16px" fill="#000000" text-anchor="middle" style="white-space: pre;" direction="ltr">right</text></g><g stroke-linecap="round"><g transform="translate(1325.6727705508526 57.08602006515886) rotate(0 23.75 -12.8125)"><path d="M0 0 C7.92 -4.27, 39.58 -21.35, 47.5 -25.63 M0 0 C7.92 -4.27, 39.58 -21.35, 47.5 -25.63" stroke="#000000" stroke-width="2" fill="none"></path></g><g transform="translate(1325.6727705508526 57.08602006515886) rotate(0 23.75 -12.8125)"><path d="M29.56 -5.46 C33.96 -10.41, 38.37 -15.36, 47.5 -25.63 M29.56 -5.46 C35.25 -11.86, 40.94 -18.25, 47.5 -25.63" stroke="#000000" stroke-width="2" fill="none"></path></g><g transform="translate(1325.6727705508526 57.08602006515886) rotate(0 23.75 -12.8125)"><path d="M20.8 -21.71 C27.35 -22.67, 33.9 -23.63, 47.5 -25.63 M20.8 -21.71 C29.27 -22.95, 37.74 -24.19, 47.5 -25.63" stroke="#000000" stroke-width="2" fill="none"></path></g></g><g transform="translate(1378.5477705508526 20.211020065158863) rotate(0 19 9.5)"><text x="19" y="15" font-family="Cascadia, Segoe UI Emoji" font-size="16px" fill="#000000" text-anchor="middle" style="white-space: pre;" direction="ltr">hash</text></g><g stroke-linecap="round"><g transform="translate(1329.4227705508526 73.80366521990555) rotate(0 22.8125 -0.8069718902701624)"><path d="M0 0 C7.6 -0.27, 38.02 -1.34, 45.63 -1.61 M0 0 C7.6 -0.27, 38.02 -1.34, 45.63 -1.61" stroke="#000000" stroke-width="2" fill="none"></path></g><g transform="translate(1329.4227705508526 73.80366521990555) rotate(0 22.8125 -0.8069718902701624)"><path d="M24.46 6.95 C32.85 3.55, 41.23 0.16, 45.63 -1.61 M24.46 6.95 C30.87 4.36, 37.27 1.76, 45.63 -1.61" stroke="#000000" stroke-width="2" fill="none"></path></g><g transform="translate(1329.4227705508526 73.80366521990555) rotate(0 22.8125 -0.8069718902701624)"><path d="M23.91 -8.66 C32.51 -5.87, 41.12 -3.08, 45.63 -1.61 M23.91 -8.66 C30.48 -6.53, 37.06 -4.39, 45.63 -1.61" stroke="#000000" stroke-width="2" fill="none"></path></g></g><g transform="translate(1383.5477705508526 62.08602006515886) rotate(0 14 9.5)"><text x="14" y="15" font-family="Cascadia, Segoe UI Emoji" font-size="16px" fill="#000000" text-anchor="middle" style="white-space: pre;" direction="ltr">key</text></g><g stroke-linecap="round"><g transform="translate(1322.4126668715617 87.87599725529627) rotate(0 24.755051839645603 7.98270746824231)"><path d="M0 0 C8.25 2.66, 41.26 13.3, 49.51 15.97 M0 0 C8.25 2.66, 41.26 13.3, 49.51 15.97" stroke="#000000" stroke-width="2" fill="none"></path></g><g transform="translate(1322.4126668715617 87.87599725529627) rotate(0 24.755051839645603 7.98270746824231)"><path d="M23.52 16.93 C31.85 16.62, 40.19 16.31, 49.51 15.97 M23.52 16.93 C32.45 16.6, 41.38 16.27, 49.51 15.97" stroke="#000000" stroke-width="2" fill="none"></path></g><g transform="translate(1322.4126668715617 87.87599725529627) rotate(0 24.755051839645603 7.98270746824231)"><path d="M28.98 0 C35.56 5.12, 42.15 10.24, 49.51 15.97 M28.98 0 C36.03 5.48, 43.09 10.97, 49.51 15.97" stroke="#000000" stroke-width="2" fill="none"></path></g></g><g transform="translate(1378.4227705508526 93.96102006515886) rotate(0 23.5 9.5)"><text x="23.5" y="15" font-family="Cascadia, Segoe UI Emoji" font-size="16px" fill="#000000" text-anchor="middle" style="white-space: pre;" direction="ltr">value</text></g></svg>